SplineFontDB: 3.0
FontName: HM_FTXjadid_ShadowOblique
FullName: HM_FTXjadid_ShadowOblique
FamilyName: HM_FTXjadid_ShadowOblique
Weight: Shadow
Copyright: Copyright (c) Hossein, 2013. All rights reserved.
Version: 0.1
ItalicAngle: 0
UnderlinePosition: -540
UnderlineWidth: 60
Ascent: 1638
Descent: 410
sfntRevision: 0x00010000
LayerCount: 2
Layer: 0 1 "Back"  1
Layer: 1 1 "Fore"  0
XUID: [1021 102 1371595031 6992056]
FSType: 0
OS2Version: 2
OS2_WeightWidthSlopeOnly: 0
OS2_UseTypoMetrics: 1
CreationTime: 1194658560
ModificationTime: 1360912518
PfmFamily: 17
TTFWeight: 400
TTFWidth: 5
LineGap: 0
VLineGap: 0
Panose: 2 0 5 3 8 0 0 2 0 3
OS2TypoAscent: 2100
OS2TypoAOffset: 0
OS2TypoDescent: -1000
OS2TypoDOffset: 0
OS2TypoLinegap: 0
OS2WinAscent: 2100
OS2WinAOffset: 0
OS2WinDescent: 1000
OS2WinDOffset: 0
HheadAscent: 2100
HheadAOffset: 0
HheadDescent: -1000
HheadDOffset: 0
OS2SubXSize: 1434
OS2SubYSize: 1331
OS2SubXOff: 0
OS2SubYOff: 293
OS2SupXSize: 1434
OS2SupYSize: 1331
OS2SupXOff: 0
OS2SupYOff: 928
OS2StrikeYSize: 102
OS2StrikeYPos: 512
OS2Vendor: 'pars'
OS2CodePages: 20000051.41000000
OS2UnicodeRanges: 00002003.80000000.00000008.00000000
Lookup: 4 0 1 "gsub_ligature_dfl_liga_arab_FAR_Lookup_01"  {"gsub_ligature_dfl_liga_arab_FAR_Lookup_01_Subtable_01"  } ['liga' ('arab' <'FAR ' > ) ]
Lookup: 4 0 1 "gsub_ligature_dfl_liga_arab_FAR_Lookup_02"  {"gsub_ligature_dfl_liga_arab_FAR_Lookup_02_Subtable_01"  } ['liga' ('arab' <'FAR ' > ) ]
Lookup: 3 0 0 "gsub_alternate_dfl_aalt_arab_FAR_Lookup_01"  {"gsub_alternate_dfl_aalt_arab_FAR_Lookup_01_Subtable_01"  } ['aalt' ('arab' <'FAR ' > ) ]
Lookup: 1 1 0 "gsub_single_rtl_fina_arab_FAR_Lookup_01"  {"gsub_single_rtl_fina_arab_FAR_Lookup_01_Subtable_01"  } ['fina' ('arab' <'FAR ' > ) ]
Lookup: 1 1 0 "gsub_single_rtl_init_arab_FAR_Lookup_01"  {"gsub_single_rtl_init_arab_FAR_Lookup_01_Subtable_01"  } ['init' ('arab' <'FAR ' > ) ]

StartChar: .notdef
Encoding: 65536 -1 0
Width: 1039
GlyphClass: 2
Flags: W
LayerCount: 2
Fore
SplineSet
509 299 m 0,0,1
 516 269 516 269 501 246.5 c 128,-1,2
 486 224 486 224 456 224 c 0,3,4
 428 224 428 224 403 246.5 c 128,-1,5
 378 269 378 269 371 299 c 0,6,7
 364 331 364 331 378.5 352.5 c 128,-1,8
 393 374 393 374 424 374 c 0,9,10
 452 374 452 374 477 352.5 c 128,-1,11
 502 331 502 331 509 299 c 0,0,1
499 780 m 0,12,13
 509 737 509 737 493 710 c 128,-1,14
 477 683 477 683 443 683 c 0,15,16
 413 683 413 683 391 701.5 c 128,-1,17
 369 720 369 720 363 749 c 0,18,19
 358 770 358 770 363.5 785 c 128,-1,20
 369 800 369 800 378.5 810.5 c 128,-1,21
 388 821 388 821 395.5 829 c 128,-1,22
 403 837 403 837 401 843 c 0,23,24
 396 863 396 863 375.5 875 c 128,-1,25
 355 887 355 887 327 887 c 0,26,27
 292 887 292 887 274.5 866 c 128,-1,28
 257 845 257 845 264 813 c 0,29,30
 268 795 268 795 284 769 c 128,-1,31
 300 743 300 743 317.5 718 c 128,-1,32
 335 693 335 693 350 673 c 128,-1,33
 365 653 365 653 368 648 c 0,34,35
 385 619 385 619 399.5 583.5 c 128,-1,36
 414 548 414 548 422 513 c 0,37,38
 427 492 427 492 430.5 470.5 c 128,-1,39
 434 449 434 449 438 424 c 1,40,-1
 401 424 l 1,41,-1
 397 442 l 1,42,-1
 394 472 l 1,43,44
 386 505 386 505 336 544 c 0,45,46
 253 609 253 609 242 620 c 0,47,48
 188 673 188 673 172 740 c 0,49,50
 163 781 163 781 169 815.5 c 128,-1,51
 175 850 175 850 192.5 875.5 c 128,-1,52
 210 901 210 901 239 915 c 128,-1,53
 268 929 268 929 304 929 c 0,54,55
 337 929 337 929 368.5 918.5 c 128,-1,56
 400 908 400 908 426.5 888.5 c 128,-1,57
 453 869 453 869 472 841.5 c 128,-1,58
 491 814 491 814 499 780 c 0,12,13
114 31 m 1,59,-1
 913 31 l 1,60,-1
 662 1122 l 1,61,-1
 -138 1122 l 1,62,-1
 114 31 l 1,59,-1
91 0 m 1,63,-1
 -175 1154 l 1,64,-1
 682 1154 l 1,65,-1
 948 0 l 1,66,-1
 91 0 l 1,63,-1
EndSplineSet
EndChar

StartChar: exclam
Encoding: 33 33 4
Width: 795
VWidth: 1639
GlyphClass: 2
Flags: W
LayerCount: 2
Fore
SplineSet
206 312 m 1,0,1
 185 342 185 342 155 408 c 0,2,3
 144 432 144 432 123 479 c 0,4,5
 102 526 102 526 91 549 c 0,6,7
 -74 907 -74 907 -126 1030 c 0,8,9
 -187 1170 -187 1170 -191 1235 c 0,10,11
 -192 1270 -192 1270 -184 1299 c 0,12,13
 -148 1415 -148 1415 1 1419 c 1,14,15
 99 1418 99 1418 168 1374 c 0,16,17
 234 1332 234 1332 272 1273 c 0,18,19
 277 1265 277 1265 285 1246 c 0,20,21
 293 1228 293 1228 298 1220 c 0,22,23
 304 1210 304 1210 316 1192 c 0,24,25
 347 1142 347 1142 357 1112 c 0,26,27
 363 1089 363 1089 364 1020 c 1,28,29
 362 909 362 909 363 874 c 0,30,31
 362 660 362 660 359 507 c 0,32,33
 359 483 359 483 357 435 c 0,34,35
 354 351 354 351 357 310 c 0,36,37
 358 305 358 305 362 301 c 128,-1,38
 366 297 366 297 376 293 c 2,39,-1
 385 289 l 1,40,41
 427 264 427 264 456 226 c 0,42,43
 466 212 466 212 480 183 c 0,44,45
 489 165 489 165 493 157 c 0,46,47
 499 147 499 147 512 129 c 0,48,49
 530 103 530 103 536 89 c 0,50,51
 579 -11 579 -11 533 -82 c 0,52,53
 518 -104 518 -104 497 -116 c 0,54,55
 470 -133 470 -133 439 -136 c 1,56,57
 383 -138 383 -138 338 -116 c 0,58,59
 332 -113 332 -113 321 -105 c 0,60,61
 305 -94 305 -94 297 -90 c 0,62,63
 290 -86 290 -86 274 -81 c 0,64,65
 259 -76 259 -76 252 -72 c 0,66,67
 182 -33 182 -33 146 34 c 1,68,69
 91 148 91 148 122 235 c 0,70,71
 133 263 133 263 151 280 c 0,72,73
 178 309 178 309 206 312 c 1,0,1
249 349 m 1,74,75
 265 373 265 373 262 456 c 0,76,77
 262 465 262 465 262 471 c 0,78,79
 264 698 264 698 264 718 c 0,80,81
 264 766 264 766 266 863 c 0,82,83
 267 959 267 959 268 1007 c 0,84,85
 268 1024 268 1024 268 1059 c 0,86,87
 268 1095 268 1095 268 1112 c 0,88,89
 268 1173 268 1173 253 1202 c 0,90,91
 206 1292 206 1292 116 1342 c 0,92,93
 66 1368 66 1368 22 1371 c 0,94,95
 -51 1373 -51 1373 -102 1307 c 0,96,97
 -108 1299 -108 1299 -112 1292 c 0,98,99
 -146 1228 -146 1228 -136 1171 c 0,100,101
 -133 1160 -133 1160 -122 1135 c 0,102,103
 -115 1121 -115 1121 -112 1115 c 0,104,105
 -104 1099 -104 1099 -91 1067 c 0,106,107
 -76 1034 -76 1034 -69 1018 c 0,108,109
 -34 943 -34 943 34 793 c 0,110,111
 102 642 102 642 136 567 c 0,112,113
 147 542 147 542 169.5 492.5 c 128,-1,114
 192 443 192 443 203 418 c 0,115,116
 231 361 231 361 249 349 c 1,74,75
269 269 m 1,117,118
 200 259 200 259 173 189 c 0,119,120
 159 151 159 151 167 112 c 0,121,122
 181 44 181 44 258 -10 c 0,123,124
 281 -26 281 -26 303 -34 c 0,125,126
 340 -47 340 -47 357 -46 c 0,127,128
 423 -36 423 -36 452 30 c 0,129,130
 468 70 468 70 459 112 c 0,131,132
 442 184 442 184 363 236 c 0,133,134
 344 248 344 248 327 256 c 0,135,136
 292 271 292 271 269 269 c 1,117,118
EndSplineSet
EndChar

StartChar: percent
Encoding: 37 37 8
Width: 949
VWidth: 1639
GlyphClass: 2
Flags: W
LayerCount: 2
Fore
SplineSet
334 1194 m 1,0,-1
 356 1186 l 1,1,-1
 355 1194 l 1,2,-1
 377 1186 l 1,3,-1
 377 1194 l 1,4,-1
 445 1161 l 1,5,-1
 549 1109 l 1,6,-1
 546 1089 l 1,7,-1
 554 1086 l 1,8,-1
 551 1066 l 1,9,-1
 559 1063 l 1,10,-1
 557 1041 l 1,11,-1
 601 1020 l 1,12,-1
 537 659 l 1,13,-1
 427 51 l 1,14,-1
 385 -184 l 1,15,-1
 125 -51 l 1,16,-1
 129 -31 l 1,17,-1
 120 -28 l 1,18,-1
 123 -8 l 1,19,-1
 115 -5 l 1,20,-1
 132 92 l 1,21,-1
 170 303 l 1,22,-1
 281 902 l 1,23,-1
 317 1100 l 1,24,-1
 334 1194 l 1,0,-1
294 -74 m 1,25,26
 295 -69 295 -69 310 15 c 0,27,28
 315 48 315 48 327 112 c 0,29,30
 339 177 339 177 344 210 c 0,31,32
 424 642 424 642 451 805 c 0,33,34
 457 844 457 844 487 1000 c 0,35,36
 488 1008 488 1008 491 1025 c 0,37,38
 494 1042 494 1042 495 1050 c 0,39,40
 499 1063 499 1063 496 1071 c 1,41,42
 493 1076 493 1076 470 1086 c 1,43,44
 405 1122 405 1122 384 1128 c 1,45,-1
 331 841 l 1,46,-1
 241 348 l 1,47,-1
 195 103 l 1,48,-1
 175 -13 l 1,49,-1
 248 -51 l 1,50,-1
 294 -74 l 1,25,26
-10 1076 m 0,51,52
 96 1091 96 1091 162 1015 c 0,53,54
 165 1012 165 1012 166 1010 c 0,55,56
 172 1002 172 1002 191 960 c 0,57,58
 195 951 195 951 200 943 c 0,59,60
 205 933 205 933 219 917 c 0,61,62
 238 893 238 893 243 879 c 0,63,64
 274 799 274 799 228 748 c 0,65,66
 205 724 205 724 171 718 c 1,67,68
 126 714 126 714 84 738 c 0,69,70
 79 741 79 741 70 749 c 0,71,72
 58 759 58 759 52 761 c 0,73,74
 46 764 46 764 33 768 c 0,75,76
 19 772 19 772 13 774 c 0,77,78
 -30 795 -30 795 -62 841 c 0,79,80
 -76 864 -76 864 -86 907 c 0,81,82
 -99 963 -99 963 -99 981 c 0,83,84
 -96 1059 -96 1059 -14 1075 c 0,85,86
 -11 1076 -11 1076 -10 1076 c 0,51,52
32 1027 m 0,87,88
 -12 1029 -12 1029 -37 975 c 0,89,90
 -52 944 -52 944 -45 917 c 0,91,92
 -32 866 -32 866 29 828 c 0,93,94
 59 810 59 810 81 809 c 0,95,96
 128 807 128 807 152 862 c 0,97,98
 164 891 164 891 160 917 c 0,99,100
 150 966 150 966 90 1005 c 0,101,102
 57 1025 57 1025 32 1027 c 0,87,88
554 208 m 0,103,104
 672 222 672 222 738 138 c 0,105,106
 745 127 745 127 754 104 c 0,107,108
 762 84 762 84 767 75 c 0,109,110
 773 66 773 66 785 51 c 0,111,112
 808 20 808 20 815 0 c 0,113,114
 840 -73 840 -73 795 -121 c 0,115,116
 774 -142 774 -142 746 -148 c 0,117,118
 699 -155 699 -155 655 -131 c 0,119,120
 650 -128 650 -128 640 -120 c 0,121,122
 627 -110 627 -110 620.5 -106.5 c 128,-1,123
 614 -103 614 -103 600 -100 c 0,124,125
 589 -97 589 -97 584 -95 c 0,126,127
 536 -73 536 -73 506 -28 c 0,128,129
 491 -3 491 -3 481 39 c 0,130,131
 468 96 468 96 469 107 c 0,132,133
 468 179 468 179 532 202 c 0,134,135
 543 206 543 206 554 208 c 0,103,104
598 161 m 1,136,137
 551 158 551 158 529 105 c 0,138,139
 519 78 519 78 523 52 c 0,140,141
 533 3 533 3 591 -36 c 0,142,143
 625 -58 625 -58 651 -59 c 0,144,145
 697 -57 697 -57 721 -4 c 0,146,147
 732 24 732 24 728 49 c 0,148,149
 719 95 719 95 660 137 c 0,150,151
 624 161 624 161 598 161 c 1,136,137
EndSplineSet
EndChar

StartChar: parenleft
Encoding: 40 40 11
Width: 640
VWidth: 1639
GlyphClass: 2
Flags: W
LayerCount: 2
Fore
SplineSet
212 1327 m 1,0,1
 242 1334 242 1334 250 1295 c 0,2,3
 253 1281 253 1281 253 1266 c 0,4,5
 252 1256 252 1256 231 1084 c 0,6,7
 230 1072 230 1072 228 1063 c 0,8,9
 191 771 191 771 231 558 c 1,10,11
 262 399 262 399 359 195 c 0,12,13
 412 85 412 85 556 -164 c 0,14,15
 591 -224 591 -224 605 -253 c 1,16,17
 618 -286 618 -286 615 -302 c 1,18,19
 608 -316 608 -316 582 -305 c 0,20,21
 573 -300 573 -300 557 -288 c 0,22,23
 538 -274 538 -274 528 -269 c 0,24,25
 524 -267 524 -267 516 -267 c 0,26,27
 510 -266 510 -266 508 -266 c 0,28,29
 492 -261 492 -261 471 -246 c 0,30,31
 419 -209 419 -209 353 -131 c 0,32,33
 275 -39 275 -39 170 120 c 0,34,35
 27 337 27 337 -29 528 c 1,36,37
 -121 845 -121 845 5 1230 c 0,38,39
 48 1355 48 1355 90 1394 c 0,40,41
 98 1401 98 1401 105 1407 c 0,42,43
 119 1417 119 1417 160 1417 c 1,44,45
 181 1415 181 1415 188 1409 c 1,46,47
 200 1390 200 1390 212 1327 c 1,0,1
158 1360 m 1,48,49
 135 1355 135 1355 104 1295 c 0,50,51
 101 1290 101 1290 100 1287 c 0,52,53
 55 1195 55 1195 22 1046 c 0,54,55
 -40 778 -40 778 -2 594 c 0,56,57
 10 536 10 536 55 435 c 0,58,59
 127 270 127 270 267 71 c 1,60,61
 365 -71 365 -71 438 -144 c 0,62,63
 492 -199 492 -199 521 -210 c 1,64,65
 515 -199 515 -199 369 54 c 0,66,67
 362 66 362 66 357 75 c 0,68,69
 176 406 176 406 135 648 c 0,70,71
 101 854 101 854 125 1081 c 0,72,73
 129 1123 129 1123 140 1205 c 0,74,75
 154 1308 154 1308 158 1360 c 1,48,49
EndSplineSet
EndChar

StartChar: parenright
Encoding: 41 41 12
Width: 731
VWidth: 1639
GlyphClass: 2
Flags: W
LayerCount: 2
Fore
SplineSet
227 -266 m 1,0,1
 217 -268 217 -268 183 -267 c 0,2,3
 165 -266 165 -266 161 -264 c 0,4,5
 149 -256 149 -256 142 -220 c 0,6,7
 130 -165 130 -165 139 -87 c 0,8,9
 176 219 176 219 172 362 c 0,10,11
 169 471 169 471 151 567 c 0,12,13
 135 648 135 648 74 795 c 1,14,15
 4 954 4 954 -158 1225 c 0,16,17
 -213 1317 -213 1317 -223 1359 c 0,18,19
 -224 1362 -224 1362 -224 1364 c 0,20,21
 -231 1399 -231 1399 -230 1409 c 0,22,23
 -227 1417 -227 1417 -207 1417 c 0,24,25
 -204 1417 -204 1417 -202 1417 c 0,26,27
 -154 1423 -154 1423 -85 1363 c 1,28,29
 -38 1321 -38 1321 26 1241 c 0,30,31
 123 1121 123 1121 204 992 c 0,32,33
 367 729 367 729 416 570 c 0,34,35
 419 561 419 561 421 554 c 0,36,37
 488 325 488 325 405 -21 c 0,38,39
 403 -29 403 -29 401 -36 c 0,40,41
 361 -197 361 -197 314 -266 c 1,42,43
 255 -341 255 -341 234 -287 c 0,44,45
 230 -279 230 -279 227 -266 c 1,0,1
-174 1360 m 1,46,47
 -174 1350 -174 1350 -149 1310 c 0,48,49
 -136 1288 -136 1288 -110 1244 c 0,50,51
 -83 1199 -83 1199 -71 1178 c 0,52,53
 80 929 80 929 151 725 c 0,54,55
 243 457 243 457 222 134 c 0,56,57
 218 76 218 76 204 -38 c 0,58,59
 190 -153 190 -153 185 -210 c 1,60,61
 209 -202 209 -202 242 -138 c 0,62,63
 244 -134 244 -134 245 -131 c 0,64,65
 285 -41 285 -41 319 115 c 0,66,67
 359 295 359 295 354 453 c 1,68,69
 347 553 347 553 337 594 c 0,70,71
 288 784 288 784 88 1069 c 0,72,73
 6 1188 6 1188 -71 1271 c 0,74,75
 -133 1336 -133 1336 -174 1360 c 1,46,47
EndSplineSet
EndChar

StartChar: plus
Encoding: 43 43 14
Width: 766
VWidth: 1639
GlyphClass: 2
Flags: W
LayerCount: 2
Fore
SplineSet
45 887 m 1,0,-1
 289 887 l 1,1,-1
 309 799 l 1,2,-1
 341 799 l 1,3,-1
 377 645 l 1,4,-1
 578 645 l 1,5,-1
 599 556 l 1,6,-1
 631 556 l 1,7,-1
 682 336 l 1,8,-1
 453 336 l 1,9,-1
 512 79 l 1,10,-1
 300 79 l 1,11,-1
 290 121 l 1,12,-1
 216 121 l 1,13,-1
 166 335 l 1,14,-1
 5 335 l 1,15,-1
 -5 377 l 1,16,-1
 -80 377 l 1,17,-1
 -142 645 l 1,18,-1
 101 645 l 1,19,-1
 45 887 l 1,0,-1
257 841 m 1,20,-1
 98 841 l 1,21,-1
 154 599 l 1,22,-1
 -88 599 l 1,23,-1
 -48 423 l 1,24,-1
 189 423 l 1,25,-1
 248 167 l 1,26,-1
 417 167 l 1,27,-1
 358 425 l 1,28,-1
 586 425 l 1,29,-1
 546 599 l 1,30,-1
 313 599 l 1,31,-1
 257 841 l 1,20,-1
EndSplineSet
EndChar

StartChar: hyphen
Encoding: 45 45 16
AltUni2: 002212.ffffffff.0 0000ad.ffffffff.0
Width: 970
VWidth: 1639
GlyphClass: 2
Flags: W
LayerCount: 2
Fore
SplineSet
-40 645 m 1,0,-1
 680 645 l 1,1,-1
 701 556 l 1,2,-1
 733 556 l 1,3,-1
 784 336 l 1,4,5
 745 333 745 333 546 335 c 2,6,-1
 107 335 l 1,7,-1
 97 377 l 1,8,-1
 22 377 l 1,9,-1
 -40 645 l 1,0,-1
648 599 m 1,10,-1
 14 599 l 1,11,-1
 54 423 l 1,12,-1
 464 423 l 1,13,-1
 688 425 l 1,14,-1
 648 599 l 1,10,-1
EndSplineSet
EndChar

StartChar: period
Encoding: 46 46 17
Width: 599
VWidth: 1639
GlyphClass: 2
Flags: W
LayerCount: 2
Fore
SplineSet
148 228 m 0,0,1
 266 242 266 242 331 162 c 0,2,3
 334 158 334 158 356 111 c 0,4,5
 361 101 361 101 365 95 c 0,6,7
 371 85 371 85 383 69 c 0,8,9
 402 43 402 43 409 28 c 0,10,11
 437 -50 437 -50 393 -99 c 0,12,13
 372 -122 372 -122 342 -128 c 1,14,15
 292 -133 292 -133 252 -112 c 0,16,17
 247 -109 247 -109 238 -101 c 0,18,19
 225 -91 225 -91 218 -87 c 0,20,21
 212 -83 212 -83 198 -80 c 0,22,23
 187 -77 187 -77 183 -75 c 0,24,25
 134 -51 134 -51 106 -11 c 0,26,27
 87 19 87 19 75 67 c 0,28,29
 65 113 65 113 66 136 c 0,30,31
 71 204 71 204 135 225 c 0,32,33
 142 227 142 227 148 228 c 0,0,1
194 180 m 0,34,35
 146 175 146 175 125 122 c 0,36,37
 115 95 115 95 119 71 c 0,38,39
 130 24 130 24 187 -16 c 0,40,41
 222 -39 222 -39 248 -38 c 0,42,43
 294 -36 294 -36 317 16 c 0,44,45
 329 44 329 44 323 71 c 0,46,47
 311 123 311 123 246 162 c 0,48,49
 239 166 239 166 234 169 c 0,50,51
 206 180 206 180 194 180 c 0,34,35
EndSplineSet
EndChar

StartChar: slash
Encoding: 47 47 18
Width: 732
VWidth: 1639
GlyphClass: 2
Flags: W
LayerCount: 2
Fore
SplineSet
231 1151 m 1,0,-1
 252 1141 l 1,1,-1
 252 1151 l 1,2,-1
 273 1141 l 1,3,-1
 274 1151 l 1,4,-1
 325 1127 l 1,5,-1
 446 1066 l 1,6,-1
 443 1046 l 1,7,-1
 451 1043 l 1,8,-1
 448 1023 l 1,9,-1
 457 1020 l 1,10,-1
 454 999 l 1,11,-1
 498 977 l 1,12,-1
 446 684 l 1,13,-1
 336 75 l 1,14,-1
 282 -226 l 1,15,-1
 206 -187 l 1,16,-1
 85 -126 l 1,17,-1
 40 -103 l 1,18,-1
 24 -92 l 1,19,-1
 24 -77 l 1,20,-1
 13 -43 l 1,21,-1
 24 26 l 1,22,-1
 67 256 l 1,23,-1
 172 827 l 1,24,-1
 231 1151 l 1,0,-1
395 1030 m 1,25,-1
 281 1086 l 1,26,27
 267 1016 267 1016 168 467 c 0,28,29
 153 383 153 383 140 317 c 0,30,31
 106 146 106 146 93 59 c 0,32,33
 91 48 91 48 85 25 c 0,34,35
 71 -31 71 -31 72 -57 c 1,36,-1
 190 -118 l 1,37,-1
 232 112 l 1,38,-1
 331 661 l 1,39,-1
 376 913 l 1,40,-1
 388 986 l 1,41,-1
 395 1030 l 1,25,-1
EndSplineSet
EndChar

StartChar: colon
Encoding: 58 58 29
Width: 599
VWidth: 1639
GlyphClass: 2
Flags: W
LayerCount: 2
Fore
SplineSet
185 226 m 1,0,1
 179 228 179 228 148 249 c 0,2,3
 141 253 141 253 137 256 c 0,4,5
 132 258 132 258 122 261 c 0,6,7
 111 264 111 264 106 266 c 0,8,9
 62 286 62 286 34 320 c 1,10,11
 10 352 10 352 -3 408 c 0,12,13
 -28 524 -28 524 39 561 c 1,14,15
 74 576 74 576 146 569 c 0,16,17
 208 562 208 562 255 499 c 0,18,19
 261 491 261 491 266 484 c 0,20,21
 270 477 270 477 274 463 c 0,22,23
 281 445 281 445 286 438 c 0,24,25
 292 429 292 429 304 412 c 0,26,27
 320 391 320 391 327 379 c 0,28,29
 362 297 362 297 317 245 c 0,30,31
 311 239 311 239 307 235 c 0,32,33
 298 228 298 228 260 213 c 1,34,35
 316 188 316 188 349 133 c 0,36,37
 351 128 351 128 355 116 c 0,38,39
 362 99 362 99 366 92 c 0,40,41
 370 87 370 87 389 64 c 1,42,43
 407 37 407 37 416 5 c 0,44,45
 439 -74 439 -74 379 -114 c 0,46,47
 349 -133 349 -133 311 -133 c 0,48,49
 284 -132 284 -132 231 -99 c 0,50,51
 224 -95 224 -95 219 -92 c 0,52,53
 215 -90 215 -90 189 -82 c 1,54,55
 162 -72 162 -72 138 -51 c 0,56,57
 94 -12 94 -12 76 66 c 0,58,59
 59 145 59 145 84 184 c 1,60,61
 107 215 107 215 146 223 c 0,62,63
 152 224 152 224 163 223 c 0,64,65
 178 223 178 223 186 225 c 1,66,-1
 185 226 l 1,0,1
112 522 m 0,67,68
 65 515 65 515 45 463 c 0,69,70
 35 436 35 436 40 412 c 0,71,72
 54 360 54 360 116 323 c 0,73,74
 124 318 124 318 131 315 c 0,75,76
 156 302 156 302 172 303 c 0,77,78
 222 310 222 310 241 365 c 0,79,80
 249 389 249 389 245 412 c 0,81,82
 235 461 235 461 173 500 c 0,83,84
 163 506 163 506 155 510 c 0,85,86
 126 523 126 523 112 522 c 0,67,68
192 175 m 0,87,88
 145 168 145 168 125 117 c 0,89,90
 115 90 115 90 120 66 c 0,91,92
 134 14 134 14 196 -23 c 0,93,94
 204 -28 204 -28 211 -31 c 0,95,96
 236 -44 236 -44 252 -43 c 0,97,98
 302 -36 302 -36 321 18 c 0,99,100
 329 42 329 42 324 66 c 0,101,102
 314 115 314 115 253 154 c 0,103,104
 243 160 243 160 235 164 c 0,105,106
 206 176 206 176 192 175 c 0,87,88
EndSplineSet
EndChar

StartChar: equal
Encoding: 61 61 32
Width: 766
VWidth: 1639
GlyphClass: 2
Flags: W
LayerCount: 2
Fore
SplineSet
-178 802 m 1,0,-1
 542 802 l 1,1,-1
 562 713 l 1,2,-1
 595 713 l 1,3,-1
 645 494 l 1,4,-1
 -32 492 l 1,5,-1
 -41 535 l 1,6,-1
 -116 535 l 1,7,-1
 -178 802 l 1,0,-1
510 756 m 1,8,-1
 -125 756 l 1,9,-1
 -84 581 l 1,10,-1
 550 582 l 1,11,-1
 510 756 l 1,8,-1
-103 477 m 1,12,-1
 617 477 l 1,13,-1
 637 389 l 1,14,-1
 669 389 l 1,15,-1
 720 169 l 1,16,-1
 43 167 l 1,17,-1
 34 210 l 1,18,-1
 -41 210 l 1,19,-1
 -103 477 l 1,12,-1
585 431 m 1,20,-1
 -50 431 l 1,21,-1
 -9 256 l 1,22,-1
 625 257 l 1,23,-1
 585 431 l 1,20,-1
EndSplineSet
EndChar

StartChar: bracketleft
Encoding: 91 91 62
Width: 610
VWidth: 1639
GlyphClass: 2
Flags: W
LayerCount: 2
Fore
SplineSet
-214 1322 m 1,0,-1
 182 1322 l 1,1,-1
 203 1233 l 1,2,-1
 235 1233 l 1,3,-1
 250 1168 l 1,4,-1
 6 1168 l 1,5,-1
 346 -303 l 1,6,-1
 558 -303 l 1,7,-1
 578 -392 l 1,8,-1
 610 -392 l 1,9,-1
 625 -458 l 1,10,-1
 271 -458 l 1,11,-1
 262 -415 l 1,12,-1
 187 -415 l 1,13,-1
 -214 1322 l 1,0,-1
150 1276 m 1,14,-1
 -161 1276 l 1,15,-1
 219 -369 l 1,16,-1
 530 -369 l 1,17,-1
 525 -349 l 1,18,-1
 281 -349 l 1,19,-1
 -89 1256 l 1,20,-1
 155 1256 l 1,21,-1
 150 1276 l 1,14,-1
EndSplineSet
EndChar

StartChar: bracketright
Encoding: 93 93 64
Width: 699
VWidth: 1639
GlyphClass: 2
Flags: W
LayerCount: 2
Fore
SplineSet
-214 1322 m 1,0,-1
 181 1322 l 1,1,-1
 201 1233 l 1,2,-1
 233 1233 l 1,3,-1
 624 -458 l 1,4,-1
 271 -458 l 1,5,-1
 262 -415 l 1,6,-1
 187 -415 l 1,7,-1
 161 -303 l 1,8,-1
 404 -303 l 1,9,-1
 64 1168 l 1,10,-1
 -104 1168 l 1,11,-1
 -114 1210 l 1,12,-1
 -188 1210 l 1,13,-1
 -214 1322 l 1,0,-1
149 1276 m 1,14,-1
 -161 1276 l 1,15,-1
 -156 1256 l 1,16,-1
 86 1256 l 1,17,-1
 457 -349 l 1,18,-1
 214 -349 l 1,19,-1
 219 -369 l 1,20,-1
 529 -369 l 1,21,-1
 149 1276 l 1,14,-1
EndSplineSet
EndChar

StartChar: guillemotleft
Encoding: 171 171 175
Width: 795
VWidth: 1639
GlyphClass: 2
Flags: W
LayerCount: 2
Fore
SplineSet
110 927 m 1,0,-1
 117 936 l 1,1,-1
 121 925 l 1,2,-1
 130 927 l 1,3,-1
 129 913 l 1,4,-1
 140 922 l 1,5,-1
 132 927 l 1,6,-1
 138 936 l 1,7,-1
 143 925 l 1,8,-1
 151 927 l 1,9,-1
 149 902 l 1,10,-1
 157 904 l 1,11,-1
 155 879 l 1,12,-1
 162 881 l 1,13,-1
 157 792 l 1,14,15
 182 828 182 828 190 833 c 0,16,17
 197 837 197 837 204 838 c 1,18,19
 203 817 203 817 200 776 c 0,20,21
 194 700 194 700 198 661 c 1,22,-1
 199 661 l 1,23,24
 199 686 199 686 216 745 c 1,25,26
 239 833 239 833 261 874 c 0,27,28
 289 922 289 922 312 927 c 1,29,-1
 310 913 l 1,30,-1
 322 922 l 1,31,-1
 321 923 l 1,32,-1
 313 927 l 1,33,-1
 320 936 l 1,34,-1
 324 925 l 1,35,-1
 333 927 l 1,36,-1
 331 913 l 1,37,-1
 343 922 l 1,38,-1
 343 923 l 1,39,-1
 334 927 l 1,40,-1
 341 936 l 1,41,-1
 346 925 l 1,42,-1
 354 927 l 1,43,-1
 351 902 l 1,44,-1
 360 904 l 1,45,-1
 356 879 l 1,46,-1
 365 881 l 1,47,-1
 359 792 l 1,48,49
 384 828 384 828 393 833 c 0,50,51
 400 837 400 837 407 838 c 1,52,53
 399 617 399 617 402 513 c 0,54,55
 407 324 407 324 453 207 c 1,56,57
 505 80 505 80 601 -90 c 0,58,59
 608 -102 608 -102 623 -127 c 0,60,61
 637 -152 637 -152 644 -164 c 0,62,63
 659 -190 659 -190 657 -202 c 0,64,65
 651 -225 651 -225 607 -187 c 0,66,67
 585 -169 585 -169 581 -167 c 0,68,69
 575 -165 575 -165 566 -165 c 0,70,71
 555 -165 555 -165 549 -162 c 0,72,73
 518 -145 518 -145 479 -102 c 1,74,75
 436 -56 436 -56 367 44 c 0,76,77
 243 227 243 227 206 385 c 1,78,-1
 205 385 l 1,79,80
 208 370 208 370 212 342 c 0,81,82
 217 306 217 306 222 289 c 0,83,84
 259 167 259 167 367 -34 c 0,85,86
 370 -39 370 -39 436 -153 c 0,87,88
 455 -189 455 -189 455 -195 c 0,89,90
 455 -199 455 -199 455 -202 c 0,91,92
 451 -213 451 -213 433 -207 c 0,93,94
 429 -205 429 -205 396 -178 c 0,95,96
 388 -172 388 -172 383 -169 c 0,97,98
 376 -165 376 -165 363 -165 c 0,99,100
 347 -164 347 -164 340 -159 c 0,101,102
 286 -125 286 -125 205 -15 c 2,103,-1
 204 -13 l 2,104,105
 89 143 89 143 38 269 c 1,106,107
 -56 512 -56 512 13 741 c 1,108,109
 43 850 43 850 63 883 c 0,110,111
 65 887 65 887 67 889 c 0,112,113
 92 923 92 923 109 927 c 1,114,-1
 107 913 l 1,115,-1
 119 922 l 1,116,-1
 110 927 l 1,0,-1
153 927 m 1,117,-1
 160 936 l 1,118,-1
 168 913 l 1,119,-1
 167 913 l 1,120,-1
 153 927 l 1,117,-1
356 927 m 1,121,-1
 363 936 l 1,122,-1
 371 913 l 1,123,-1
 370 913 l 1,124,-1
 356 927 l 1,121,-1
158 904 m 1,125,-1
 165 913 l 1,126,-1
 173 891 l 1,127,-1
 172 891 l 1,128,-1
 158 904 l 1,125,-1
361 904 m 1,129,-1
 368 913 l 1,130,-1
 376 891 l 1,131,-1
 375 891 l 1,132,-1
 361 904 l 1,129,-1
164 881 m 1,133,-1
 170 891 l 1,134,-1
 179 868 l 1,135,-1
 177 868 l 1,136,-1
 164 881 l 1,133,-1
366 881 m 1,137,-1
 373 891 l 1,138,-1
 382 868 l 1,139,-1
 380 868 l 1,140,-1
 366 881 l 1,137,-1
205 838 m 1,141,-1
 212 848 l 1,142,-1
 221 825 l 1,143,-1
 219 825 l 1,144,-1
 205 838 l 1,141,-1
408 838 m 1,145,-1
 415 848 l 1,146,-1
 424 825 l 1,147,-1
 422 825 l 1,148,-1
 408 838 l 1,145,-1
102 805 m 1,149,150
 78 767 78 767 58 659 c 1,151,152
 24 492 24 492 45 389 c 0,153,154
 53 356 53 356 78 298 c 0,155,156
 120 200 120 200 197 90 c 0,157,158
 259 1 259 1 288 -33 c 0,159,160
 320 -70 320 -70 332 -79 c 1,161,162
 321 -54 321 -54 292 -5 c 0,163,164
 274 25 274 25 266 39 c 0,165,166
 169 219 169 219 138 333 c 0,167,168
 104 459 104 459 103 663 c 0,169,170
 103 679 103 679 103 710 c 0,171,172
 105 774 105 774 102 805 c 1,149,150
305 805 m 1,173,174
 279 766 279 766 260 656 c 1,175,176
 227 492 227 492 248 389 c 0,177,178
 256 356 256 356 281 298 c 0,179,180
 324 198 324 198 397 93 c 0,181,182
 464 -3 464 -3 488 -31 c 0,183,184
 526 -73 526 -73 535 -79 c 1,185,186
 524 -54 524 -54 494 -5 c 0,187,188
 476 25 476 25 469 39 c 0,189,190
 372 219 372 219 340 333 c 0,191,192
 306 459 306 459 305 663 c 0,193,194
 305 679 305 679 306 710 c 0,195,196
 308 774 308 774 305 805 c 1,173,174
157 790 m 1,197,-1
 155 790 l 1,198,-1
 157 790 l 1,197,-1
360 790 m 1,199,-1
 358 790 l 1,200,-1
 360 790 l 1,199,-1
198 659 m 1,201,-1
 196 659 l 1,202,-1
 198 659 l 1,201,-1
198 654 m 1,203,-1
 196 653 l 1,204,-1
 198 654 l 1,203,-1
334 -80 m 1,205,-1
 332 -82 l 1,206,-1
 334 -80 l 1,205,-1
536 -80 m 1,207,-1
 535 -82 l 1,208,-1
 536 -80 l 1,207,-1
EndSplineSet
EndChar

StartChar: guillemotright
Encoding: 187 187 176
Width: 795
VWidth: 1639
GlyphClass: 2
Flags: W
LayerCount: 2
Fore
SplineSet
-121 936 m 1,0,-1
 -110 927 l 1,1,-1
 -118 915 l 1,2,-1
 -119 915 l 1,3,-1
 -121 936 l 1,0,-1
-100 936 m 1,4,-1
 -89 927 l 1,5,-1
 -95 922 l 1,6,-1
 -79 913 l 1,7,-1
 -87 927 l 1,8,-1
 -79 925 l 1,9,-1
 -79 936 l 1,10,-1
 -67 927 l 1,11,-1
 -74 922 l 1,12,-1
 -58 913 l 1,13,-1
 -66 927 l 1,14,15
 -45 922 -45 922 -14 895 c 0,16,17
 32 855 32 855 76 795 c 0,18,19
 133 720 133 720 216 584 c 1,20,21
 312 423 312 423 335 328 c 1,22,-1
 336 328 l 1,23,24
 334 337 334 337 333 354 c 0,25,26
 331 372 331 372 329 380 c 0,27,28
 322 407 322 407 271 530 c 0,29,30
 270 533 270 533 269 535 c 0,31,32
 214 664 214 664 151 795 c 0,33,34
 143 811 143 811 126 842 c 0,35,36
 112 868 112 868 105 881 c 1,37,-1
 113 879 l 1,38,-1
 100 904 l 1,39,-1
 108 902 l 1,40,-1
 94 927 l 1,41,-1
 102 925 l 1,42,-1
 103 936 l 1,43,-1
 114 927 l 1,44,-1
 108 922 l 1,45,-1
 123 913 l 1,46,-1
 116 927 l 1,47,-1
 124 925 l 1,48,-1
 124 936 l 1,49,-1
 136 927 l 1,50,-1
 129 922 l 1,51,-1
 145 913 l 1,52,-1
 137 927 l 1,53,54
 165 920 165 920 208 877 c 0,55,56
 268 816 268 816 344 705 c 0,57,58
 355 688 355 688 417 585 c 0,59,60
 523 408 523 408 545 297 c 0,61,62
 569 166 569 166 528 -11 c 0,63,64
 510 -93 510 -93 485 -149 c 1,65,66
 464 -190 464 -190 444 -205 c 0,67,68
 438 -208 438 -208 436 -208 c 0,69,70
 407 -215 407 -215 415 -155 c 0,71,72
 416 -150 416 -150 416 -149 c 1,73,74
 401 -165 401 -165 379 -166 c 0,75,76
 376 -166 376 -166 368 -166 c 0,77,78
 346 -168 346 -168 339 -164 c 0,79,80
 331 -158 331 -158 324 -126 c 0,81,82
 317 -99 317 -99 325 -31 c 0,83,84
 327 -16 327 -16 327 -7 c 1,85,-1
 325 -7 l 1,86,87
 324 -10 324 -10 324 -13 c 128,-1,88
 324 -16 324 -16 323.5 -19.5 c 128,-1,89
 323 -23 323 -23 322.5 -27 c 128,-1,90
 322 -31 322 -31 321.5 -33.5 c 128,-1,91
 321 -36 321 -36 319 -40 c 128,-1,92
 317 -44 317 -44 316.5 -46 c 128,-1,93
 316 -48 316 -48 315 -53 c 2,94,-1
 313 -59 l 1,95,96
 294 -133 294 -133 268 -175 c 0,97,98
 239 -223 239 -223 218 -205 c 0,99,100
 207 -194 207 -194 213 -153 c 0,101,102
 213 -150 213 -150 213 -149 c 1,103,104
 196 -168 196 -168 156 -166 c 0,105,106
 133 -163 133 -163 135 -164 c 1,107,108
 130 -159 130 -159 127 -153 c 0,109,110
 110 -105 110 -105 123 -9 c 0,111,112
 126 16 126 16 128 30 c 0,113,114
 146 214 146 214 133 331 c 0,115,116
 123 408 123 408 63 540 c 1,117,118
 -9 705 -9 705 -46 784 c 0,119,120
 -53 798 -53 798 -68 824 c 0,121,122
 -89 862 -89 862 -98 881 c 1,123,-1
 -90 879 l 1,124,-1
 -103 904 l 1,125,-1
 -95 902 l 1,126,-1
 -108 927 l 1,127,-1
 -100 925 l 1,128,-1
 -100 936 l 1,4,-1
82 936 m 1,129,-1
 93 927 l 1,130,-1
 85 915 l 1,131,-1
 83 915 l 1,132,-1
 82 936 l 1,129,-1
-116 913 m 1,133,-1
 -105 904 l 1,134,-1
 -113 892 l 1,135,-1
 -114 892 l 1,136,-1
 -116 913 l 1,133,-1
87 913 m 1,137,-1
 98 904 l 1,138,-1
 90 892 l 1,139,-1
 89 892 l 1,140,-1
 87 913 l 1,137,-1
-111 891 m 1,141,-1
 -99 881 l 1,142,-1
 -107 869 l 1,143,-1
 -109 869 l 1,144,-1
 -111 891 l 1,141,-1
92 891 m 1,145,-1
 104 881 l 1,146,-1
 96 869 l 1,147,-1
 94 869 l 1,148,-1
 92 891 l 1,145,-1
200 807 m 1,149,-1
 199 805 l 1,150,-1
 200 807 l 1,149,-1
-1 804 m 1,151,152
 0 802 0 802 13 769 c 0,153,154
 19 756 19 756 32 729 c 0,155,156
 45 701 45 701 50 689 c 0,157,158
 128 520 128 520 158 428 c 0,159,160
 214 252 214 252 179 -40 c 0,161,162
 177 -59 177 -59 174 -80 c 1,163,164
 189 -65 189 -65 200 -26 c 1,165,166
 215 13 215 13 233 90 c 0,167,168
 273 264 273 264 247 385 c 0,169,170
 235 434 235 434 196 515 c 1,171,172
 106 689 106 689 -1 804 c 1,151,152
202 804 m 1,173,174
 203 802 203 802 216 769 c 0,175,176
 222 756 222 756 235 729 c 0,177,178
 248 701 248 701 253 689 c 0,179,180
 331 520 331 520 361 426 c 0,181,182
 408 280 408 280 388 41 c 0,183,184
 386 22 386 22 383 -15 c 0,185,186
 379 -59 379 -59 377 -80 c 1,187,188
 392 -65 392 -65 403 -26 c 1,189,190
 418 13 418 13 435 90 c 0,191,192
 475 264 475 264 450 385 c 0,193,194
 439 430 439 430 405 502 c 0,195,196
 369 577 369 577 293 686 c 0,197,198
 241 763 241 763 202 804 c 1,173,174
328 0 m 1,199,-1
 327 -2 l 1,200,-1
 328 0 l 1,199,-1
328 -5 m 1,201,-1
 326 -5 l 1,202,-1
 328 -5 l 1,201,-1
EndSplineSet
EndChar

StartChar: guilsinglleft
Encoding: 8249 8249 195
Width: 520
GlyphClass: 2
Flags: W
LayerCount: 2
Fore
SplineSet
307 70 m 1,0,1
 324 48 324 48 328 35 c 0,2,3
 330 26 330 26 319 26 c 0,4,5
 311 26 311 26 294 33 c 1,6,7
 235 73 235 73 182.5 128 c 128,-1,8
 130 183 130 183 83 255 c 0,9,10
 41 321 41 321 14.5 385 c 128,-1,11
 -12 449 -12 449 -27 513 c 1,12,13
 -60 656 -60 656 -30 783 c 1,14,15
 4 904 4 904 81 958 c 1,16,17
 104 969 104 969 107 969 c 0,18,19
 114 969 114 969 116 963 c 0,20,21
 118 953 118 953 106 912 c 1,22,23
 34 746 34 746 88 513 c 0,24,25
 148 249 148 249 307 70 c 1,0,1
EndSplineSet
EndChar

StartChar: guilsinglright
Encoding: 8250 8250 196
Width: 523
GlyphClass: 2
Flags: W
LayerCount: 2
Fore
SplineSet
89 70 m 1,0,1
 168 249 168 249 106 513 c 0,2,3
 51 751 51 751 -99 913 c 1,4,5
 -129 954 -129 954 -131 963 c 0,6,7
 -132 969 -132 969 -125 969 c 0,8,9
 -123 969 -123 969 -115 966.5 c 128,-1,10
 -107 964 -107 964 -96 958 c 0,11,12
 -42 931 -42 931 6 887 c 128,-1,13
 54 843 54 843 97 783 c 0,14,15
 145 718 145 718 175.5 650.5 c 128,-1,16
 206 583 206 583 223 513 c 0,17,18
 238 450 238 450 238 385 c 128,-1,19
 238 320 238 320 226 255 c 0,20,21
 214 188 214 188 186.5 130 c 128,-1,22
 159 72 159 72 119 33 c 1,23,24
 108 26 108 26 97 26 c 256,25,26
 86 26 86 26 84 35 c 0,27,28
 81 47 81 47 89 70 c 1,0,1
EndSplineSet
EndChar

StartChar: afii57451
Encoding: 1611 1611 311
AltUni2: 00fe70.ffffffff.0
Width: 24
VWidth: 1639
GlyphClass: 2
Flags: HW
AnchorPoint: "GposMark2BaseAnchorHamzaErabAbove_01_01" -241.5 1640 mark 0
AnchorPoint: "GposMark2BaseAnchorHamzaErabBelow_01_01" -241.5 1952 mark 0
AnchorPoint: "GposMark2BaseAnchorClassErabAbove_01_02" -241.5 1640 mark 0
AnchorPoint: "GposMark2MarkAnchorHamzaErabAbove_01_01" -241.5 1640 mark 0
AnchorPoint: "GposMark2MarkAnchorHamzaErabBelow_01_01" -241.5 1952 mark 0
AnchorPoint: "GposMark2MarkAnchorShaddaErabAbove_01_02" -241.5 1640 mark 0
AnchorPoint: "GposMark2MarkAnchorShaddaErabBelow_01_02" -241.5 1952 mark 0
LayerCount: 2
Fore
SplineSet
-510 1952 m 1,0,-1
 -77 1952 l 1,1,-1
 -56 1863 l 1,2,-1
 -24 1863 l 1,3,-1
 -6 1786 l 1,4,-1
 -38 1786 l 1,5,-1
 -22 1715 l 1,6,-1
 10 1715 l 1,7,-1
 27 1640 l 1,8,-1
 -363 1640 l 1,9,-1
 -373 1683 l 1,10,-1
 -448 1683 l 1,11,-1
 -476 1804 l 1,12,-1
 -401 1804 l 1,13,-1
 -407 1829 l 1,14,-1
 -481 1829 l 1,15,-1
 -510 1952 l 1,0,-1
-109 1906 m 1,16,-1
 -456 1906 l 1,17,-1
 -449 1875 l 1,18,-1
 -101 1875 l 1,19,-1
 -109 1906 l 1,16,-1
-75 1758 m 1,20,-1
 -422 1758 l 1,21,-1
 -416 1729 l 1,22,-1
 -68 1729 l 1,23,-1
 -75 1758 l 1,20,-1
EndSplineSet
EndChar

StartChar: afii57452
Encoding: 1612 1612 312
AltUni2: 00fe72.ffffffff.0
Width: 32
VWidth: 1639
GlyphClass: 2
Flags: HW
AnchorPoint: "GposMark2BaseAnchorHamzaErabAbove_01_01" -260.5 1640 mark 0
AnchorPoint: "GposMark2BaseAnchorHamzaErabBelow_01_01" -260.5 1986 mark 0
AnchorPoint: "GposMark2BaseAnchorClassErabAbove_01_02" -260.5 1640 mark 0
AnchorPoint: "GposMark2MarkAnchorHamzaErabAbove_01_01" -260.5 1640 mark 0
AnchorPoint: "GposMark2MarkAnchorHamzaErabBelow_01_01" -260.5 1986 mark 0
AnchorPoint: "GposMark2MarkAnchorShaddaErabAbove_01_02" -260.5 1640 mark 0
AnchorPoint: "GposMark2MarkAnchorShaddaErabBelow_01_02" -260.5 1986 mark 0
LayerCount: 2
Fore
SplineSet
-313 1815 m 1,0,1
 -328 1883 -328 1883 -324 1902 c 0,2,3
 -311 1959 -311 1959 -263 1981 c 0,4,5
 -257 1983 -257 1983 -253 1984 c 0,6,7
 -244 1986 -244 1986 -207 1986 c 1,8,9
 -164 1982 -164 1982 -145 1966 c 0,10,11
 -111 1938 -111 1938 -66 1853 c 0,12,13
 -65 1850 -65 1850 -64 1850 c 0,14,15
 -58 1838 -58 1838 -43 1816 c 0,16,17
 -24 1787 -24 1787 -18 1773 c 0,18,19
 -4 1741 -4 1741 19 1640 c 1,20,-1
 -409 1640 l 1,21,-1
 -419 1683 l 1,22,-1
 -494 1683 l 1,23,-1
 -525 1815 l 1,24,-1
 -445 1815 l 1,25,-1
 -456 1860 l 1,26,-1
 -520 1860 l 1,27,-1
 -540 1947 l 1,28,-1
 -390 1947 l 1,29,-1
 -370 1858 l 1,30,-1
 -338 1858 l 1,31,-1
 -328 1815 l 1,32,-1
 -313 1815 l 1,0,1
-76 1729 m 1,33,34
 -100 1830 -100 1830 -149 1891 c 0,35,36
 -182 1930 -182 1930 -202 1935 c 0,37,38
 -216 1937 -216 1937 -236 1914 c 0,39,40
 -278 1872 -278 1872 -271 1842 c 1,41,42
 -267 1833 -267 1833 -253 1815 c 1,43,-1
 -264 1815 l 1,44,-1
 -248 1793 l 1,45,-1
 -259 1793 l 1,46,-1
 -243 1770 l 1,47,-1
 -471 1770 l 1,48,-1
 -462 1729 l 1,49,-1
 -76 1729 l 1,33,34
-237 1891 m 1,50,51
 -170 1901 -170 1901 -129 1852 c 0,52,53
 -117 1836 -117 1836 -112 1797 c 1,54,55
 -107 1777 -107 1777 -109 1776 c 0,56,57
 -112 1774 -112 1774 -114 1773 c 0,58,59
 -163 1757 -163 1757 -208 1785 c 0,60,61
 -218 1792 -218 1792 -225 1799 c 0,62,63
 -236 1813 -236 1813 -246 1856 c 0,64,65
 -250 1875 -250 1875 -249 1878 c 0,66,67
 -247 1887 -247 1887 -237 1891 c 1,50,51
EndSplineSet
EndChar

StartChar: afii57453
Encoding: 1613 1613 313
AltUni2: 00fe74.ffffffff.0
Width: 22
VWidth: 1639
GlyphClass: 2
Flags: HW
AnchorPoint: "GposMark2BaseAnchorClassErabBelow_01_02" 37.5 -134 mark 0
LayerCount: 2
Fore
SplineSet
-231 -134 m 1,0,-1
 202 -134 l 1,1,-1
 223 -223 l 1,2,-1
 255 -223 l 1,3,-1
 272 -300 l 1,4,-1
 240 -300 l 1,5,-1
 257 -371 l 1,6,-1
 289 -371 l 1,7,-1
 306 -446 l 1,8,-1
 -84 -446 l 1,9,-1
 -94 -403 l 1,10,-1
 -169 -403 l 1,11,-1
 -197 -282 l 1,12,-1
 -122 -282 l 1,13,-1
 -128 -257 l 1,14,-1
 -203 -257 l 1,15,-1
 -231 -134 l 1,0,-1
170 -180 m 1,16,-1
 -178 -180 l 1,17,-1
 -171 -212 l 1,18,-1
 177 -212 l 1,19,-1
 170 -180 l 1,16,-1
204 -328 m 1,20,-1
 -144 -328 l 1,21,-1
 -137 -358 l 1,22,-1
 211 -358 l 1,23,-1
 204 -328 l 1,20,-1
EndSplineSet
EndChar

StartChar: afii57454
Encoding: 1614 1614 314
AltUni2: 00fe76.ffffffff.0
Width: 34
VWidth: 1639
GlyphClass: 2
Flags: HW
AnchorPoint: "GposMark2BaseAnchorHamzaErabAbove_01_01" -249.5 1640 mark 0
AnchorPoint: "GposMark2BaseAnchorHamzaErabBelow_01_01" -249.5 1804 mark 0
AnchorPoint: "GposMark2BaseAnchorClassErabAbove_01_02" -249.5 1640 mark 0
AnchorPoint: "GposMark2MarkAnchorHamzaErabAbove_01_01" -249.5 1640 mark 0
AnchorPoint: "GposMark2MarkAnchorHamzaErabBelow_01_01" -249.5 1804 mark 0
AnchorPoint: "GposMark2MarkAnchorShaddaErabAbove_01_02" -249.5 1640 mark 0
AnchorPoint: "GposMark2MarkAnchorShaddaErabBelow_01_02" -249.5 1804 mark 0
LayerCount: 2
Fore
SplineSet
-501 1804 m 1,0,-1
 -68 1804 l 1,1,-1
 -48 1715 l 1,2,-1
 -15 1715 l 1,3,-1
 2 1640 l 1,4,-1
 -389 1640 l 1,5,-1
 -398 1683 l 1,6,-1
 -473 1683 l 1,7,-1
 -501 1804 l 1,0,-1
-100 1758 m 1,8,-1
 -448 1758 l 1,9,-1
 -441 1729 l 1,10,-1
 -93 1729 l 1,11,-1
 -100 1758 l 1,8,-1
EndSplineSet
EndChar

StartChar: afii57455
Encoding: 1615 1615 315
AltUni2: 00fe78.ffffffff.0
Width: 0
VWidth: 1639
GlyphClass: 2
Flags: HW
AnchorPoint: "GposMark2BaseAnchorHamzaErabAbove_01_01" -303 1640 mark 0
AnchorPoint: "GposMark2BaseAnchorHamzaErabBelow_01_01" -303 1989 mark 0
AnchorPoint: "GposMark2BaseAnchorClassErabAbove_01_02" -303 1640 mark 0
AnchorPoint: "GposMark2MarkAnchorHamzaErabAbove_01_01" -303 1640 mark 0
AnchorPoint: "GposMark2MarkAnchorHamzaErabBelow_01_01" -303 1989 mark 0
AnchorPoint: "GposMark2MarkAnchorShaddaErabAbove_01_02" -303 1640 mark 0
AnchorPoint: "GposMark2MarkAnchorShaddaErabBelow_01_02" -303 1989 mark 0
LayerCount: 2
Fore
SplineSet
-380 1815 m 1,0,1
 -386 1829 -386 1829 -389 1853 c 1,2,3
 -395 1881 -395 1881 -395 1886 c 0,4,5
 -392 1941 -392 1941 -346 1973 c 0,6,7
 -334 1981 -334 1981 -323 1984 c 0,8,9
 -316 1986 -316 1986 -290 1986 c 1,10,11
 -251 1989 -251 1989 -232 1979 c 0,12,13
 -189 1955 -189 1955 -141 1864 c 0,14,15
 -135 1853 -135 1853 -133 1850 c 0,16,17
 -126 1836 -126 1836 -110 1811 c 0,18,19
 -91 1782 -91 1782 -84 1766 c 0,20,21
 -72 1737 -72 1737 -50 1640 c 1,22,-1
 -440 1640 l 1,23,-1
 -450 1683 l 1,24,-1
 -525 1683 l 1,25,-1
 -556 1815 l 1,26,-1
 -380 1815 l 1,0,1
-145 1729 m 1,27,28
 -168 1827 -168 1827 -215 1888 c 1,29,30
 -254 1933 -254 1933 -270 1935 c 0,31,32
 -273 1935 -273 1935 -274 1935 c 0,33,34
 -289 1934 -289 1934 -307 1914 c 0,35,36
 -321 1897 -321 1897 -325 1888 c 1,37,38
 -267 1907 -267 1907 -222 1865 c 0,39,40
 -209 1852 -209 1852 -201 1837 c 0,41,42
 -199 1834 -199 1834 -198 1827 c 0,43,44
 -197 1820 -197 1820 -196 1817 c 0,45,46
 -195 1814 -195 1814 -193 1807 c 0,47,48
 -186 1784 -186 1784 -189 1778 c 0,49,50
 -194 1771 -194 1771 -231 1771 c 0,51,52
 -292 1773 -292 1773 -316 1814 c 0,53,54
 -320 1823 -320 1823 -331 1875 c 1,55,56
 -349 1853 -349 1853 -322 1815 c 1,57,-1
 -333 1815 l 1,58,-1
 -317 1793 l 1,59,-1
 -328 1793 l 1,60,-1
 -312 1770 l 1,61,-1
 -502 1770 l 1,62,-1
 -493 1729 l 1,63,-1
 -145 1729 l 1,27,28
-331 1878 m 1,64,-1
 -332 1876 l 1,65,-1
 -331 1878 l 1,64,-1
EndSplineSet
EndChar

StartChar: afii57456
Encoding: 1616 1616 316
AltUni2: 00fe7a.ffffffff.0
Width: 32
VWidth: 1639
GlyphClass: 2
Flags: HW
AnchorPoint: "GposMark2BaseAnchorClassErabBelow_01_02" 26 -134 mark 0
LayerCount: 2
Fore
SplineSet
-226 -134 m 1,0,-1
 208 -134 l 1,1,-1
 228 -223 l 1,2,-1
 260 -223 l 1,3,-1
 278 -300 l 1,4,-1
 -113 -300 l 1,5,-1
 -122 -257 l 1,6,-1
 -197 -257 l 1,7,-1
 -226 -134 l 1,0,-1
175 -180 m 1,8,-1
 -172 -180 l 1,9,-1
 -165 -212 l 1,10,-1
 183 -212 l 1,11,-1
 175 -180 l 1,8,-1
EndSplineSet
EndChar

StartChar: afii57457
Encoding: 1617 1617 317
AltUni2: 00fe7c.ffffffff.0
Width: 148
VWidth: 1639
GlyphClass: 2
Flags: HW
AnchorPoint: "GposMark2BaseAnchorHamzaErabAbove_01_01" -200 1623 mark 0
AnchorPoint: "GposMark2BaseAnchorHamzaErabBelow_01_01" -200 1916 mark 0
AnchorPoint: "GposMark2BaseAnchorClassErabAbove_01_02" -200 1623 mark 0
AnchorPoint: "GposMark2MarkAnchorHamzaErabAbove_01_01" -200 1623 mark 0
AnchorPoint: "GposMark2MarkAnchorHamzaErabBelow_01_01" -200 1916 mark 0
AnchorPoint: "GposMark2MarkAnchorShaddaErabAbove_01_02" -200 2066 basemark 0
AnchorPoint: "GposMark2MarkAnchorShaddaErabBelow_01_02" -200 1473 basemark 0
LayerCount: 2
Fore
SplineSet
-157 1686 m 1,0,1
 -163 1666 -163 1666 -189 1653 c 0,2,3
 -259 1623 -259 1623 -317 1648 c 0,4,5
 -332 1654 -332 1654 -344 1666 c 0,6,7
 -357 1680 -357 1680 -359 1681 c 0,8,9
 -363 1683 -363 1683 -371 1683 c 0,10,11
 -377 1684 -377 1684 -379 1684 c 0,12,13
 -417 1692 -417 1692 -437 1719 c 1,14,15
 -449 1739 -449 1739 -459 1778 c 0,16,17
 -485 1897 -485 1897 -433 1916 c 0,18,19
 -429 1916 -429 1916 -399 1916 c 2,20,-1
 -329 1916 l 1,21,-1
 -339 1893 l 1,22,-1
 -323 1893 l 1,23,-1
 -333 1870 l 1,24,-1
 -318 1870 l 1,25,26
 -328 1847 -328 1847 -327 1843 c 0,27,28
 -323 1819 -323 1819 -299 1845 c 0,29,30
 -297 1847 -297 1847 -296 1848 c 0,31,32
 -273 1883 -273 1883 -278 1916 c 1,33,-1
 -164 1916 l 1,34,-1
 -171 1893 l 1,35,-1
 -159 1893 l 1,36,-1
 -166 1870 l 1,37,-1
 -153 1870 l 1,38,39
 -154 1868 -154 1868 -156 1862 c 0,40,41
 -160 1852 -160 1852 -159 1848 c 0,42,43
 -153 1832 -153 1832 -134 1858 c 0,44,45
 -119 1881 -119 1881 -117 1916 c 1,46,-1
 1 1916 l 1,47,-1
 20 1827 l 1,48,-1
 53 1827 l 1,49,50
 85 1681 85 1681 -5 1648 c 0,51,52
 -15 1646 -15 1646 -49 1647 c 0,53,54
 -126 1649 -126 1649 -155 1686 c 1,55,-1
 -157 1686 l 1,0,1
-214 1870 m 1,56,-1
 -225 1870 l 1,57,58
 -218 1822 -218 1822 -252 1793 c 0,59,60
 -261 1786 -261 1786 -269 1783 c 0,61,62
 -277 1781 -277 1781 -307 1781 c 0,63,64
 -346 1782 -346 1782 -356 1791 c 0,65,66
 -369 1802 -369 1802 -380 1856 c 0,67,68
 -382 1863 -382 1863 -383 1866 c 1,69,70
 -396 1856 -396 1856 -406 1842 c 1,71,72
 -414 1825 -414 1825 -416 1815 c 0,73,74
 -423 1762 -423 1762 -373 1738 c 0,75,76
 -365 1734 -365 1734 -358 1732 c 0,77,78
 -308 1719 -308 1719 -270 1749 c 0,79,80
 -256 1761 -256 1761 -252 1774 c 1,81,-1
 -250 1774 l 1,82,-1
 -238 1761 l 1,83,-1
 -237 1761 l 1,84,-1
 -231 1774 l 1,85,-1
 -229 1774 l 1,86,-1
 -217 1761 l 1,87,-1
 -215 1761 l 1,88,-1
 -209 1774 l 1,89,-1
 -208 1774 l 1,90,91
 -192 1753 -192 1753 -158 1743 c 0,92,93
 -76 1719 -76 1719 -42 1788 c 0,94,95
 -32 1805 -32 1805 -33 1866 c 0,96,97
 -33 1869 -33 1869 -33 1870 c 2,98,-1
 -63 1870 l 1,99,100
 -65 1814 -65 1814 -99 1794 c 0,101,102
 -101 1793 -101 1793 -102 1793 c 0,103,104
 -113 1789 -113 1789 -144 1789 c 0,105,106
 -182 1791 -182 1791 -194 1802 c 1,107,108
 -204 1816 -204 1816 -214 1870 c 1,56,-1
EndSplineSet
EndChar

StartChar: afii57458
Encoding: 1618 1618 318
AltUni2: 00fe7e.ffffffff.0
Width: -42
VWidth: 1639
GlyphClass: 2
Flags: HW
AnchorPoint: "GposMark2BaseAnchorHamzaErabAbove_01_01" -303.5 1635 mark 0
AnchorPoint: "GposMark2BaseAnchorHamzaErabBelow_01_01" -303.5 1982 mark 0
AnchorPoint: "GposMark2BaseAnchorClassErabAbove_01_02" -303.5 1635 mark 0
AnchorPoint: "GposMark2MarkAnchorHamzaErabAbove_01_01" -303.5 1635 mark 0
AnchorPoint: "GposMark2MarkAnchorHamzaErabBelow_01_01" -303.5 1982 mark 0
AnchorPoint: "GposMark2MarkAnchorShaddaErabAbove_01_02" -303.5 1635 mark 0
AnchorPoint: "GposMark2MarkAnchorShaddaErabBelow_01_02" -303.5 1982 mark 0
LayerCount: 2
Fore
SplineSet
-392 1975 m 1,0,1
 -346 1982 -346 1982 -318 1971 c 0,2,3
 -270 1953 -270 1953 -218 1858 c 0,4,5
 -215 1853 -215 1853 -211 1843 c 0,6,7
 -204 1829 -204 1829 -200 1824 c 0,8,9
 -122 1710 -122 1710 -153 1666 c 0,10,11
 -159 1658 -159 1658 -167 1653 c 0,12,13
 -178 1644 -178 1644 -194 1642 c 0,14,15
 -225 1635 -225 1635 -279 1666 c 0,16,17
 -297 1676 -297 1676 -306 1681 c 0,18,19
 -311 1684 -311 1684 -324 1687 c 0,20,21
 -336 1690 -336 1690 -340 1692 c 0,22,23
 -412 1728 -412 1728 -445 1783 c 0,24,25
 -485 1853 -485 1853 -455 1920 c 0,26,27
 -434 1965 -434 1965 -392 1975 c 1,0,1
-348 1924 m 1,28,29
 -356 1923 -356 1923 -371 1911 c 0,30,31
 -396 1891 -396 1891 -409 1858 c 0,32,33
 -415 1842 -415 1842 -414 1832 c 0,34,35
 -410 1819 -410 1819 -391 1799 c 0,36,37
 -354 1761 -354 1761 -314 1742 c 0,38,39
 -296 1733 -296 1733 -287 1732 c 0,40,41
 -276 1731 -276 1731 -262 1742 c 0,42,43
 -238 1761 -238 1761 -238 1783 c 1,44,45
 -241 1814 -241 1814 -295 1879 c 0,46,47
 -328 1922 -328 1922 -348 1924 c 1,28,29
-383 1883 m 1,48,49
 -317 1893 -317 1893 -276 1843 c 0,50,51
 -264 1827 -264 1827 -259 1789 c 1,52,53
 -254 1768 -254 1768 -255 1767 c 0,54,55
 -258 1764 -258 1764 -262 1763 c 0,56,57
 -334 1748 -334 1748 -372 1791 c 0,58,59
 -383 1805 -383 1805 -393 1848 c 0,60,61
 -397 1868 -397 1868 -397 1871 c 0,62,63
 -394 1879 -394 1879 -383 1883 c 1,48,49
EndSplineSet
EndChar

StartChar: uni0654
Encoding: 1620 1620 320
Width: -2
VWidth: 1639
GlyphClass: 2
Flags: HW
AnchorPoint: "GposMark2BaseAnchorClassErabAbove_01_02" -275 1620 mark 0
AnchorPoint: "GposMark2MarkAnchorHamzaErabAbove_01_01" -275 2214 basemark 0
AnchorPoint: "GposMark2MarkAnchorHamzaErabBelow_01_01" -275 1470 basemark 0
LayerCount: 2
Fore
SplineSet
-411 1837 m 1,0,1
 -412 1842 -412 1842 -430 1883 c 1,2,3
 -458 1964 -458 1964 -450 2002 c 0,4,5
 -436 2064 -436 2064 -309 2048 c 0,6,7
 -271 2044 -271 2044 -248 2022 c 0,8,9
 -232 2006 -232 2006 -218 1971 c 1,10,11
 -213 1951 -213 1951 -211 1948 c 0,12,13
 -207 1941 -207 1941 -195 1930 c 0,14,15
 -181 1916 -181 1916 -175 1907 c 0,16,17
 -163 1884 -163 1884 -159 1835 c 0,18,19
 -156 1819 -156 1819 -147 1788 c 0,20,21
 -141 1767 -141 1767 -139 1756 c 1,22,23
 -122 1759 -122 1759 -116 1756 c 0,24,25
 -105 1748 -105 1748 -101 1729 c 0,26,27
 -92 1683 -92 1683 -101 1670 c 0,28,29
 -145 1620 -145 1620 -278 1647 c 0,30,31
 -311 1654 -311 1654 -330 1666 c 0,32,33
 -345 1677 -345 1677 -345 1686 c 1,34,35
 -357 1686 -357 1686 -379 1692 c 0,36,37
 -418 1706 -418 1706 -428 1719 c 0,38,39
 -431 1723 -431 1723 -430 1729 c 0,40,41
 -431 1735 -431 1735 -432 1737 c 0,42,43
 -442 1766 -442 1766 -434 1832 c 0,44,45
 -433 1840 -433 1840 -432 1845 c 1,46,-1
 -411 1837 l 1,0,1
-384 1755 m 1,47,48
 -301 1711 -301 1711 -224 1740 c 1,49,50
 -181 1758 -181 1758 -189 1784 c 0,51,52
 -191 1788 -191 1788 -193 1791 c 0,53,54
 -198 1797 -198 1797 -224 1796 c 0,55,56
 -281 1796 -281 1796 -297 1815 c 0,57,58
 -302 1822 -302 1822 -305 1829 c 0,59,60
 -328 1893 -328 1893 -316 1914 c 1,61,62
 -305 1925 -305 1925 -276 1925 c 0,63,64
 -258 1926 -258 1926 -256 1927 c 0,65,66
 -253 1932 -253 1932 -259 1947 c 2,67,-1
 -260 1948 l 2,68,69
 -261 1950 -261 1950 -262 1954 c 0,70,71
 -264 1958 -264 1958 -265 1960 c 0,72,73
 -273 1970 -273 1970 -280 1976 c 0,74,75
 -321 2017 -321 2017 -367 1994 c 1,76,77
 -398 1976 -398 1976 -400 1942 c 1,78,79
 -400 1891 -400 1891 -326 1837 c 0,80,81
 -323 1835 -323 1835 -322 1834 c 2,82,-1
 -341 1830 l 1,83,-1
 -316 1811 l 1,84,-1
 -335 1807 l 1,85,-1
 -311 1788 l 1,86,-1
 -359 1784 l 1,87,-1
 -380 1783 l 1,88,-1
 -384 1755 l 1,47,48
EndSplineSet
EndChar

StartChar: uni0655
Encoding: 1621 1621 321
Width: -1
VWidth: 1639
GlyphClass: 2
Flags: HW
AnchorPoint: "GposMark2BaseAnchorClassErabBelow_01_02" 29.5 -120 mark 0
LayerCount: 2
Fore
SplineSet
-107 -348 m 1,0,1
 -108 -343 -108 -343 -126 -302 c 1,2,3
 -154 -221 -154 -221 -146 -182 c 0,4,5
 -132 -120 -132 -120 -4 -136 c 0,6,7
 34 -140 34 -140 57 -162 c 0,8,9
 73 -178 73 -178 87 -213 c 1,10,11
 92 -233 92 -233 93 -236 c 0,12,13
 97 -243 97 -243 110 -255 c 0,14,15
 124 -269 124 -269 129 -277 c 0,16,17
 141 -300 141 -300 145 -349 c 0,18,19
 148 -365 148 -365 157 -397 c 0,20,21
 163 -418 163 -418 165 -428 c 1,22,23
 182 -425 182 -425 188 -428 c 0,24,25
 199 -436 199 -436 204 -456 c 0,26,27
 213 -502 213 -502 204 -515 c 0,28,29
 160 -565 160 -565 26 -538 c 0,30,31
 -7 -531 -7 -531 -26 -518 c 0,32,33
 -41 -507 -41 -507 -41 -499 c 1,34,35
 -53 -499 -53 -499 -75 -492 c 0,36,37
 -114 -478 -114 -478 -124 -466 c 0,38,39
 -127 -462 -127 -462 -126 -456 c 0,40,41
 -127 -450 -127 -450 -128 -448 c 0,42,43
 -138 -419 -138 -419 -130 -353 c 0,44,45
 -129 -345 -129 -345 -128 -339 c 1,46,-1
 -107 -348 l 1,0,1
-80 -430 m 1,47,48
 3 -474 3 -474 80 -444 c 1,49,50
 123 -426 123 -426 115 -401 c 0,51,52
 113 -397 113 -397 111 -394 c 0,53,54
 106 -388 106 -388 80 -389 c 0,55,56
 23 -389 23 -389 7 -369 c 0,57,58
 2 -362 2 -362 -1 -356 c 0,59,60
 -24 -292 -24 -292 -12 -271 c 1,61,62
 -1 -260 -1 -260 29 -259 c 0,63,64
 47 -258 47 -258 48 -257 c 0,65,66
 51 -252 51 -252 45 -238 c 2,67,-1
 45 -236 l 2,68,69
 44 -234 44 -234 42 -230 c 0,70,71
 40 -226 40 -226 39 -225 c 0,72,73
 31 -215 31 -215 24 -208 c 0,74,75
 -17 -167 -17 -167 -63 -190 c 1,76,77
 -94 -208 -94 -208 -96 -243 c 1,78,79
 -96 -294 -96 -294 -22 -348 c 0,80,81
 -19 -350 -19 -350 -17 -351 c 2,82,-1
 -36 -354 l 1,83,-1
 -12 -374 l 1,84,-1
 -31 -377 l 1,85,-1
 -7 -397 l 1,86,-1
 -55 -400 l 1,87,-1
 -76 -402 l 1,88,-1
 -80 -430 l 1,47,48
EndSplineSet
EndChar

StartChar: uni0656
Encoding: 1622 1622 322
Width: 106
VWidth: 1639
GlyphClass: 2
Flags: HW
AnchorPoint: "GposMark2BaseAnchorClassErabBelow_01_02" 71.5 -134 mark 0
LayerCount: 2
Fore
SplineSet
63 -615 m 1,0,1
 54 -598 54 -598 31 -508 c 0,2,3
 30 -506 30 -506 30 -503 c 0,4,5
 -11 -365 -11 -365 -30 -297 c 0,6,7
 -45 -244 -45 -244 -52 -216 c 0,8,9
 -58 -187 -58 -187 -57 -180 c 0,10,11
 -56 -165 -56 -165 -33 -159 c 2,12,-1
 -32 -159 l 2,13,14
 -26 -157 -26 -157 -13 -150 c 0,15,16
 8 -140 8 -140 18 -138 c 0,17,18
 21 -138 21 -138 27 -139 c 0,19,20
 33 -140 33 -140 36 -139 c 0,21,22
 65 -134 65 -134 76 -141 c 1,23,24
 82 -146 82 -146 88 -164 c 0,25,26
 109 -211 109 -211 115 -226 c 1,27,28
 127 -228 127 -228 132 -235 c 1,29,30
 137 -243 137 -243 164 -305 c 0,31,32
 175 -333 175 -333 175 -335 c 0,33,34
 175 -341 175 -341 162 -351 c 1,35,36
 155 -359 155 -359 155 -366 c 0,37,38
 156 -376 156 -376 163 -396 c 0,39,40
 167 -410 167 -410 168 -417 c 0,41,42
 188 -506 188 -506 194 -548 c 0,43,44
 201 -599 201 -599 198 -607 c 0,45,46
 193 -617 193 -617 172 -636 c 1,47,48
 154 -655 154 -655 148 -658 c 1,49,-1
 129 -595 l 1,50,-1
 106 -615 l 1,51,-1
 101 -602 l 1,52,-1
 84 -615 l 1,53,-1
 80 -602 l 1,54,-1
 63 -615 l 1,0,1
50 -194 m 1,55,56
 1 -211 1 -211 -3 -223 c 0,57,58
 -4 -229 -4 -229 1 -249 c 0,59,60
 12 -286 12 -286 17 -305 c 0,61,62
 28 -348 28 -348 55 -435 c 0,63,64
 76 -505 76 -505 85 -538 c 1,65,66
 117 -514 117 -514 91 -412 c 0,67,68
 86 -393 86 -393 85 -389 c 0,69,70
 84 -383 84 -383 82 -371 c 0,71,72
 79 -352 79 -352 76 -343 c 0,73,74
 58 -281 58 -281 60 -271 c 0,75,76
 62 -266 62 -266 76 -254 c 1,77,-1
 50 -194 l 1,55,56
EndSplineSet
EndChar

StartChar: uni0670
Encoding: 1648 1648 326
Width: 106
VWidth: 1639
GlyphClass: 2
Flags: HW
AnchorPoint: "GposMark2BaseAnchorHamzaErabAbove_01_01" -307 1640 mark 0
AnchorPoint: "GposMark2BaseAnchorHamzaErabBelow_01_01" -307 2163 mark 0
AnchorPoint: "GposMark2BaseAnchorClassErabAbove_01_02" -307 1640 mark 0
AnchorPoint: "GposMark2MarkAnchorHamzaErabAbove_01_01" -307 1640 mark 0
AnchorPoint: "GposMark2MarkAnchorHamzaErabBelow_01_01" -307 2163 mark 0
AnchorPoint: "GposMark2MarkAnchorShaddaErabAbove_01_02" -307 1640 mark 0
AnchorPoint: "GposMark2MarkAnchorShaddaErabBelow_01_02" -307 2163 mark 0
LayerCount: 2
Fore
SplineSet
-316 1683 m 1,0,1
 -325 1700 -325 1700 -348 1789 c 0,2,3
 -349 1791 -349 1791 -349 1794 c 0,4,5
 -390 1932 -390 1932 -409 2001 c 0,6,7
 -424 2054 -424 2054 -430 2081 c 0,8,9
 -436 2110 -436 2110 -436 2117 c 0,10,11
 -435 2132 -435 2132 -411 2138 c 2,12,-1
 -410 2139 l 2,13,14
 -404 2141 -404 2141 -392 2147 c 0,15,16
 -371 2157 -371 2157 -360 2160 c 0,17,18
 -357 2160 -357 2160 -351.5 2159 c 128,-1,19
 -346 2158 -346 2158 -343 2158 c 0,20,21
 -314 2163 -314 2163 -303 2157 c 1,22,23
 -297 2152 -297 2152 -290 2134 c 0,24,25
 -269 2087 -269 2087 -263 2071 c 1,26,27
 -251 2069 -251 2069 -246 2063 c 1,28,29
 -241 2055 -241 2055 -215 1993 c 0,30,31
 -204 1965 -204 1965 -203 1963 c 0,32,33
 -203 1957 -203 1957 -217 1947 c 1,34,35
 -224 1939 -224 1939 -224 1932 c 0,36,37
 -223 1922 -223 1922 -216 1901 c 0,38,39
 -212 1887 -212 1887 -210 1881 c 0,40,41
 -190 1792 -190 1792 -185 1750 c 0,42,43
 -178 1699 -178 1699 -180 1691 c 0,44,45
 -185 1681 -185 1681 -207 1661 c 1,46,47
 -225 1642 -225 1642 -231 1640 c 1,48,-1
 -250 1702 l 1,49,-1
 -273 1683 l 1,50,-1
 -277 1696 l 1,51,-1
 -294 1683 l 1,52,-1
 -299 1696 l 1,53,-1
 -316 1683 l 1,0,1
-329 2104 m 1,54,55
 -378 2087 -378 2087 -382 2075 c 0,56,57
 -383 2069 -383 2069 -377 2048 c 0,58,59
 -366 2011 -366 2011 -361 1993 c 0,60,61
 -350 1950 -350 1950 -324 1863 c 0,62,63
 -303 1793 -303 1793 -294 1760 c 1,64,65
 -262 1784 -262 1784 -287 1885 c 0,66,67
 -292 1904 -292 1904 -293 1909 c 0,68,69
 -294 1915 -294 1915 -296 1927 c 0,70,71
 -299 1946 -299 1946 -302 1955 c 0,72,73
 -320 2017 -320 2017 -319 2027 c 0,74,75
 -317 2032 -317 2032 -303 2043 c 1,76,-1
 -329 2104 l 1,54,55
EndSplineSet
EndChar

StartChar: uni0674
Encoding: 1652 1652 327
Width: 107
GlyphClass: 2
Flags: HW
AnchorPoint: "GposMark2BaseAnchorClassErabAbove_01_02" 51 1014 mark 0
AnchorPoint: "GposMark2MarkAnchorHamzaErabAbove_01_01" 51 1579 basemark 0
AnchorPoint: "GposMark2MarkAnchorHamzaErabBelow_01_01" 51 864 basemark 0
LayerCount: 2
Fore
SplineSet
220 1178 m 2,0,1
 220 1160 220 1160 217 1145 c 128,-1,2
 214 1130 214 1130 209 1129 c 0,3,4
 167 1118 167 1118 132 1109 c 128,-1,5
 97 1100 97 1100 81 1095 c 0,6,7
 41 1082 41 1082 6 1062 c 128,-1,8
 -29 1042 -29 1042 -56 1018 c 1,9,10
 -59 1014 -59 1014 -63 1014 c 0,11,12
 -66 1014 -66 1014 -71.5 1018 c 128,-1,13
 -77 1022 -77 1022 -77 1025 c 256,14,15
 -78 1028 -78 1028 -74 1032 c 1,16,-1
 -74 1031 l 1,17,18
 -68 1051 -68 1051 -50 1076 c 128,-1,19
 -32 1101 -32 1101 -3 1136 c 1,20,21
 -93 1171 -93 1171 -107 1233 c 0,22,23
 -118 1282 -118 1282 -66 1355 c 1,24,25
 -11 1429 -11 1429 48 1429 c 0,26,27
 58 1429 58 1429 70.5 1425.5 c 128,-1,28
 83 1422 83 1422 94 1415.5 c 128,-1,29
 105 1409 105 1409 113 1400.5 c 128,-1,30
 121 1392 121 1392 123 1382 c 0,31,32
 126 1368 126 1368 126 1353.5 c 128,-1,33
 126 1339 126 1339 123.5 1327 c 128,-1,34
 121 1315 121 1315 115.5 1307.5 c 128,-1,35
 110 1300 110 1300 103 1300 c 0,36,37
 99 1300 99 1300 90.5 1307.5 c 128,-1,38
 82 1315 82 1315 70.5 1323.5 c 128,-1,39
 59 1332 59 1332 45.5 1339.5 c 128,-1,40
 32 1347 32 1347 19 1347 c 256,41,42
 6 1347 6 1347 -7 1339.5 c 128,-1,43
 -20 1332 -20 1332 -30.5 1321.5 c 128,-1,44
 -41 1311 -41 1311 -46.5 1299 c 128,-1,45
 -52 1287 -52 1287 -50 1277 c 0,46,47
 -46 1259 -46 1259 -31.5 1244 c 128,-1,48
 -17 1229 -17 1229 3 1218 c 128,-1,49
 23 1207 23 1207 46.5 1201 c 128,-1,50
 70 1195 70 1195 93 1195 c 0,51,52
 96 1195 96 1195 114 1200 c 128,-1,53
 132 1205 132 1205 154 1210.5 c 128,-1,54
 176 1216 176 1216 195.5 1221 c 128,-1,55
 215 1226 215 1226 219 1226 c 1,56,-1
 220 1178 l 2,0,1
EndSplineSet
EndChar

StartChar: afii57388
Encoding: 1548 1548 329
Width: 586
VWidth: 1639
GlyphClass: 2
Flags: W
LayerCount: 2
Fore
SplineSet
326 133 m 1,0,1
 330 126 330 126 335 110 c 0,2,3
 341 91 341 91 345 84 c 0,4,5
 346 82 346 82 370 56 c 0,6,7
 373 53 373 53 374 51 c 0,8,9
 411 -6 411 -6 394 -62 c 0,10,11
 374 -122 374 -122 304 -120 c 0,12,13
 283 -119 283 -119 262 -112 c 0,14,15
 255 -109 255 -109 221 -84 c 0,16,17
 214 -80 214 -80 210 -77 c 0,18,19
 205 -75 205 -75 193 -72 c 0,20,21
 181 -69 181 -69 176 -67 c 0,22,23
 125 -44 125 -44 98 5 c 0,24,25
 89 25 89 25 81 59 c 0,26,27
 69 111 69 111 70 126 c 0,28,29
 75 189 75 189 144 249 c 1,30,31
 187 283 187 283 229 279 c 0,32,33
 231 279 231 279 235 280 c 0,34,35
 242 281 242 281 245 280 c 0,36,37
 247 278 247 278 250.5 277 c 128,-1,38
 254 276 254 276 256 274 c 128,-1,39
 258 272 258 272 261 269 c 128,-1,40
 264 266 264 266 265 265 c 128,-1,41
 266 264 266 264 270 260 c 2,42,-1
 274 256 l 2,43,44
 292 239 292 239 296 233 c 1,45,-1
 285 228 l 1,46,-1
 301 210 l 1,47,-1
 290 205 l 1,48,-1
 324 169 l 1,49,-1
 348 144 l 1,50,-1
 326 133 l 1,0,1
230 218 m 1,51,52
 228 220 228 220 225.5 220.5 c 128,-1,53
 223 221 223 221 221 220.5 c 128,-1,54
 219 220 219 220 216.5 219 c 128,-1,55
 214 218 214 218 210.5 215.5 c 128,-1,56
 207 213 207 213 204.5 210.5 c 128,-1,57
 202 208 202 208 199 205 c 128,-1,58
 196 202 196 202 194 200 c 128,-1,59
 192 198 192 198 190 196 c 2,60,-1
 187 194 l 1,61,62
 113 126 113 126 125 66 c 0,63,64
 129 43 129 43 155 15 c 0,65,66
 174 -4 174 -4 196 -16 c 1,67,68
 228 -29 228 -29 236 -30 c 0,69,70
 277 -28 277 -28 298 21 c 0,71,72
 308 46 308 46 303 67 c 1,73,74
 293 97 293 97 260 125 c 1,75,76
 238 140 238 140 223 144 c 1,77,-1
 231 162 l 1,78,-1
 218 167 l 1,79,-1
 226 185 l 1,80,-1
 212 190 l 1,81,-1
 230 218 l 1,51,52
EndSplineSet
EndChar

StartChar: afii57403
Encoding: 1563 1563 334
Width: 623
VWidth: 1639
GlyphClass: 2
Flags: W
LayerCount: 2
Fore
SplineSet
151 223 m 1,0,1
 140 233 140 233 97 249 c 0,2,3
 81 256 81 256 71 262 c 0,4,5
 26 298 26 298 7 380 c 0,6,7
 -2 423 -2 423 -1 443 c 0,8,9
 7 503 7 503 76 564 c 0,10,11
 110 593 110 593 135 590 c 0,12,13
 140 590 140 590 149 592 c 0,14,15
 165 594 165 594 171 592 c 0,16,17
 189 587 189 587 217 555 c 0,18,19
 222 549 222 549 224 544 c 1,20,-1
 213 540 l 1,21,-1
 229 522 l 1,22,-1
 218 517 l 1,23,-1
 252 481 l 1,24,-1
 276 456 l 1,25,-1
 254 444 l 1,26,27
 258 437 258 437 263 422 c 0,28,29
 269 403 269 403 273 395 c 0,30,31
 275 391 275 391 301 363 c 0,32,33
 307 356 307 356 310 351 c 0,34,35
 343 293 343 293 319 240 c 0,36,37
 309 220 309 220 293 210 c 1,38,-1
 294 207 l 1,39,40
 339 184 339 184 368 130 c 1,41,-1
 381 95 l 1,42,43
 387 85 387 85 400 68 c 0,44,45
 421 40 421 40 428 25 c 0,46,47
 455 -55 455 -55 409 -103 c 0,48,49
 382 -129 382 -129 342 -131 c 1,50,51
 300 -130 300 -130 266 -110 c 0,52,53
 261 -107 261 -107 253 -100 c 0,54,55
 241 -91 241 -91 236 -89 c 0,56,57
 230 -85 230 -85 216 -82 c 0,58,59
 205 -79 205 -79 201 -77 c 0,60,61
 159 -59 159 -59 126 -16 c 1,62,63
 106 13 106 13 94 64 c 0,64,65
 84 108 84 108 84 120 c 0,66,67
 81 194 81 194 151 223 c 1,0,1
158 530 m 1,68,69
 156 532 156 532 154 532.5 c 128,-1,70
 152 533 152 533 149.5 532 c 128,-1,71
 147 531 147 531 144.5 530.5 c 128,-1,72
 142 530 142 530 138.5 527.5 c 128,-1,73
 135 525 135 525 132.5 522.5 c 128,-1,74
 130 520 130 520 127 516.5 c 128,-1,75
 124 513 124 513 122 511.5 c 128,-1,76
 120 510 120 510 118 508 c 2,77,-1
 115 505 l 1,78,79
 41 437 41 437 53 377 c 0,80,81
 57 354 57 354 83 326 c 0,82,83
 102 307 102 307 124 295 c 1,84,85
 156 282 156 282 164 282 c 0,86,87
 205 284 205 284 226 332 c 0,88,89
 236 357 236 357 231 379 c 1,90,91
 221 409 221 409 188 436 c 1,92,93
 166 451 166 451 151 456 c 1,94,-1
 159 474 l 1,95,-1
 146 479 l 1,96,-1
 154 497 l 1,97,-1
 140 502 l 1,98,-1
 158 530 l 1,68,69
212 179 m 0,99,100
 164 174 164 174 142 120 c 0,101,102
 132 93 132 93 137 69 c 0,103,104
 148 22 148 22 204 -17 c 0,105,106
 239 -40 239 -40 265 -39 c 0,107,108
 311 -37 311 -37 335 14 c 0,109,110
 347 42 347 42 341 69 c 0,111,112
 329 121 329 121 264 160 c 0,113,114
 257 164 257 164 251 167 c 0,115,116
 224 179 224 179 212 179 c 0,99,100
EndSplineSet
EndChar

StartChar: afii57407
Encoding: 1567 1567 335
Width: 1119
VWidth: 1639
GlyphClass: 2
Flags: W
LayerCount: 2
Fore
SplineSet
279 438 m 1,0,1
 284 441 284 441 311 438 c 1,2,3
 349 443 349 443 359 476 c 0,4,5
 362 488 362 488 359 499 c 0,6,7
 353 524 353 524 301 560 c 0,8,9
 267 585 267 585 148 649 c 0,10,11
 118 665 118 665 97 677 c 0,12,13
 12 727 12 727 -41 792 c 0,14,15
 -107 876 -107 876 -136 1000 c 0,16,17
 -165 1130 -165 1130 -133 1209 c 0,18,19
 -63 1369 -63 1369 148 1384 c 0,20,21
 239 1390 239 1390 334 1366 c 0,22,23
 478 1330 478 1330 569 1240 c 1,24,25
 600 1205 600 1205 618 1176 c 0,26,27
 621 1170 621 1170 626 1157 c 0,28,29
 632 1144 632 1144 634 1138 c 0,30,31
 637 1134 637 1134 660 1104 c 1,32,33
 680 1071 680 1071 692 1032 c 0,34,35
 717 938 717 938 652 870 c 0,36,37
 632 850 632 850 607 838 c 1,38,39
 553 817 553 817 539 842 c 0,40,41
 536 850 536 850 536 858 c 0,42,43
 537 868 537 868 538 872 c 1,44,-1
 471 872 l 1,45,46
 485 860 485 860 514 838 c 0,47,48
 569 795 569 795 593 769 c 0,49,50
 613 746 613 746 663 661 c 0,51,52
 665 657 665 657 666 656 c 0,53,54
 671 647 671 647 683 629 c 0,55,56
 709 589 709 589 717 567 c 0,57,58
 768 440 768 440 706 342 c 0,59,60
 696 327 696 327 685 315 c 0,61,62
 636 261 636 261 598 253 c 1,63,64
 645 211 645 211 666 175 c 0,65,66
 669 169 669 169 674 156 c 0,67,68
 682 138 682 138 687 131 c 0,69,70
 734 58 734 58 742 30 c 0,71,72
 744 22 744 22 746 13 c 0,73,74
 765 -86 765 -86 695 -136 c 0,75,76
 646 -169 646 -169 581 -157 c 0,77,78
 552 -151 552 -151 492 -115 c 0,79,80
 482 -110 482 -110 461 -101 c 0,81,82
 426 -86 426 -86 409 -74 c 0,83,84
 340 -20 340 -20 316 87 c 1,85,86
 294 187 294 187 329 239 c 1,87,88
 360 282 360 282 397 287 c 1,89,-1
 397 289 l 1,90,91
 329 316 329 316 284 354 c 0,92,93
 257 377 257 377 246 395 c 1,94,-1
 262 394 l 1,95,-1
 241 418 l 1,96,-1
 256 417 l 1,97,-1
 235 441 l 1,98,-1
 257 438 l 1,99,100
 260 443 260 443 278 438 c 2,101,-1
 279 438 l 1,0,1
498 922 m 1,102,103
 571 946 571 946 598 1028 c 1,104,105
 607 1065 607 1065 602 1092 c 1,106,107
 579 1168 579 1168 484 1238 c 1,108,109
 326 1350 326 1350 161 1333 c 0,110,111
 94 1326 94 1326 41 1296 c 0,112,113
 -62 1239 -62 1239 -91 1126 c 0,114,115
 -106 1066 -106 1066 -93 1005 c 0,116,117
 -79 939 -79 939 -26 861 c 1,118,119
 11 810 11 810 59 771 c 0,120,121
 109 729 109 729 227 667 c 0,122,123
 242 659 242 659 248 656 c 0,124,125
 328 614 328 614 359 587 c 1,126,127
 393 550 393 550 408 487 c 0,128,129
 419 436 419 436 403 413 c 1,130,131
 384 390 384 390 329 390 c 1,132,133
 369 345 369 345 438 332 c 0,134,135
 451 330 451 330 461 330 c 0,136,137
 479 331 479 331 515 344 c 0,138,139
 610 387 610 387 637 491 c 0,140,141
 648 537 648 537 642 584 c 1,142,143
 633 634 633 634 573 708 c 1,144,145
 528 762 528 762 408 852 c 0,146,147
 368 882 368 882 348 899 c 0,148,149
 274 959 274 959 251 1009 c 0,150,151
 242 1029 242 1029 237 1063 c 1,152,153
 230 1094 230 1094 230 1099 c 0,154,155
 233 1175 233 1175 336 1176 c 0,156,157
 379 1175 379 1175 400 1166 c 1,158,159
 430 1151 430 1151 455 1128 c 0,160,161
 488 1095 488 1095 504 1027 c 0,162,163
 512 992 512 992 512 986 c 0,164,165
 512 980 512 980 499 928 c 0,166,167
 498 924 498 924 498 922 c 1,102,103
453 887 m 1,168,169
 441 943 441 943 441 951 c 0,170,171
 442 959 442 959 449 977 c 0,172,173
 462 1015 462 1015 457 1032 c 0,174,175
 454 1041 454 1041 446 1053 c 0,176,177
 432 1076 432 1076 419 1086 c 1,178,179
 409 1090 409 1090 384 1086 c 1,180,181
 341 1075 341 1075 327 1034 c 0,182,183
 321 1013 321 1013 327 994 c 0,184,185
 331 984 331 984 354 964 c 0,186,187
 409 913 409 913 453 887 c 1,168,169
470 244 m 0,188,189
 405 245 405 245 371 178 c 0,190,191
 349 132 349 132 360 85 c 0,192,193
 378 14 378 14 455 -38 c 0,194,195
 502 -69 502 -69 541 -71 c 0,196,197
 605 -72 605 -72 640 -4 c 0,198,199
 662 42 662 42 653 87 c 0,200,201
 637 156 637 156 561 210 c 0,202,203
 511 243 511 243 470 244 c 0,188,189
EndSplineSet
EndChar

StartChar: afii57409
Encoding: 1569 1569 336
AltUni2: 00fe80.ffffffff.0
Width: 875
VWidth: 1639
GlyphClass: 2
Flags: HW
AnchorPoint: "GposMark2BaseAnchorHamzaErabAbove_01_01" 330 995 basechar 0
AnchorPoint: "GposMark2BaseAnchorHamzaErabBelow_01_01" 330 -219 basechar 0
LayerCount: 2
Fore
SplineSet
116 297 m 1,0,1
 72 340 72 340 55 364 c 0,2,3
 -11 451 -11 451 -40 579 c 0,4,5
 -59 665 -59 665 -49 713 c 0,6,7
 -18 844 -18 844 185 845 c 0,8,9
 302 844 302 844 373 789 c 0,10,11
 414 757 414 757 460 676 c 0,12,13
 468 662 468 662 473 654 c 0,14,15
 477 648 477 648 486 636 c 0,16,17
 495 623 495 623 498 617 c 0,18,19
 527 569 527 569 539 520 c 0,20,21
 554 453 554 453 550 439 c 0,22,23
 548 435 548 435 547 433 c 0,24,25
 538 424 538 424 494 440 c 1,26,27
 430 456 430 456 393 404 c 0,28,29
 388 397 388 397 386 392 c 0,30,31
 374 357 374 357 382 341 c 1,32,33
 394 327 394 327 435 318 c 0,34,35
 460 312 460 312 524 327 c 0,36,37
 563 335 563 335 590 328 c 0,38,39
 622 318 622 318 641 264 c 1,40,41
 646 244 646 244 648 241 c 0,42,43
 652 235 652 235 663 225 c 0,44,45
 676 213 676 213 680 207 c 0,46,47
 691 186 691 186 700 148 c 0,48,49
 719 60 719 60 700 23 c 1,50,51
 668 -29 668 -29 568 -52 c 0,52,53
 489 -69 489 -69 381 -64 c 0,54,55
 214 -57 214 -57 122 -5 c 0,56,57
 108 3 108 3 79 17 c 0,58,59
 36 38 36 38 16 51 c 0,60,61
 -10 68 -10 68 -18 79 c 0,62,63
 -19 82 -19 82 -19 87 c 0,64,65
 -19 93 -19 93 -19 95 c 0,66,67
 -29 121 -29 121 -30 130 c 0,68,69
 -31 140 -31 140 -26 166 c 0,70,71
 -6 303 l 0,72,73
 -5 315 -5 315 -5 325 c 1,74,-1
 17 317 l 1,75,-1
 17 325 l 1,76,-1
 39 317 l 1,77,-1
 38 325 l 1,78,-1
 116 297 l 1,0,1
454 525 m 1,79,80
 464 618 464 618 374 710 c 0,81,82
 322 762 322 762 266 784 c 0,83,84
 160 822 160 822 73 764 c 0,85,86
 -15 706 -15 706 -0 598 c 0,87,88
 2 584 2 584 5 572 c 0,89,90
 25 500 25 500 67 438 c 0,91,92
 108 377 108 377 211 294 c 2,93,-1
 213 292 l 1,94,-1
 194 289 l 1,95,-1
 219 269 l 1,96,-1
 200 266 l 1,97,-1
 224 246 l 1,98,99
 167 234 167 234 99 248 c 0,100,101
 90 250 90 250 73 254 c 0,102,103
 55 259 55 259 47 261 c 1,104,105
 44 243 44 243 40 206 c 0,106,107
 35 169 35 169 33 151 c 0,108,109
 26 120 26 120 29 112 c 0,110,111
 38 100 38 100 67 85 c 1,112,113
 119 55 119 55 188 41 c 0,114,115
 390 -1 390 -1 525 52 c 1,116,117
 616 91 616 91 616 161 c 1,118,119
 611 255 611 255 571 276 c 0,120,121
 564 279 564 279 550 274 c 0,122,123
 527 268 527 268 512 267 c 0,124,125
 391 260 391 260 343 298 c 0,126,127
 323 315 323 315 311 338 c 1,128,129
 301 361 301 361 297 380 c 0,130,131
 283 441 283 441 285 458 c 0,132,133
 295 548 295 548 454 525 c 1,79,80
118 297 m 1,134,-1
 117 295 l 1,135,-1
 118 297 l 1,134,-1
EndSplineSet
EndChar

StartChar: afii57410
Encoding: 1570 1570 337
AltUni2: 00fe81.ffffffff.0
Width: 320
VWidth: 1639
GlyphClass: 2
Flags: W
LayerCount: 2
Fore
SplineSet
-523 1602 m 1,0,-1
 -545 1699 l 2,1,2
 -551 1730 -551 1730 -550 1733 c 0,3,4
 -546 1740 -546 1740 -532 1747 c 0,5,6
 -506 1761 -506 1761 -466 1766 c 0,7,8
 -391 1779 -391 1779 -311 1761 c 0,9,10
 -294 1757 -294 1757 -259 1746 c 0,11,12
 -197 1726 -197 1726 -168 1724 c 0,13,14
 -140 1722 -140 1722 -80 1749 c 0,15,16
 -64 1756 -64 1756 -54 1760 c 1,17,-1
 -52 1750 l 1,18,-1
 -33 1760 l 1,19,-1
 -31 1750 l 1,20,-1
 -12 1760 l 1,21,-1
 12 1656 l 1,22,-1
 41 1671 l 1,23,-1
 54 1614 l 2,24,25
 59 1591 59 1591 59 1588 c 0,26,27
 57 1580 57 1580 38 1571 c 0,28,29
 -3 1552 -3 1552 -43 1551 c 1,30,31
 -35 1541 -35 1541 -12 1493 c 0,32,33
 -7 1482 -7 1482 -2 1474 c 0,34,35
 1 1469 1 1469 10 1460 c 0,36,37
 21 1449 21 1449 25 1443 c 0,38,39
 26 1440 26 1440 56 1368 c 0,40,41
 79 1314 79 1314 121 1210 c 0,42,43
 127 1196 127 1196 139 1168 c 0,44,45
 151 1139 151 1139 156 1125 c 0,46,47
 170 1091 170 1091 171 1081 c 0,48,49
 171 1066 171 1066 152 1049 c 2,50,-1
 150 1048 l 2,51,52
 114 1020 114 1020 109 1007 c 0,53,54
 105 994 105 994 107 981 c 0,55,56
 125 895 125 895 166 723 c 0,57,58
 217 507 217 507 237 400 c 0,59,60
 269 235 269 235 271 202 c 0,61,62
 273 168 273 168 272 141 c 0,63,64
 271 114 271 114 238 78 c 0,65,66
 234 73 234 73 232 71 c 0,67,68
 225 63 225 63 155 -20 c 0,69,70
 129 -50 129 -50 125 -54 c 0,71,72
 117 -63 117 -63 110 -62 c 1,73,74
 103 -59 103 -59 101 -48 c 0,75,76
 97 -32 97 -32 88 -7 c 1,77,78
 72 -26 72 -26 61 -13 c 1,79,80
 48 -22 48 -22 39 -13 c 1,81,82
 29 -23 29 -23 22 -18 c 1,83,84
 18 -13 18 -13 15 -1 c 0,85,86
 15 1 15 1 14 3 c 0,87,88
 13 6 13 6 -4 64 c 0,89,90
 -21 117 -21 117 -50 224 c 0,91,92
 -72 304 -72 304 -84 343 c 0,93,94
 -122 471 -122 471 -193 727 c 0,95,96
 -264 983 -264 983 -302 1110 c 0,97,98
 -350 1271 -350 1271 -361 1317 c 0,99,100
 -378 1392 -378 1392 -369 1420 c 0,101,102
 -359 1450 -359 1450 -307 1475 c 0,103,104
 -304 1477 -304 1477 -302 1478 c 2,105,-1
 -193 1528 l 1,106,107
 -143 1553 -143 1553 -132 1556 c 1,108,-1
 -133 1558 l 1,109,110
 -150 1560 -150 1560 -233 1585 c 0,111,112
 -267 1595 -267 1595 -290 1597 c 0,113,114
 -340 1600 -340 1600 -403 1578 c 0,115,116
 -409 1576 -409 1576 -420 1569 c 0,117,118
 -432 1562 -432 1562 -438 1560 c 1,119,-1
 -451 1617 l 1,120,-1
 -480 1602 l 1,121,-1
 -482 1612 l 1,122,-1
 -501 1602 l 1,123,-1
 -504 1612 l 1,124,-1
 -523 1602 l 1,0,-1
-39 1694 m 1,125,126
 -48 1693 -48 1693 -65 1687 c 0,127,128
 -78 1682 -78 1682 -85 1681 c 0,129,130
 -152 1670 -152 1670 -213 1679 c 0,131,132
 -236 1684 -236 1684 -281 1698 c 0,133,134
 -316 1708 -316 1708 -333 1712 c 0,135,136
 -383 1724 -383 1724 -394 1724 c 0,137,138
 -448 1717 -448 1717 -476 1702 c 0,139,140
 -497 1691 -497 1691 -498 1688 c 0,141,142
 -499 1683 -499 1683 -495 1668 c 1,143,144
 -486 1670 -486 1670 -470 1675 c 0,145,146
 -453 1681 -453 1681 -445 1683 c 0,147,148
 -384 1693 -384 1693 -319 1683 c 0,149,150
 -297 1679 -297 1679 -249 1663 c 0,151,152
 -174 1638 -174 1638 -141 1640 c 0,153,154
 -91 1643 -91 1643 -60 1660 c 0,155,156
 -38 1671 -38 1671 -36 1674 c 0,157,158
 -35 1676 -35 1676 -36 1679.5 c 128,-1,159
 -37 1683 -37 1683 -38 1688 c 2,160,-1
 -39 1694 l 1,125,126
44 52 m 1,161,162
 55 58 55 58 89 103 c 0,163,164
 93 107 93 107 95 110 c 0,165,166
 103 119 103 119 119 138 c 128,-1,167
 135 157 135 157 143 166 c 0,168,169
 170 198 170 198 171 200 c 0,170,171
 172 203 l 0,172,173
 179 225 179 225 176 267 c 1,174,175
 175 302 175 302 151 433 c 1,176,177
 122 611 122 611 64 850 c 0,178,179
 58 875 58 875 46 927 c 0,180,181
 33 979 33 979 27 1004 c 2,182,-1
 11 1076 l 1,183,184
 9 1102 9 1102 42 1127 c 0,185,186
 50 1134 50 1134 53 1137 c 0,187,188
 73 1154 73 1154 74 1158 c 0,189,190
 74 1164 74 1164 65 1182 c 0,191,192
 61 1191 61 1191 55 1209 c 0,193,194
 48 1227 48 1227 44 1235 c 0,195,196
 31 1267 31 1267 4 1332 c 0,197,198
 -23 1397 -23 1397 -36 1428 c 0,199,200
 -59 1489 -59 1489 -69 1500 c 0,201,202
 -74 1505 -74 1505 -78 1507 c 0,203,204
 -83 1508 -83 1508 -100 1502 c 2,205,-1
 -151 1478 l 1,206,-1
 -244 1433 l 2,207,208
 -311 1401 -311 1401 -319 1361 c 0,209,210
 -321 1345 -321 1345 -319 1328 c 0,211,212
 -315 1305 -315 1305 -286 1210 c 0,213,214
 -275 1173 -275 1173 -254 1100 c 0,215,216
 -233 1026 -233 1026 -223 989 c 0,217,218
 -194 889 -194 889 -137 689 c 0,219,220
 -81 488 -81 488 -52 389 c 0,221,222
 28 121 28 121 44 52 c 1,161,162
EndSplineSet
AlternateSubs2: "gsub_alternate_dfl_aalt_arab_FAR_Lookup_01_Subtable_01" uniFE82 afii57410
Substitution2: "gsub_single_rtl_fina_arab_FAR_Lookup_01_Subtable_01" uniFE82
EndChar

StartChar: uniFE83
Encoding: 1571 1571 339
AltUni2: 00fe83.ffffffff.0
Width: 547
VWidth: 1639
GlyphClass: 2
Flags: W
LayerCount: 2
Fore
SplineSet
99 -13 m 1,0,1
 89 -23 89 -23 82 -18 c 1,2,3
 78 -13 78 -13 75 -1 c 0,4,5
 75 1 75 1 74 3 c 0,6,7
 70 13 70 13 65 33 c 0,8,9
 59 53 59 53 56 62 c 0,10,11
 35 125 35 125 -17 317 c 0,12,13
 -107 646 -107 646 -227 1055 c 0,14,15
 -271 1206 -271 1206 -290 1274 c 0,16,17
 -315 1368 -315 1368 -312 1399 c 0,18,19
 -309 1445 -309 1445 -253 1473 c 0,20,21
 -248 1475 -248 1475 -242 1478 c 0,22,23
 -220 1488 -220 1488 -177 1509 c 0,24,25
 -115 1539 -115 1539 -84 1553 c 1,26,27
 -61 1561 -61 1561 -21 1561 c 0,28,29
 4 1560 4 1560 15 1553 c 0,30,31
 28 1541 28 1541 47 1496 c 0,32,33
 53 1482 53 1482 57 1474 c 0,34,35
 60 1469 60 1469 70 1460 c 0,36,37
 81 1449 81 1449 85 1443 c 0,38,39
 87 1439 87 1439 115 1369 c 0,40,41
 155 1273 155 1273 174 1227 c 0,42,43
 206 1149 206 1149 218 1122 c 1,44,45
 232 1085 232 1085 230 1071 c 1,46,47
 226 1059 226 1059 210 1050 c 1,48,49
 173 1020 173 1020 168 1005 c 0,50,51
 165 993 165 993 167 981 c 0,52,53
 185 895 185 895 225 723 c 0,54,55
 276 507 276 507 296 400 c 0,56,57
 331 217 331 217 332 154 c 0,58,59
 332 149 332 149 332 146 c 0,60,61
 331 113 331 113 297 76 c 0,62,63
 293 72 293 72 292 71 c 2,64,-1
 216 -18 l 2,65,66
 211 -24 211 -24 201 -36 c 0,67,68
 191 -49 191 -49 186 -54 c 1,69,70
 173 -63 173 -63 170 -62 c 0,71,72
 163 -59 163 -59 160 -48 c 0,73,74
 156 -32 156 -32 148 -7 c 1,75,76
 132 -26 132 -26 120 -13 c 1,77,78
 108 -22 108 -22 99 -13 c 1,0,1
104 52 m 1,79,80
 115 58 115 58 149 103 c 0,81,82
 153 107 153 107 154 110 c 0,83,84
 162 119 162 119 178.5 138 c 128,-1,85
 195 157 195 157 203 166 c 0,86,87
 230 198 230 198 230 200 c 0,88,89
 231 203 231 203 232 203 c 0,90,91
 239 225 239 225 235 267 c 1,92,93
 234 302 234 302 211 433 c 1,94,95
 182 611 182 611 124 850 c 0,96,97
 118 875 118 875 105 927 c 0,98,99
 92 979 92 979 87 1004 c 2,100,-1
 70 1076 l 1,101,102
 68 1102 68 1102 101 1127 c 0,103,104
 109 1134 109 1134 113 1137 c 0,105,106
 133 1154 133 1154 134 1158 c 0,107,108
 134 1164 134 1164 125 1182 c 0,109,110
 121 1191 121 1191 114 1209 c 0,111,112
 107 1227 107 1227 104 1235 c 0,113,114
 91 1267 91 1267 64 1332 c 0,115,116
 37 1397 37 1397 24 1428 c 0,117,118
 1 1489 1 1489 -10 1500 c 0,119,120
 -15 1505 -15 1505 -19 1507 c 0,121,122
 -24 1508 -24 1508 -40 1502 c 2,123,-1
 -91 1478 l 1,124,-1
 -185 1433 l 2,125,126
 -252 1401 -252 1401 -260 1361 c 0,127,128
 -262 1345 -262 1345 -260 1328 c 0,129,130
 -256 1305 -256 1305 -226 1210 c 0,131,132
 -215 1173 -215 1173 -195 1100 c 0,133,134
 -174 1026 -174 1026 -163 989 c 0,135,136
 -134 889 -134 889 -78 689 c 0,137,138
 -22 488 -22 488 8 389 c 0,139,140
 88 121 88 121 104 52 c 1,79,80
-305 1853 m 1,141,142
 -306 1858 -306 1858 -325 1899 c 1,143,144
 -353 1980 -353 1980 -345 2019 c 0,145,146
 -331 2081 -331 2081 -203 2065 c 0,147,148
 -165 2061 -165 2061 -142 2039 c 0,149,150
 -126 2023 -126 2023 -112 1988 c 1,151,152
 -107 1968 -107 1968 -105 1965 c 0,153,154
 -101 1958 -101 1958 -89 1946 c 0,155,156
 -75 1932 -75 1932 -70 1924 c 0,157,158
 -58 1901 -58 1901 -53 1852 c 0,159,160
 -50 1836 -50 1836 -42 1804 c 0,161,162
 -36 1783 -36 1783 -34 1773 c 1,163,164
 -17 1776 -17 1776 -11 1773 c 0,165,166
 0 1765 0 1765 5 1745 c 0,167,168
 14 1699 14 1699 5 1686 c 0,169,170
 -39 1636 -39 1636 -173 1663 c 0,171,172
 -206 1670 -206 1670 -225 1683 c 0,173,174
 -240 1694 -240 1694 -240 1702 c 1,175,176
 -252 1702 -252 1702 -273 1709 c 0,177,178
 -312 1723 -312 1723 -322 1735 c 0,179,180
 -325 1739 -325 1739 -325 1745 c 0,181,182
 -325 1750 -325 1750 -326 1753 c 0,183,184
 -336 1782 -336 1782 -328 1848 c 0,185,186
 -327 1856 -327 1856 -327 1861 c 1,187,-1
 -305 1853 l 1,141,142
-279 1771 m 1,188,189
 -196 1727 -196 1727 -118 1756 c 1,190,191
 -75 1774 -75 1774 -84 1800 c 0,192,193
 -86 1804 -86 1804 -87 1807 c 0,194,195
 -92 1813 -92 1813 -119 1812 c 0,196,197
 -176 1812 -176 1812 -192 1832 c 0,198,199
 -197 1839 -197 1839 -200 1845 c 0,200,201
 -223 1909 -223 1909 -210 1930 c 1,202,203
 -199 1941 -199 1941 -170 1942 c 0,204,205
 -152 1943 -152 1943 -151 1943 c 0,206,207
 -146 1948 -146 1948 -153 1963 c 0,208,209
 -154 1964 -154 1964 -154 1965 c 0,210,211
 -155 1967 -155 1967 -157 1970 c 0,212,213
 -159 1974 -159 1974 -160 1976 c 0,214,215
 -168 1986 -168 1986 -174 1993 c 0,216,217
 -215 2034 -215 2034 -261 2011 c 1,218,219
 -292 1993 -292 1993 -294 1958 c 1,220,221
 -294 1907 -294 1907 -221 1853 c 0,222,223
 -218 1851 -218 1851 -216 1850 c 2,224,-1
 -235 1847 l 1,225,-1
 -211 1827 l 1,226,-1
 -230 1824 l 1,227,-1
 -205 1804 l 1,228,-1
 -253 1801 l 1,229,-1
 -274 1799 l 1,230,-1
 -279 1771 l 1,188,189
EndSplineSet
AlternateSubs2: "gsub_alternate_dfl_aalt_arab_FAR_Lookup_01_Subtable_01" uniFE84 uniFE83
Substitution2: "gsub_single_rtl_fina_arab_FAR_Lookup_01_Subtable_01" uniFE84
EndChar

StartChar: uniFE84
Encoding: 65156 65156 340
Width: 532
VWidth: 1639
GlyphClass: 2
Flags: W
LayerCount: 2
Fore
SplineSet
577 -67 m 1,0,-1
 344 -67 l 2,1,2
 333 -67 333 -67 311 -68 c 0,3,4
 247 -70 247 -70 216 -62 c 0,5,6
 203 -58 203 -58 156 -30 c 0,7,8
 147 -25 147 -25 140 -21 c 0,9,10
 132 -17 132 -17 116 -12 c 0,11,12
 77 4 77 4 59 20 c 0,13,14
 -3 74 -3 74 -33 197 c 0,15,16
 -35 206 -35 206 -37 216 c 2,17,-1
 -68 351 l 1,18,-1
 -248 1128 l 1,19,-1
 -297 1340 l 2,20,21
 -315 1416 -315 1416 -312 1434 c 0,22,23
 -311 1440 -311 1440 -310 1445 c 0,24,25
 -304 1469 -304 1469 -260 1489 c 0,26,27
 -256 1491 -256 1491 -254 1492 c 0,28,29
 -149 1548 -149 1548 -102 1566 c 0,30,31
 -87 1571 -87 1571 -48 1571 c 0,32,33
 -28 1570 -28 1570 -24 1568 c 0,34,35
 -4 1551 -4 1551 9 1483 c 1,36,37
 32 1488 32 1488 46 1453 c 0,38,39
 48 1448 48 1448 48 1445 c 0,40,41
 55 1423 55 1423 82 1307 c 2,42,-1
 219 713 l 1,43,-1
 397 713 l 1,44,-1
 408 667 l 1,45,-1
 235 667 l 2,46,47
 184 667 184 667 181 668 c 0,48,49
 171 671 171 671 165 676 c 0,50,51
 149 690 149 690 139 736 c 2,52,-1
 102 894 l 1,53,-1
 9 1297 l 2,54,55
 5 1315 5 1315 -2 1352 c 0,56,57
 -26 1467 -26 1467 -51 1519 c 1,58,59
 -98 1501 -98 1501 -202 1445 c 0,60,61
 -246 1423 -246 1423 -254 1407 c 0,62,63
 -257 1401 -257 1401 -258 1396 c 0,64,65
 -262 1368 -262 1368 -243 1294 c 2,66,-1
 -198 1099 l 1,67,-1
 -32 379 l 2,68,69
 -28 361 -28 361 -20 323 c 0,70,71
 10 174 10 174 52 112 c 0,72,73
 70 86 70 86 90 67 c 0,74,75
 141 22 141 22 237 21 c 0,76,77
 243 21 243 21 258 21 c 0,78,79
 308 21 308 21 407 22 c 0,80,81
 507 23 507 23 557 23 c 1,82,-1
 577 -67 l 1,0,-1
-373 1865 m 1,83,84
 -374 1870 -374 1870 -393 1911 c 1,85,86
 -421 1992 -421 1992 -413 2030 c 0,87,88
 -399 2092 -399 2092 -271 2076 c 0,89,90
 -233 2072 -233 2072 -210 2050 c 0,91,92
 -194 2034 -194 2034 -180 1999 c 1,93,94
 -176 1979 -176 1979 -174 1976 c 0,95,96
 -170 1969 -170 1969 -157 1958 c 0,97,98
 -143 1944 -143 1944 -138 1935 c 0,99,100
 -126 1912 -126 1912 -121 1863 c 0,101,102
 -118 1847 -118 1847 -110 1816 c 0,103,104
 -104 1794 -104 1794 -102 1784 c 1,105,106
 -85 1787 -85 1787 -79 1784 c 0,107,108
 -68 1776 -68 1776 -63 1756 c 0,109,110
 -54 1710 -54 1710 -63 1697 c 0,111,112
 -107 1647 -107 1647 -241 1674 c 0,113,114
 -274 1681 -274 1681 -293 1694 c 0,115,116
 -308 1705 -308 1705 -308 1714 c 1,117,118
 -320 1714 -320 1714 -342 1720 c 0,119,120
 -381 1734 -381 1734 -390 1747 c 0,121,122
 -393 1751 -393 1751 -393 1757 c 0,123,124
 -393 1762 -393 1762 -395 1765 c 0,125,126
 -405 1794 -405 1794 -397 1859 c 0,127,128
 -396 1867 -396 1867 -395 1873 c 1,129,-1
 -373 1865 l 1,83,84
-347 1783 m 1,130,131
 -264 1739 -264 1739 -186 1768 c 1,132,133
 -143 1786 -143 1786 -152 1812 c 0,134,135
 -154 1816 -154 1816 -155 1819 c 0,136,137
 -160 1825 -160 1825 -187 1824 c 0,138,139
 -244 1824 -244 1824 -260 1843 c 0,140,141
 -265 1850 -265 1850 -268 1856 c 0,142,143
 -291 1920 -291 1920 -278 1942 c 1,144,145
 -267 1953 -267 1953 -238 1953 c 0,146,147
 -220 1954 -220 1954 -219 1955 c 0,148,149
 -216 1960 -216 1960 -221 1974 c 2,150,-1
 -222 1976 l 2,151,152
 -223 1978 -223 1978 -225 1982 c 0,153,154
 -227 1986 -227 1986 -228 1988 c 0,155,156
 -236 1998 -236 1998 -242 2004 c 0,157,158
 -283 2045 -283 2045 -329 2022 c 1,159,160
 -360 2004 -360 2004 -363 1970 c 1,161,162
 -363 1919 -363 1919 -289 1865 c 0,163,164
 -286 1863 -286 1863 -284 1861 c 2,165,-1
 -303 1858 l 1,166,-1
 -279 1838 l 1,167,-1
 -298 1835 l 1,168,-1
 -274 1815 l 1,169,-1
 -322 1812 l 1,170,-1
 -343 1811 l 1,171,-1
 -347 1783 l 1,130,131
EndSplineSet
EndChar

StartChar: uniFE85
Encoding: 1572 1572 341
AltUni2: 00fe85.ffffffff.0
Width: 1015
VWidth: 1639
GlyphClass: 2
Flags: W
LayerCount: 2
Fore
SplineSet
370 -52 m 1,0,1
 301 -39 301 -39 221 5 c 0,2,3
 212 10 212 10 195 17 c 0,4,5
 177 25 177 25 169 30 c 0,6,7
 117 58 117 58 72 103 c 1,8,9
 -5 189 -5 189 -41 341 c 0,10,11
 -87 543 -87 543 -58 794 c 0,12,13
 -41 956 -41 956 3 1043 c 0,14,15
 42 1116 42 1116 95 1140 c 0,16,17
 123 1152 123 1152 198 1151 c 0,18,19
 288 1150 288 1150 384 1058 c 1,20,21
 478 967 478 967 591 774 c 1,22,23
 665 652 665 652 704 566 c 0,24,25
 748 466 748 466 777 367 c 0,26,27
 883 10 883 10 820 -223 c 0,28,29
 783 -356 783 -356 710 -426 c 0,30,31
 604 -528 604 -528 430 -510 c 0,32,33
 395 -506 395 -506 362 -497 c 0,34,35
 315 -484 315 -484 225 -438 c 0,36,37
 214 -432 214 -432 191 -421 c 0,38,39
 152 -401 152 -401 133 -390 c 0,40,41
 48 -335 48 -335 -9 -261 c 0,42,43
 -46 -215 -46 -215 -53 -179 c 0,44,45
 -63 -134 -63 -134 -64 -132 c 0,46,47
 -63 -128 -63 -128 -62 -126 c 0,48,49
 -56 -116 -56 -116 -31 -116 c 0,50,51
 -16 -116 -16 -116 15 -116 c 0,52,53
 47 -115 47 -115 62 -115 c 0,54,55
 261 -114 261 -114 370 -52 c 1,0,1
525 5 m 1,56,57
 505 -42 505 -42 449 -82 c 0,58,59
 366 -142 366 -142 171 -158 c 0,60,61
 165 -158 165 -158 160 -159 c 0,62,63
 120 -162 120 -162 44 -162 c 0,64,65
 2 -162 2 -162 -0 -163 c 0,66,67
 -3 -165 -3 -165 -5 -166 c 0,68,69
 -7 -173 -7 -173 1 -182 c 0,70,71
 21 -212 21 -212 30 -225 c 0,72,73
 95 -307 95 -307 190 -359 c 1,74,75
 304 -420 304 -420 397 -423 c 0,76,77
 517 -427 517 -427 614 -339 c 1,78,79
 731 -228 731 -228 746 -10 c 1,80,81
 771 294 771 294 605 641 c 0,82,83
 576 701 576 701 544 756 c 0,84,85
 426 959 426 959 312 1046 c 0,86,87
 233 1108 233 1108 184 1104 c 1,88,89
 121 1094 121 1094 76 1030 c 0,90,91
 16 943 16 943 -3 764 c 0,92,93
 -9 726 -9 726 -13 656 c 0,94,95
 -16 599 -16 599 -16 559 c 0,96,97
 -15 311 -15 311 71 189 c 0,98,99
 104 144 104 144 147 112 c 0,100,101
 183 84 183 84 211 71 c 0,102,103
 262 46 262 46 315 36 c 1,104,105
 376 29 376 29 426 38 c 0,106,107
 434 40 434 40 449 44 c 0,108,109
 464 49 464 49 472 51 c 1,110,-1
 470 44 l 1,111,-1
 493 51 l 1,112,-1
 491 44 l 1,113,-1
 514 51 l 1,114,-1
 498 21 l 1,115,-1
 520 28 l 1,116,-1
 504 -2 l 1,117,-1
 525 5 l 1,56,57
177 856 m 1,118,119
 295 875 295 875 380 791 c 0,120,121
 386 785 386 785 390 781 c 0,122,123
 427 738 427 738 441 677 c 0,124,125
 448 644 448 644 448 643 c 0,126,127
 445 639 445 639 427 635 c 0,128,129
 305 608 305 608 216 666 c 0,130,131
 203 675 203 675 193 684 c 0,132,133
 158 717 158 717 142 787 c 0,134,135
 135 820 135 820 141 835 c 0,136,137
 149 849 149 849 177 856 c 1,118,119
274 768 m 1,138,139
 242 760 242 760 235 745 c 0,140,141
 229 733 229 733 236 723 c 0,142,143
 245 712 245 712 266 702 c 0,144,145
 324 674 324 674 361 677 c 1,146,147
 387 684 387 684 389 687 c 1,148,149
 388 692 388 692 387.5 693.5 c 128,-1,150
 387 695 387 695 383 702 c 2,151,-1
 379 708 l 1,152,153
 351 746 351 746 329 761 c 0,154,155
 312 772 312 772 274 768 c 1,138,139
471 52 m 1,156,-1
 473 51 l 1,157,-1
 471 52 l 1,156,-1
493 52 m 1,158,-1
 495 51 l 1,159,-1
 493 52 l 1,158,-1
514 52 m 1,160,-1
 516 51 l 1,161,-1
 514 52 l 1,160,-1
519 30 m 1,162,-1
 521 28 l 1,163,-1
 519 30 l 1,162,-1
525 7 m 1,164,-1
 527 5 l 1,165,-1
 525 7 l 1,164,-1
255 1443 m 1,166,167
 254 1448 254 1448 236 1489 c 1,168,169
 208 1570 208 1570 216 1609 c 0,170,171
 230 1671 230 1671 358 1655 c 0,172,173
 396 1651 396 1651 419 1629 c 0,174,175
 435 1613 435 1613 449 1578 c 1,176,177
 454 1558 454 1558 455 1555 c 0,178,179
 459 1548 459 1548 472 1536 c 0,180,181
 486 1522 486 1522 491 1514 c 0,182,183
 503 1491 503 1491 507 1442 c 0,184,185
 510 1426 510 1426 519 1394 c 0,186,187
 525 1372 525 1372 527 1363 c 1,188,189
 544 1366 544 1366 550 1363 c 0,190,191
 561 1355 561 1355 566 1335 c 0,192,193
 575 1289 575 1289 566 1276 c 0,194,195
 522 1226 522 1226 388 1253 c 0,196,197
 355 1260 355 1260 336 1273 c 0,198,199
 321 1284 321 1284 321 1292 c 1,200,201
 309 1292 309 1292 287 1299 c 0,202,203
 248 1313 248 1313 238 1325 c 0,204,205
 235 1329 235 1329 236 1335 c 0,206,207
 236 1340 236 1340 234 1343 c 0,208,209
 224 1372 224 1372 232 1438 c 0,210,211
 233 1446 233 1446 234 1451 c 1,212,-1
 255 1443 l 1,166,167
282 1361 m 1,213,214
 365 1317 365 1317 443 1346 c 1,215,216
 486 1364 486 1364 477 1390 c 0,217,218
 475 1394 475 1394 473 1397 c 0,219,220
 468 1403 468 1403 442 1402 c 0,221,222
 385 1402 385 1402 369 1422 c 0,223,224
 364 1429 364 1429 361 1435 c 0,225,226
 338 1499 338 1499 351 1520 c 1,227,228
 362 1531 362 1531 391 1532 c 0,229,230
 409 1533 409 1533 410 1533 c 0,231,232
 413 1538 413 1538 407 1553 c 2,233,-1
 407 1555 l 2,234,235
 406 1557 406 1557 404 1560 c 0,236,237
 402 1564 402 1564 401 1566 c 0,238,239
 393 1576 393 1576 386 1583 c 0,240,241
 345 1624 345 1624 299 1601 c 1,242,243
 268 1583 268 1583 266 1548 c 1,244,245
 266 1497 266 1497 340 1443 c 0,246,247
 343 1441 343 1441 345 1440 c 2,248,-1
 326 1437 l 1,249,-1
 350 1417 l 1,250,-1
 331 1414 l 1,251,-1
 355 1394 l 1,252,-1
 307 1391 l 1,253,-1
 286 1389 l 1,254,-1
 282 1361 l 1,213,214
EndSplineSet
AlternateSubs2: "gsub_alternate_dfl_aalt_arab_FAR_Lookup_01_Subtable_01" uniFE86 uniFE85
Substitution2: "gsub_single_rtl_fina_arab_FAR_Lookup_01_Subtable_01" uniFE86
EndChar

StartChar: uniFE86
Encoding: 65158 65158 342
Width: 912
VWidth: 1639
GlyphClass: 2
Flags: W
LayerCount: 2
Fore
SplineSet
323 -52 m 1,0,1
 254 -39 254 -39 174 5 c 0,2,3
 165 10 165 10 148 17 c 0,4,5
 130 25 130 25 121 30 c 0,6,7
 69 58 69 58 25 103 c 1,8,9
 -52 189 -52 189 -88 341 c 0,10,11
 -134 544 -134 544 -105 792 c 0,12,13
 -85 962 -85 962 -44 1043 c 0,14,15
 -5 1116 -5 1116 48 1140 c 1,16,17
 76 1150 76 1150 119 1150 c 0,18,19
 184 1149 184 1149 218 1138 c 1,20,21
 345 1089 345 1089 482 877 c 0,22,23
 498 853 498 853 527 805 c 0,24,25
 545 775 545 775 553 761 c 0,26,27
 555 757 555 757 561 747 c 0,28,29
 574 723 574 723 580 717 c 1,30,31
 591 711 591 711 633 713 c 1,32,-1
 776 713 l 1,33,-1
 787 667 l 1,34,-1
 608 667 l 1,35,-1
 563 667 l 2,36,37
 546 668 546 668 544 669 c 0,38,39
 542 671 542 671 524 704 c 0,40,41
 495 760 495 760 479 786 c 0,42,43
 362 972 362 972 256 1051 c 1,44,45
 162 1117 162 1117 102 1092 c 0,46,47
 -1 1047 -1 1047 -39 836 c 0,48,49
 -40 831 -40 831 -40 828 c 0,50,51
 -49 773 -49 773 -55 712 c 1,52,53
 -62 661 -62 661 -62 599 c 0,54,55
 -70 346 -70 346 7 216 c 0,56,57
 45 154 45 154 101 112 c 0,58,59
 137 84 137 84 175 66 c 0,60,61
 224 43 224 43 288 34 c 0,62,63
 350 27 350 27 426 52 c 1,64,-1
 423 44 l 1,65,-1
 447 52 l 1,66,-1
 444 44 l 1,67,-1
 468 52 l 1,68,-1
 452 23 l 1,69,-1
 474 30 l 1,70,-1
 457 0 l 1,71,-1
 479 7 l 1,72,73
 469 -32 469 -32 410 -77 c 0,74,75
 323 -142 323 -142 122 -158 c 0,76,77
 118 -158 118 -158 114 -159 c 0,78,79
 72 -162 72 -162 -10 -162 c 1,80,81
 -48 -165 -48 -165 -51 -169 c 0,82,83
 -53 -172 -53 -172 -40 -191 c 0,84,85
 -39 -192 -39 -192 -39 -194 c 2,86,-1
 -37 -195 l 2,87,88
 -9 -236 -9 -236 26 -271 c 0,89,90
 152 -396 152 -396 318 -420 c 0,91,92
 334 -422 334 -422 348 -423 c 0,93,94
 384 -424 384 -424 437 -408 c 0,95,96
 598 -362 598 -362 667 -170 c 0,97,98
 671 -159 671 -159 673 -149 c 0,99,100
 692 -73 692 -73 697 -33 c 0,101,102
 697 -22 697 -22 700 5 c 0,103,104
 702 19 702 19 703 20 c 0,105,106
 704 22 704 22 716 21 c 0,107,108
 717 21 717 21 718 21 c 2,109,-1
 719 21 l 1,110,-1
 765 21 l 2,111,112
 793 21 793 21 850 22 c 0,113,114
 908 23 908 23 936 23 c 1,115,-1
 956 -67 l 1,116,-1
 842 -67 l 2,117,118
 839 -67 839 -67 831 -66 c 0,119,120
 805 -64 805 -64 798 -69 c 1,121,122
 796 -72 796 -72 796 -85 c 2,123,-1
 791 -125 l 1,124,125
 786 -184 786 -184 766 -251 c 0,126,127
 705 -437 705 -437 544 -493 c 0,128,129
 507 -506 507 -506 468 -510 c 0,130,131
 359 -520 359 -520 255 -477 c 0,132,133
 240 -470 240 -470 210 -454 c 0,134,135
 187 -441 187 -441 175 -436 c 0,136,137
 49 -374 49 -374 -10 -315 c 1,138,139
 -85 -237 -85 -237 -102 -172 c 1,140,141
 -111 -133 -111 -133 -110 -129 c 0,142,143
 -109 -126 -109 -126 -109 -125 c 0,144,145
 -108 -123 -108 -123 -106 -121.5 c 128,-1,146
 -104 -120 -104 -120 -101.5 -119 c 128,-1,147
 -99 -118 -99 -118 -95.5 -117 c 128,-1,148
 -92 -116 -92 -116 -90.5 -116 c 128,-1,149
 -89 -116 -89 -116 -84 -116 c 2,150,-1
 -78 -116 l 1,151,-1
 -1 -116 l 1,152,153
 10 -114 10 -114 35 -114 c 0,154,155
 52 -114 52 -114 60 -113 c 0,156,157
 127 -108 127 -108 206 -95 c 1,158,159
 258 -82 258 -82 283 -72 c 1,160,161
 312 -57 312 -57 324 -54 c 1,162,-1
 323 -52 l 1,0,1
130 856 m 1,163,164
 248 875 248 875 333 791 c 0,165,166
 339 785 339 785 343 781 c 0,167,168
 380 738 380 738 394 677 c 0,169,170
 401 644 401 644 401 643 c 0,171,172
 398 639 398 639 380 635 c 0,173,174
 258 608 258 608 169 666 c 0,175,176
 156 675 156 675 146 684 c 0,177,178
 111 717 111 717 94 787 c 0,179,180
 87 820 87 820 94 835 c 0,181,182
 102 849 102 849 130 856 c 1,163,164
227 768 m 1,183,184
 195 760 195 760 188 745 c 0,185,186
 182 733 182 733 188 723 c 0,187,188
 197 712 197 712 219 702 c 0,189,190
 277 674 277 674 313 677 c 1,191,192
 339 684 339 684 342 687 c 1,193,194
 341 692 341 692 340.5 693.5 c 128,-1,195
 340 695 340 695 336 702 c 2,196,-1
 332 708 l 1,197,198
 304 746 304 746 282 761 c 0,199,200
 265 772 265 772 227 768 c 1,183,184
452 23 m 1,201,-1
 451 21 l 1,202,-1
 452 23 l 1,201,-1
457 0 m 1,203,-1
 456 -2 l 1,204,-1
 457 0 l 1,203,-1
322 1440 m 1,205,206
 321 1445 321 1445 302 1486 c 1,207,208
 274 1567 274 1567 282 1606 c 0,209,210
 296 1668 296 1668 424 1651 c 0,211,212
 462 1647 462 1647 485 1625 c 0,213,214
 501 1609 501 1609 515 1574 c 1,215,216
 520 1554 520 1554 522 1551 c 0,217,218
 526 1544 526 1544 538 1533 c 0,219,220
 552 1519 552 1519 557 1510 c 0,221,222
 569 1487 569 1487 574 1438 c 0,223,224
 577 1422 577 1422 585 1391 c 0,225,226
 591 1370 591 1370 593 1360 c 1,227,228
 610 1363 610 1363 616 1360 c 0,229,230
 627 1352 627 1352 632 1332 c 0,231,232
 641 1286 641 1286 632 1273 c 0,233,234
 588 1223 588 1223 454 1250 c 0,235,236
 421 1257 421 1257 402 1269 c 0,237,238
 387 1280 387 1280 387 1289 c 1,239,240
 375 1289 375 1289 354 1296 c 0,241,242
 315 1310 315 1310 305 1322 c 0,243,244
 302 1326 302 1326 302 1332 c 0,245,246
 302 1337 302 1337 301 1340 c 0,247,248
 291 1369 291 1369 299 1435 c 0,249,250
 300 1442 300 1442 300 1448 c 1,251,-1
 322 1440 l 1,205,206
348 1358 m 1,252,253
 431 1314 431 1314 509 1343 c 1,254,255
 552 1361 552 1361 543 1387 c 0,256,257
 541 1391 541 1391 540 1394 c 0,258,259
 535 1400 535 1400 508 1399 c 0,260,261
 451 1399 451 1399 435 1418 c 0,262,263
 430 1425 430 1425 427 1432 c 0,264,265
 404 1496 404 1496 417 1517 c 1,266,267
 428 1528 428 1528 457 1528 c 0,268,269
 475 1529 475 1529 476 1530 c 0,270,271
 479 1535 479 1535 474 1550 c 2,272,-1
 473 1551 l 2,273,274
 472 1553 472 1553 470 1557 c 0,275,276
 468 1561 468 1561 467 1563 c 0,277,278
 459 1573 459 1573 453 1579 c 0,279,280
 412 1620 412 1620 366 1598 c 1,281,282
 335 1580 335 1580 333 1545 c 1,283,284
 333 1494 333 1494 406 1440 c 0,285,286
 409 1438 409 1438 411 1437 c 2,287,-1
 392 1433 l 1,288,-1
 416 1414 l 1,289,-1
 397 1410 l 1,290,-1
 422 1391 l 1,291,-1
 374 1387 l 1,292,-1
 353 1386 l 1,293,-1
 348 1358 l 1,252,253
EndSplineSet
EndChar

StartChar: uniFE87
Encoding: 1573 1573 343
AltUni2: 00fe87.ffffffff.0
Width: 550
VWidth: 1639
GlyphClass: 2
Flags: W
LayerCount: 2
Fore
SplineSet
152 -13 m 1,0,1
 142 -23 142 -23 135 -18 c 1,2,3
 131 -13 131 -13 127 -1 c 0,4,5
 127 1 127 1 127 3 c 0,6,7
 123 13 123 13 117 33 c 0,8,9
 111 53 111 53 108 62 c 0,10,11
 87 125 87 125 36 317 c 0,12,13
 -54 646 -54 646 -174 1055 c 0,14,15
 -218 1206 -218 1206 -237 1274 c 0,16,17
 -262 1368 -262 1368 -260 1399 c 0,18,19
 -257 1445 -257 1445 -200 1473 c 0,20,21
 -195 1475 -195 1475 -189 1478 c 0,22,23
 -167 1488 -167 1488 -124 1509 c 0,24,25
 -62 1539 -62 1539 -31 1553 c 1,26,27
 -8 1561 -8 1561 32 1561 c 0,28,29
 57 1560 57 1560 68 1553 c 0,30,31
 81 1541 81 1541 100 1496 c 0,32,33
 106 1482 106 1482 110 1474 c 0,34,35
 113 1469 113 1469 123 1460 c 0,36,37
 134 1449 134 1449 137 1443 c 0,38,39
 139 1439 139 1439 168 1369 c 0,40,41
 208 1273 208 1273 227 1227 c 0,42,43
 259 1149 259 1149 271 1122 c 1,44,45
 285 1085 285 1085 283 1071 c 1,46,47
 279 1059 279 1059 263 1050 c 1,48,49
 226 1020 226 1020 221 1005 c 0,50,51
 218 993 218 993 220 981 c 0,52,53
 238 895 238 895 278 723 c 0,54,55
 329 507 329 507 349 400 c 0,56,57
 384 217 384 217 385 154 c 0,58,59
 385 149 385 149 385 146 c 0,60,61
 384 113 384 113 349 76 c 0,62,63
 345 72 345 72 344 71 c 2,64,-1
 269 -18 l 2,65,66
 264 -24 264 -24 254 -36 c 0,67,68
 244 -49 244 -49 239 -54 c 1,69,70
 226 -63 226 -63 223 -62 c 0,71,72
 216 -59 216 -59 213 -48 c 0,73,74
 209 -32 209 -32 201 -7 c 1,75,76
 185 -26 185 -26 173 -13 c 1,77,78
 161 -22 161 -22 152 -13 c 1,0,1
156 52 m 1,79,80
 167 58 167 58 202 103 c 0,81,82
 206 107 206 107 207 110 c 0,83,84
 215 119 215 119 231 138 c 128,-1,85
 247 157 247 157 255 166 c 0,86,87
 282 198 282 198 283 200 c 0,88,89
 284 203 284 203 285 203 c 0,90,91
 292 225 292 225 288 267 c 1,92,93
 287 302 287 302 264 433 c 1,94,95
 235 611 235 611 177 850 c 0,96,97
 171 875 171 875 158 927 c 0,98,99
 145 979 145 979 140 1004 c 2,100,-1
 123 1076 l 1,101,102
 121 1102 121 1102 154 1127 c 0,103,104
 162 1134 162 1134 165 1137 c 0,105,106
 185 1154 185 1154 186 1158 c 0,107,108
 186 1164 186 1164 178 1182 c 0,109,110
 174 1191 174 1191 167 1209 c 0,111,112
 160 1227 160 1227 156 1235 c 0,113,114
 143 1267 143 1267 117 1332 c 0,115,116
 90 1397 90 1397 77 1428 c 0,117,118
 54 1489 54 1489 43 1500 c 0,119,120
 38 1505 38 1505 34 1507 c 0,121,122
 29 1508 29 1508 12 1502 c 2,123,-1
 -38 1478 l 1,124,-1
 -132 1433 l 2,125,126
 -199 1401 -199 1401 -207 1361 c 0,127,128
 -209 1345 -209 1345 -207 1328 c 0,129,130
 -203 1305 -203 1305 -173 1210 c 0,131,132
 -162 1173 -162 1173 -142 1100 c 0,133,134
 -121 1026 -121 1026 -110 989 c 0,135,136
 -81 889 -81 889 -25 689 c 0,137,138
 31 488 31 488 60 389 c 0,139,140
 140 121 140 121 156 52 c 1,79,80
279 -451 m 1,141,142
 278 -446 278 -446 260 -405 c 1,143,144
 232 -324 232 -324 240 -285 c 0,145,146
 254 -223 254 -223 382 -239 c 0,147,148
 420 -243 420 -243 443 -266 c 0,149,150
 459 -282 459 -282 473 -317 c 1,151,152
 478 -337 478 -337 479 -339 c 0,153,154
 483 -346 483 -346 496 -358 c 0,155,156
 510 -372 510 -372 515 -380 c 0,157,158
 527 -403 527 -403 532 -453 c 0,159,160
 535 -469 535 -469 543 -500 c 0,161,162
 549 -522 549 -522 551 -531 c 1,163,164
 568 -528 568 -528 574 -531 c 0,165,166
 585 -539 585 -539 590 -559 c 0,167,168
 599 -605 599 -605 590 -618 c 0,169,170
 546 -668 546 -668 412 -641 c 0,171,172
 379 -634 379 -634 360 -622 c 0,173,174
 345 -611 345 -611 345 -602 c 1,175,176
 333 -602 333 -602 311 -595 c 0,177,178
 272 -581 272 -581 263 -569 c 0,179,180
 260 -565 260 -565 260 -559 c 0,181,182
 259 -553 259 -553 258 -551 c 0,183,184
 248 -522 248 -522 256 -456 c 0,185,186
 257 -448 257 -448 258 -443 c 1,187,-1
 279 -451 l 1,141,142
306 -533 m 1,188,189
 389 -577 389 -577 467 -548 c 1,190,191
 510 -530 510 -530 501 -504 c 0,192,193
 499 -500 499 -500 498 -497 c 0,194,195
 493 -491 493 -491 466 -492 c 0,196,197
 409 -492 409 -492 393 -473 c 0,198,199
 388 -466 388 -466 385 -459 c 0,200,201
 362 -395 362 -395 375 -374 c 1,202,203
 386 -363 386 -363 415 -362 c 0,204,205
 433 -361 433 -361 434 -361 c 0,206,207
 438 -355 438 -355 431 -339 c 0,208,209
 430 -337 430 -337 428 -334 c 0,210,211
 426 -330 426 -330 425 -328 c 0,212,213
 417 -318 417 -318 410 -312 c 0,214,215
 369 -271 369 -271 323 -293 c 1,216,217
 292 -311 292 -311 290 -346 c 1,218,219
 290 -397 290 -397 364 -451 c 0,220,221
 367 -453 367 -453 369 -454 c 2,222,-1
 350 -458 l 1,223,-1
 374 -477 l 1,224,-1
 355 -481 l 1,225,-1
 379 -500 l 1,226,-1
 331 -503 l 1,227,-1
 310 -505 l 1,228,-1
 306 -533 l 1,188,189
EndSplineSet
AlternateSubs2: "gsub_alternate_dfl_aalt_arab_FAR_Lookup_01_Subtable_01" uniFE88 uniFE87
Substitution2: "gsub_single_rtl_fina_arab_FAR_Lookup_01_Subtable_01" uniFE88
EndChar

StartChar: uniFE88
Encoding: 65160 65160 344
Width: 704
VWidth: 1639
GlyphClass: 2
Flags: W
LayerCount: 2
Fore
SplineSet
749 -67 m 1,0,-1
 516 -67 l 2,1,2
 505 -67 505 -67 483 -68 c 0,3,4
 419 -70 419 -70 388 -62 c 0,5,6
 375 -58 375 -58 328 -30 c 0,7,8
 319 -25 319 -25 312 -21 c 0,9,10
 304 -17 304 -17 288 -12 c 0,11,12
 249 4 249 4 230 20 c 0,13,14
 168 74 168 74 139 197 c 0,15,16
 137 206 137 206 135 216 c 2,17,-1
 104 351 l 1,18,-1
 -76 1128 l 1,19,-1
 -125 1340 l 2,20,21
 -143 1416 -143 1416 -140 1434 c 0,22,23
 -139 1440 -139 1440 -138 1445 c 0,24,25
 -132 1469 -132 1469 -89 1489 c 0,26,27
 -85 1491 -85 1491 -82 1492 c 0,28,29
 23 1548 23 1548 70 1566 c 0,30,31
 85 1571 85 1571 124 1571 c 0,32,33
 144 1570 144 1570 147 1568 c 0,34,35
 167 1551 167 1551 181 1483 c 1,36,37
 204 1488 204 1488 217 1453 c 0,38,39
 219 1448 219 1448 220 1445 c 0,40,41
 227 1423 227 1423 253 1307 c 2,42,-1
 391 713 l 1,43,-1
 569 713 l 1,44,-1
 580 667 l 1,45,-1
 407 667 l 2,46,47
 356 667 356 667 353 668 c 0,48,49
 343 671 343 671 337 676 c 0,50,51
 321 690 321 690 310 736 c 2,52,-1
 274 894 l 1,53,-1
 181 1297 l 2,54,55
 177 1315 177 1315 169 1352 c 0,56,57
 145 1467 145 1467 121 1519 c 1,58,59
 74 1501 74 1501 -30 1445 c 0,60,61
 -74 1423 -74 1423 -82 1407 c 0,62,63
 -85 1401 -85 1401 -86 1396 c 0,64,65
 -90 1368 -90 1368 -71 1294 c 2,66,-1
 -26 1099 l 1,67,-1
 140 379 l 2,68,69
 144 361 144 361 151 323 c 0,70,71
 181 174 181 174 223 112 c 0,72,73
 241 86 241 86 262 67 c 0,74,75
 313 22 313 22 408 21 c 0,76,77
 414 21 414 21 430 21 c 0,78,79
 480 21 480 21 579 22 c 0,80,81
 679 23 679 23 728 23 c 1,82,-1
 749 -67 l 1,0,-1
181 -348 m 1,83,84
 180 -343 180 -343 161 -302 c 1,85,86
 133 -221 133 -221 141 -182 c 0,87,88
 155 -120 155 -120 283 -136 c 0,89,90
 321 -140 321 -140 344 -162 c 0,91,92
 360 -178 360 -178 374 -213 c 1,93,94
 379 -233 379 -233 381 -236 c 0,95,96
 385 -243 385 -243 397 -255 c 0,97,98
 411 -269 411 -269 416 -277 c 0,99,100
 428 -300 428 -300 433 -349 c 0,101,102
 436 -365 436 -365 444 -397 c 0,103,104
 450 -418 450 -418 453 -428 c 1,105,106
 470 -425 470 -425 476 -428 c 0,107,108
 487 -436 487 -436 491 -456 c 0,109,110
 500 -502 500 -502 491 -515 c 0,111,112
 447 -565 447 -565 313 -538 c 0,113,114
 280 -531 280 -531 262 -518 c 0,115,116
 247 -507 247 -507 246 -499 c 1,117,118
 234 -499 234 -499 213 -492 c 0,119,120
 174 -478 174 -478 164 -466 c 0,121,122
 161 -462 161 -462 161 -456 c 0,123,124
 160 -450 160 -450 160 -448 c 0,125,126
 150 -419 150 -419 158 -353 c 0,127,128
 159 -345 159 -345 159 -339 c 1,129,-1
 181 -348 l 1,83,84
208 -430 m 1,130,131
 291 -474 291 -474 368 -444 c 1,132,133
 411 -426 411 -426 402 -401 c 0,134,135
 400 -397 400 -397 399 -394 c 0,136,137
 394 -388 394 -388 367 -389 c 0,138,139
 310 -389 310 -389 294 -369 c 0,140,141
 289 -362 289 -362 287 -356 c 0,142,143
 264 -292 264 -292 276 -271 c 1,144,145
 287 -260 287 -260 316 -259 c 0,146,147
 334 -258 334 -258 336 -257 c 0,148,149
 339 -252 339 -252 333 -238 c 2,150,-1
 332 -236 l 2,151,152
 331 -234 331 -234 329 -230 c 0,153,154
 327 -226 327 -226 326 -225 c 0,155,156
 318 -215 318 -215 312 -208 c 0,157,158
 271 -167 271 -167 225 -190 c 1,159,160
 194 -208 194 -208 192 -243 c 1,161,162
 192 -294 192 -294 266 -348 c 0,163,164
 269 -350 269 -350 270 -351 c 2,165,-1
 251 -354 l 1,166,-1
 275 -374 l 1,167,-1
 256 -377 l 1,168,-1
 281 -397 l 1,169,-1
 233 -400 l 1,170,-1
 212 -402 l 1,171,-1
 208 -430 l 1,130,131
EndSplineSet
EndChar

StartChar: uniFE89
Encoding: 1574 1574 345
AltUni2: 00fe89.ffffffff.0
Width: 1528
VWidth: 1639
GlyphClass: 2
Flags: W
LayerCount: 2
Fore
SplineSet
816 -16 m 1,0,1
 764 -11 764 -11 627 25 c 0,2,3
 600 32 600 32 531 69 c 0,4,5
 518 76 518 76 494 88 c 0,6,7
 448 111 448 111 426 130 c 1,8,9
 369 185 369 185 346 280 c 0,10,11
 323 381 323 381 339 462 c 0,12,13
 361 566 361 566 424 699 c 1,14,15
 492 849 492 849 574 954 c 1,16,17
 676 1082 676 1082 767 1122 c 0,18,19
 859 1160 859 1160 955 1127 c 0,20,21
 980 1118 980 1118 1001 1105 c 0,22,23
 1047 1075 1047 1075 1093 991 c 0,24,25
 1102 975 1102 975 1101 974 c 0,26,27
 1106 965 1106 965 1118 948 c 0,28,29
 1135 923 1135 923 1142 910 c 0,30,31
 1199 800 1199 800 1187 706 c 0,32,33
 1183 682 1183 682 1176 664 c 0,34,35
 1162 637 1162 637 1116 654 c 0,36,37
 1037 686 1037 686 1017 690 c 1,38,39
 963 696 963 696 910 667 c 0,40,41
 906 665 906 665 898 659 c 0,42,43
 890 653 890 653 886 651 c 1,44,45
 908 636 908 636 976 605 c 1,46,47
 1118 537 1118 537 1173 494 c 1,48,49
 1223 452 1223 452 1248 410 c 0,50,51
 1251 404 1251 404 1258 390 c 0,52,53
 1267 370 1267 370 1272 362 c 0,54,55
 1277 353 1277 353 1289 337 c 0,56,57
 1300 323 1300 323 1304 317 c 0,58,59
 1340 249 1340 249 1341 149 c 1,60,61
 1339 3 1339 3 1263 -148 c 0,62,63
 1129 -409 1129 -409 837 -486 c 0,64,65
 756 -507 756 -507 670 -512 c 0,66,67
 526 -517 526 -517 415 -477 c 0,68,69
 384 -467 384 -467 312 -430 c 0,70,71
 302 -425 302 -425 281 -414 c 0,72,73
 233 -391 233 -391 211 -376 c 0,74,75
 82 -288 82 -288 17 -144 c 1,76,77
 -88 102 -88 102 -11 358 c 0,78,79
 15 444 15 444 41 469 c 1,80,81
 54 478 54 478 94 477 c 0,82,83
 118 475 118 475 125 467 c 0,84,85
 139 448 139 448 152 389 c 1,86,87
 172 393 172 393 188 361 c 0,88,89
 208 318 208 318 210 259 c 1,90,91
 215 187 215 187 233 118 c 1,92,93
 250 66 250 66 257 54 c 0,94,95
 278 22 278 22 332 -20 c 0,96,97
 447 -105 447 -105 590 -99 c 0,98,99
 603 -98 603 -98 614 -97 c 0,100,101
 718 -87 718 -87 771 -64 c 1,102,103
 811 -41 811 -41 816 -16 c 1,0,1
93 421 m 1,104,105
 57 387 57 387 30 269 c 0,106,107
 27 258 27 258 26 253 c 0,108,109
 -8 105 -8 105 18 -10 c 0,110,111
 54 -165 54 -165 181 -281 c 0,112,113
 214 -311 214 -311 247 -333 c 0,114,115
 362 -406 362 -406 496 -420 c 0,116,117
 774 -449 774 -449 988 -278 c 0,118,119
 1130 -163 1130 -163 1197 7 c 0,120,121
 1245 131 1245 131 1245 235 c 1,122,123
 1247 302 1247 302 1228 341 c 0,124,125
 1180 439 1180 439 1031 517 c 0,126,127
 1015 525 1015 525 937 563 c 0,128,129
 860 600 860 600 837 615 c 1,130,131
 807 639 807 639 798 651 c 1,132,133
 788 670 788 670 783 708 c 1,134,135
 781 741 781 741 824 761 c 0,136,137
 907 798 907 798 996 771 c 0,138,139
 1006 768 1006 768 1028 757 c 0,140,141
 1056 743 1056 743 1068 741 c 1,142,143
 1078 741 1078 741 1087 768 c 0,144,145
 1112 866 1112 866 1048 972 c 0,146,147
 1034 995 1034 995 1017 1015 c 0,148,149
 958 1086 958 1086 888 1090 c 0,150,151
 874 1091 874 1091 863 1089 c 0,152,153
 766 1068 766 1068 671 961 c 0,154,155
 536 812 536 812 432 549 c 1,156,157
 393 444 393 444 385 364 c 1,158,159
 383 303 383 303 387 289 c 0,160,161
 402 250 402 250 419 223 c 0,162,163
 476 131 476 131 628 97 c 0,164,165
 632 96 632 96 714 80 c 0,166,167
 791 65 791 65 820 51 c 1,168,169
 855 25 855 25 866 -21 c 0,170,171
 873 -53 873 -53 871 -62 c 0,172,173
 864 -82 864 -82 839 -102 c 1,174,175
 775 -141 775 -141 626 -144 c 0,176,177
 431 -146 431 -146 326 -83 c 0,178,179
 274 -51 274 -51 234 -5 c 0,180,181
 208 25 208 25 185 67 c 0,182,183
 140 154 140 154 119 294 c 0,184,185
 118 304 118 304 117 326 c 0,186,187
 114 392 114 392 93 421 c 1,104,105
-278 1196 m 1,188,189
 -279 1201 -279 1201 -298 1241 c 1,190,191
 -326 1322 -326 1322 -318 1361 c 0,192,193
 -304 1423 -304 1423 -176 1407 c 0,194,195
 -138 1403 -138 1403 -115 1381 c 0,196,197
 -99 1365 -99 1365 -85 1330 c 1,198,199
 -80 1310 -80 1310 -78 1307 c 0,200,201
 -74 1300 -74 1300 -62 1288 c 0,202,203
 -48 1274 -48 1274 -43 1266 c 0,204,205
 -31 1243 -31 1243 -26 1194 c 0,206,207
 -23 1178 -23 1178 -15 1147 c 0,208,209
 -9 1126 -9 1126 -6 1115 c 1,210,211
 11 1118 11 1118 16 1115 c 0,212,213
 27 1107 27 1107 32 1087 c 0,214,215
 41 1041 41 1041 32 1028 c 0,216,217
 -12 978 -12 978 -146 1005 c 0,218,219
 -179 1012 -179 1012 -198 1025 c 0,220,221
 -213 1036 -213 1036 -213 1045 c 1,222,223
 -225 1045 -225 1045 -246 1051 c 0,224,225
 -285 1065 -285 1065 -295 1077 c 0,226,227
 -298 1081 -298 1081 -298 1087 c 0,228,229
 -298 1092 -298 1092 -299 1096 c 0,230,231
 -309 1125 -309 1125 -301 1190 c 0,232,233
 -300 1198 -300 1198 -300 1204 c 1,234,-1
 -278 1196 l 1,188,189
-252 1114 m 1,235,236
 -169 1070 -169 1070 -91 1099 c 1,237,238
 -48 1117 -48 1117 -57 1143 c 0,239,240
 -59 1147 -59 1147 -60 1150 c 0,241,242
 -65 1156 -65 1156 -92 1155 c 0,243,244
 -149 1155 -149 1155 -165 1174 c 0,245,246
 -170 1181 -170 1181 -173 1187 c 0,247,248
 -196 1251 -196 1251 -183 1273 c 1,249,250
 -172 1284 -172 1284 -143 1284 c 0,251,252
 -125 1285 -125 1285 -124 1286 c 0,253,254
 -121 1291 -121 1291 -126 1305 c 2,255,-1
 -127 1307 l 2,256,257
 -128 1309 -128 1309 -130 1313 c 0,258,259
 -132 1317 -132 1317 -133 1319 c 0,260,261
 -141 1329 -141 1329 -147 1335 c 0,262,263
 -188 1376 -188 1376 -234 1353 c 1,264,265
 -265 1335 -265 1335 -267 1301 c 1,266,267
 -267 1250 -267 1250 -193 1196 c 0,268,269
 -191 1194 -191 1194 -189 1192 c 1,270,-1
 -208 1189 l 1,271,-1
 -184 1169 l 1,272,-1
 -203 1166 l 1,273,-1
 -178 1146 l 1,274,-1
 -226 1143 l 1,275,-1
 -247 1141 l 1,276,-1
 -252 1114 l 1,235,236
EndSplineSet
AlternateSubs2: "gsub_alternate_dfl_aalt_arab_FAR_Lookup_01_Subtable_01" uniFE8A uniFE8B uniFE89 uniFE8C
Substitution2: "gsub_single_rtl_fina_arab_FAR_Lookup_01_Subtable_01" uniFE8A
Substitution2: "gsub_single_rtl_init_arab_FAR_Lookup_01_Subtable_01" uniFE8B
Substitution2: "gsub_single_rtl_medi_arab_FAR_Lookup_01_Subtable_01" uniFE8C
EndChar

StartChar: uniFE8A
Encoding: 65162 65162 346
Width: 1471
VWidth: 1639
GlyphClass: 2
Flags: W
LayerCount: 2
Fore
SplineSet
789 28 m 1,0,1
 719 87 719 87 628 131 c 1,2,3
 521 180 521 180 512 185 c 0,4,5
 504 190 504 190 499 194 c 0,6,7
 490 200 490 200 468 207 c 0,8,9
 429 222 429 222 418 236 c 0,10,11
 413 244 413 244 408 264 c 0,12,13
 398 312 398 312 405 336 c 0,14,15
 414 365 414 365 431 423 c 0,16,17
 448 482 448 482 457 510 c 0,18,19
 493 631 493 631 499 649 c 0,20,21
 511 697 511 697 523 707 c 0,22,23
 531 712 531 712 541 713.5 c 128,-1,24
 551 715 551 715 571 714 c 2,25,-1
 591 713 l 1,26,-1
 748 713 l 1,27,-1
 1335 713 l 1,28,-1
 1346 667 l 1,29,30
 1287 667 1287 667 1167 667 c 0,31,32
 1047 666 1047 666 988 666 c 2,33,-1
 828 666 l 1,34,35
 805 668 805 668 652 667 c 0,36,37
 647 667 647 667 634 668 c 0,38,39
 591 670 591 670 577 661 c 1,40,41
 563 650 563 650 554 605 c 0,42,43
 548 583 548 583 534 540 c 0,44,45
 520 496 520 496 514 474 c 0,46,47
 477 348 477 348 471 328 c 0,48,49
 468 320 468 320 460 292 c 0,50,51
 457 277 l 1,52,53
 458 274 458 274 463 270.5 c 128,-1,54
 468 267 468 267 477 264 c 2,55,-1
 485 261 l 2,56,57
 524 245 524 245 570 223 c 0,58,59
 699 160 699 160 766 115 c 0,60,61
 833 71 833 71 857 43 c 1,62,-1
 847 36 l 1,63,-1
 863 20 l 1,64,-1
 852 13 l 1,65,-1
 868 -3 l 1,66,67
 802 -46 802 -46 664 -46 c 0,68,69
 488 -46 488 -46 391 17 c 0,70,71
 362 36 362 36 338 59 c 0,72,73
 313 83 313 83 281 126 c 1,74,75
 257 163 257 163 235 215 c 1,76,77
 192 327 192 327 185 456 c 0,78,79
 185 470 185 470 186 498 c 0,80,81
 186 526 186 526 186 540 c 0,82,83
 186 577 186 577 178 594 c 1,84,85
 152 587 152 587 127 556 c 0,86,87
 86 509 86 509 62 397 c 1,88,89
 31 267 31 267 30 131 c 0,90,91
 30 45 30 45 39 7 c 0,92,93
 70 -122 70 -122 166 -231 c 0,94,95
 329 -417 329 -417 580 -417 c 0,96,97
 615 -417 615 -417 648 -413 c 0,98,99
 892 -388 892 -388 1038 -257 c 1,100,101
 1144 -159 1144 -159 1156 -30 c 0,102,103
 1160 26 1160 26 1138 123 c 1,104,-1
 1162 112 l 1,105,-1
 1159 123 l 1,106,-1
 1183 112 l 1,107,-1
 1180 123 l 1,108,109
 1203 116 1203 116 1250 73 c 0,110,111
 1279 47 1279 47 1298 38 c 0,112,113
 1332 23 1332 23 1390 23 c 2,114,-1
 1495 23 l 1,115,-1
 1515 -66 l 1,116,117
 1503 -66 1503 -66 1478 -67 c 0,118,119
 1401 -70 1401 -70 1365 -57 c 0,120,121
 1358 -54 1358 -54 1320 -30 c 0,122,123
 1310 -24 1310 -24 1304 -21 c 0,124,125
 1296 -18 1296 -18 1281 -13 c 0,126,127
 1253 -3 1253 -3 1239 7 c 1,128,129
 1254 -62 1254 -62 1251 -118 c 0,130,131
 1238 -291 1238 -291 1054 -405 c 0,132,133
 919 -488 919 -488 703 -505 c 0,134,135
 579 -513 579 -513 484 -489 c 0,136,137
 441 -477 441 -477 342 -426 c 0,138,139
 197 -354 197 -354 121 -266 c 0,140,141
 116 -260 116 -260 113 -256 c 0,142,143
 -69 -23 -69 -23 -7 364 c 0,144,145
 14 503 14 503 52 572 c 1,146,147
 94 643 94 643 165 645 c 1,148,149
 205 642 205 642 209 640 c 1,150,151
 223 621 223 621 234 556 c 1,152,153
 255 555 255 555 259 553 c 0,154,155
 268 546 268 546 272 528 c 0,156,157
 279 498 279 498 282 469 c 0,158,159
 283 451 283 451 283 414 c 0,160,161
 285 260 285 260 315 182 c 0,162,163
 320 169 320 169 326 157 c 0,164,165
 349 114 349 114 425 64 c 0,166,167
 581 -36 581 -36 789 28 c 1,0,1
-235 1009 m 1,168,169
 -236 1014 -236 1014 -255 1055 c 1,170,171
 -283 1136 -283 1136 -275 1174 c 0,172,173
 -261 1236 -261 1236 -133 1220 c 0,174,175
 -95 1216 -95 1216 -72 1194 c 0,176,177
 -56 1178 -56 1178 -42 1143 c 1,178,179
 -37 1123 -37 1123 -35 1120 c 0,180,181
 -31 1113 -31 1113 -19 1102 c 0,182,183
 -5 1088 -5 1088 0 1079 c 0,184,185
 12 1056 12 1056 17 1007 c 0,186,187
 20 991 20 991 28 960 c 0,188,189
 34 939 34 939 37 928 c 1,190,191
 54 931 54 931 60 928 c 0,192,193
 71 920 71 920 75 900 c 0,194,195
 84 854 84 854 75 841 c 0,196,197
 31 791 31 791 -103 818 c 0,198,199
 -136 825 -136 825 -154 838 c 0,200,201
 -169 849 -169 849 -170 858 c 1,202,203
 -182 858 -182 858 -203 864 c 0,204,205
 -242 878 -242 878 -252 891 c 0,206,207
 -255 895 -255 895 -255 900 c 0,208,209
 -255 905 -255 905 -256 909 c 0,210,211
 -266 938 -266 938 -258 1003 c 0,212,213
 -257 1011 -257 1011 -257 1017 c 1,214,-1
 -235 1009 l 1,168,169
-208 927 m 1,215,216
 -125 883 -125 883 -48 912 c 1,217,218
 -5 930 -5 930 -14 956 c 0,219,220
 -16 960 -16 960 -17 963 c 0,221,222
 -22 969 -22 969 -49 968 c 0,223,224
 -106 968 -106 968 -122 987 c 0,225,226
 -127 994 -127 994 -129 1000 c 0,227,228
 -152 1064 -152 1064 -140 1086 c 1,229,230
 -129 1097 -129 1097 -100 1097 c 0,231,232
 -82 1098 -82 1098 -80 1099 c 0,233,234
 -77 1104 -77 1104 -83 1118 c 2,235,-1
 -84 1120 l 2,236,237
 -85 1122 -85 1122 -87 1126 c 0,238,239
 -89 1130 -89 1130 -90 1132 c 0,240,241
 -98 1142 -98 1142 -104 1148 c 0,242,243
 -145 1189 -145 1189 -191 1166 c 1,244,245
 -222 1148 -222 1148 -224 1114 c 1,246,247
 -224 1063 -224 1063 -150 1009 c 0,248,249
 -147 1007 -147 1007 -146 1005 c 2,250,-1
 -165 1002 l 1,251,-1
 -140 982 l 1,252,-1
 -160 979 l 1,253,-1
 -135 959 l 1,254,-1
 -183 956 l 1,255,-1
 -204 954 l 1,256,-1
 -208 927 l 1,215,216
EndSplineSet
EndChar

StartChar: uniFE8B
Encoding: 65163 65163 347
Width: 622
VWidth: 1639
GlyphClass: 2
Flags: W
LayerCount: 2
Fore
SplineSet
-205 1330 m 1,0,1
 -205 1333 -205 1333 -220 1366 c 0,2,3
 -222 1370 -222 1370 -222 1373 c 0,4,5
 -254 1466 -254 1466 -243 1502 c 1,6,7
 -215 1543 -215 1543 -137 1543 c 0,8,9
 -96 1543 -96 1543 -84 1540 c 0,10,11
 -54 1530 -54 1530 -38 1512 c 0,12,13
 -21 1493 -21 1493 -12 1466 c 1,14,15
 -7 1446 -7 1446 -5 1443 c 0,16,17
 -2 1438 -2 1438 19 1417 c 0,18,19
 27 1408 27 1408 30 1401 c 0,20,21
 38 1382 38 1382 49 1328 c 0,22,23
 52 1312 52 1312 60 1281 c 0,24,25
 66 1260 66 1260 68 1250 c 1,26,27
 94 1264 94 1264 107 1222 c 0,28,29
 118 1185 118 1185 107 1166 c 1,30,31
 90 1146 90 1146 57 1140 c 0,32,33
 -6 1125 -6 1125 -73 1140 c 0,34,35
 -139 1154 -139 1154 -140 1179 c 1,36,37
 -205 1195 -205 1195 -220 1212 c 1,38,39
 -223 1212 -223 1212 -224 1222 c 2,40,-1
 -225 1232 l 1,41,42
 -235 1258 -235 1258 -228 1315 c 0,43,44
 -227 1329 -227 1329 -227 1338 c 1,45,-1
 -205 1330 l 1,0,1
-49 1419 m 1,46,47
 -43 1448 -43 1448 -83 1478 c 0,48,49
 -91 1483 -91 1483 -96 1486 c 0,50,51
 -142 1509 -142 1509 -177 1479 c 1,52,53
 -201 1456 -201 1456 -191 1420 c 0,54,55
 -184 1399 -184 1399 -166 1374 c 0,56,57
 -151 1354 -151 1354 -117 1328 c 2,58,-1
 -116 1327 l 1,59,-1
 -133 1323 l 1,60,-1
 -110 1304 l 1,61,-1
 -128 1301 l 1,62,-1
 -105 1281 l 1,63,64
 -142 1273 -142 1273 -175 1279 c 1,65,-1
 -177 1248 l 1,66,67
 -93 1206 -93 1206 -18 1233 c 1,68,69
 25 1255 25 1255 15 1282 c 1,70,71
 11 1289 11 1289 -9 1289 c 0,72,73
 -61 1290 -61 1290 -77 1297 c 1,74,75
 -100 1318 -100 1318 -110 1369 c 0,76,77
 -115 1395 -115 1395 -111 1405 c 0,78,79
 -97 1430 -97 1430 -49 1419 c 1,46,47
41 715 m 1,80,81
 29 741 29 741 -26 820 c 0,82,83
 -29 824 -29 824 -37 833 c 0,84,85
 -53 853 -53 853 -56 863 c 0,86,87
 -71 911 -71 911 -68 927 c 0,88,89
 -66 941 -66 941 -38 981 c 0,90,91
 -36 984 -36 984 -36 986 c 0,92,93
 -20 1014 -20 1014 13 1064 c 0,94,95
 15 1068 15 1068 21 1078 c 0,96,97
 37 1107 37 1107 49 1114 c 0,98,99
 53 1116 53 1116 61 1115 c 0,100,101
 68 1115 68 1115 70 1115 c 0,102,103
 106 1114 106 1114 112 1112 c 0,104,105
 134 1100 134 1100 158 1068 c 1,106,107
 177 1044 177 1044 241 935 c 0,108,109
 243 931 243 931 245 928 c 0,110,111
 291 852 291 852 344 689 c 0,112,113
 377 586 377 586 446 277 c 0,114,115
 453 246 453 246 458 221 c 2,116,-1
 503 28 l 2,117,118
 516 -29 516 -29 512 -43 c 0,119,120
 510 -48 510 -48 509 -51 c 0,121,122
 496 -67 496 -67 461 -67 c 2,123,-1
 374 -67 l 2,124,125
 335 -67 335 -67 257 -68 c 0,126,127
 76 -70 76 -70 -14 -66 c 1,128,-1
 -34 21 l 1,129,-1
 289 21 l 2,130,131
 297 21 297 21 316 20 c 0,132,133
 391 16 391 16 410 34 c 1,134,135
 422 57 422 57 409 110 c 2,136,-1
 368 290 l 2,137,138
 292 618 292 618 285 642 c 0,139,140
 270 699 270 699 254 748 c 0,141,142
 202 906 202 906 150 987 c 1,143,144
 129 1017 129 1017 93 1058 c 1,145,-1
 91 1058 l 1,146,147
 81 1034 81 1034 26 951 c 0,148,149
 21 943 21 943 17 936 c 0,150,151
 -6 903 -6 903 -7 901 c 0,152,153
 -9 894 -9 894 -9 889 c 0,154,155
 -8 883 -8 883 19 847 c 0,156,157
 22 842 22 842 24 840 c 0,158,159
 78 757 78 757 88 720 c 1,160,161
 98 679 98 679 97 674 c 0,162,163
 96 671 96 671 95 671 c 0,164,165
 90 667 90 667 75 667 c 2,166,-1
 23 667 l 1,167,-1
 -183 667 l 1,168,-1
 -194 713 l 1,169,-1
 -40 713 l 1,170,-1
 41 715 l 1,80,81
EndSplineSet
EndChar

StartChar: uniFE8C
Encoding: 65164 65164 348
Width: 683
VWidth: 1639
GlyphClass: 2
Flags: W
LayerCount: 2
Fore
SplineSet
-116 1194 m 1,0,1
 -117 1201 -117 1201 -133 1238 c 1,2,3
 -169 1350 -169 1350 -144 1384 c 1,4,5
 -123 1407 -123 1407 -63 1407 c 0,6,7
 8 1407 8 1407 34 1391 c 0,8,9
 52 1378 52 1378 64 1360 c 0,10,11
 69 1352 69 1352 76 1333 c 1,12,-1
 83 1304 l 1,13,14
 124 1286 124 1286 136 1204 c 0,15,16
 137 1195 137 1195 138 1194 c 0,17,18
 141 1178 141 1178 149 1145 c 0,19,20
 155 1123 155 1123 158 1114 c 1,21,22
 186 1125 186 1125 198 1082 c 0,23,24
 208 1046 208 1046 196 1028 c 1,25,26
 181 1011 181 1011 147 1002 c 1,27,28
 82 989 82 989 17 1004 c 0,29,30
 -45 1017 -45 1017 -50 1043 c 1,31,32
 -111 1056 -111 1056 -126 1070 c 0,33,34
 -129 1073 -129 1073 -131 1075.5 c 128,-1,35
 -133 1078 -133 1078 -134 1090 c 0,36,37
 -134 1092 -134 1092 -135 1094 c 0,38,39
 -149 1137 -149 1137 -136 1202 c 1,40,-1
 -116 1194 l 1,0,1
42 1282 m 1,41,42
 42 1325 42 1325 -8 1351 c 0,43,44
 -23 1358 -23 1358 -35 1360 c 0,45,46
 -80 1365 -80 1365 -97 1326 c 0,47,48
 -100 1320 -100 1320 -101 1315 c 0,49,50
 -104 1298 -104 1298 -101 1284 c 1,51,52
 -89 1255 -89 1255 -71 1232 c 0,53,54
 -50 1205 -50 1205 -25 1192 c 1,55,-1
 -44 1187 l 1,56,-1
 -20 1169 l 1,57,-1
 -39 1164 l 1,58,-1
 -15 1146 l 1,59,60
 -28 1140 -28 1140 -85 1141 c 1,61,-1
 -88 1112 l 1,62,63
 -2 1070 -2 1070 71 1097 c 1,64,65
 114 1116 114 1116 106 1142 c 0,66,67
 105 1145 105 1145 104 1146 c 0,68,69
 100 1153 100 1153 80 1153 c 0,70,71
 27 1154 27 1154 12 1161 c 1,72,73
 -11 1176 -11 1176 -19 1230 c 0,74,75
 -25 1260 -25 1260 -19 1271 c 1,76,77
 -5 1289 -5 1289 42 1282 c 1,41,42
-194 713 m 1,78,-1
 -40 713 l 1,79,80
 40 715 40 715 68 736 c 0,81,82
 93 757 93 757 106 831 c 0,83,84
 108 844 108 844 110 851 c 0,85,86
 120 896 120 896 135 909 c 1,87,88
 148 916 148 916 199 915 c 1,89,90
 229 911 229 911 253 871 c 0,91,92
 260 860 260 860 272 837 c 0,93,94
 308 772 308 772 335 749 c 0,95,96
 387 707 387 707 498 712 c 0,97,98
 538 714 538 714 547 713 c 1,99,-1
 558 667 l 1,100,-1
 433 667 l 2,101,102
 350 668 350 668 310 697 c 0,103,104
 277 720 277 720 234 801 c 0,105,106
 228 812 228 812 224 818 c 0,107,108
 202 856 202 856 189 859 c 1,109,110
 176 856 176 856 165 812 c 1,111,112
 150 731 150 731 139 711 c 0,113,114
 129 695 129 695 118 686 c 1,115,116
 87 668 87 668 6 667 c 2,117,-1
 -183 667 l 1,118,-1
 -194 713 l 1,78,-1
322 177 m 1,119,-1
 339 149 l 1,120,-1
 345 177 l 1,121,-1
 360 149 l 1,122,-1
 366 177 l 1,123,124
 397 126 397 126 413 108 c 1,125,126
 439 81 439 81 459 67 c 0,127,128
 525 17 525 17 637 21 c 0,129,130
 645 21 645 21 662 22 c 0,131,132
 692 23 692 23 707 23 c 1,133,-1
 728 -67 l 1,134,135
 716 -67 716 -67 692 -68 c 0,136,137
 615 -71 615 -71 578 -59 c 0,138,139
 572 -57 572 -57 521 -28 c 0,140,141
 512 -23 512 -23 505 -20 c 0,142,143
 433 14 433 14 406 36 c 1,144,145
 392 -28 392 -28 324 -57 c 0,146,147
 316 -60 316 -60 309 -62 c 0,148,149
 284 -68 284 -68 195 -67 c 0,150,151
 160 -67 160 -67 91 -66 c 0,152,153
 21 -65 21 -65 -14 -66 c 1,154,-1
 -34 21 l 1,155,-1
 122 21 l 2,156,157
 204 22 204 22 233 34 c 1,158,159
 280 58 280 58 307 115 c 0,160,161
 322 148 322 148 322 177 c 1,119,-1
EndSplineSet
EndChar

StartChar: alefarabic
Encoding: 1575 1575 349
AltUni2: 00fe8d.ffffffff.0
Width: 712
VWidth: 1639
GlyphClass: 2
Flags: HW
AnchorPoint: "GposMark2BaseAnchorClassErabAbove_01_02" 99.5 1711 basechar 0
AnchorPoint: "GposMark2BaseAnchorClassErabBelow_01_02" 99.5 -213 basechar 0
LayerCount: 2
Fore
SplineSet
190 -13 m 1,0,1
 180 -23 180 -23 173 -18 c 1,2,3
 169 -13 169 -13 166 -1 c 0,4,5
 166 1 166 1 165 3 c 0,6,7
 161 13 161 13 156 33 c 0,8,9
 150 53 150 53 147 62 c 0,10,11
 126 125 126 125 74 317 c 0,12,13
 -16 646 -16 646 -136 1055 c 0,14,15
 -180 1206 -180 1206 -199 1274 c 0,16,17
 -224 1368 -224 1368 -221 1399 c 0,18,19
 -218 1445 -218 1445 -162 1473 c 0,20,21
 -157 1475 -157 1475 -151 1478 c 0,22,23
 -129 1488 -129 1488 -86 1509 c 0,24,25
 -24 1539 -24 1539 7 1553 c 1,26,27
 30 1561 30 1561 70 1561 c 0,28,29
 95 1560 95 1560 106 1553 c 0,30,31
 119 1541 119 1541 138 1496 c 0,32,33
 144 1482 144 1482 148 1474 c 0,34,35
 151 1469 151 1469 161 1460 c 0,36,37
 172 1449 172 1449 176 1443 c 0,38,39
 178 1439 178 1439 206 1369 c 0,40,41
 246 1273 246 1273 265 1227 c 0,42,43
 297 1149 297 1149 309 1122 c 1,44,45
 323 1085 323 1085 321 1071 c 1,46,47
 317 1059 317 1059 301 1050 c 1,48,49
 264 1020 264 1020 259 1005 c 0,50,51
 256 993 256 993 258 981 c 0,52,53
 276 895 276 895 316 723 c 0,54,55
 367 507 367 507 387 400 c 0,56,57
 422 217 422 217 423 154 c 0,58,59
 423 149 423 149 423 146 c 0,60,61
 422 113 422 113 388 76 c 0,62,63
 384 72 384 72 383 71 c 2,64,-1
 307 -18 l 2,65,66
 302 -24 302 -24 292 -36 c 0,67,68
 282 -49 282 -49 277 -54 c 1,69,70
 264 -63 264 -63 261 -62 c 0,71,72
 254 -59 254 -59 251 -48 c 0,73,74
 247 -32 247 -32 239 -7 c 1,75,76
 223 -26 223 -26 211 -13 c 1,77,78
 199 -22 199 -22 190 -13 c 1,0,1
195 52 m 1,79,80
 206 58 206 58 240 103 c 0,81,82
 244 107 244 107 245 110 c 0,83,84
 253 119 253 119 269.5 138 c 128,-1,85
 286 157 286 157 294 166 c 0,86,87
 321 198 321 198 321 200 c 0,88,89
 322 203 322 203 323 203 c 0,90,91
 330 225 330 225 326 267 c 1,92,93
 325 302 325 302 302 433 c 1,94,95
 273 611 273 611 215 850 c 0,96,97
 209 875 209 875 196 927 c 0,98,99
 183 979 183 979 178 1004 c 2,100,-1
 161 1076 l 1,101,102
 159 1102 159 1102 192 1127 c 0,103,104
 200 1134 200 1134 204 1137 c 0,105,106
 224 1154 224 1154 225 1158 c 0,107,108
 225 1164 225 1164 216 1182 c 0,109,110
 212 1191 212 1191 205 1209 c 0,111,112
 198 1227 198 1227 195 1235 c 0,113,114
 182 1267 182 1267 155 1332 c 0,115,116
 128 1397 128 1397 115 1428 c 0,117,118
 92 1489 92 1489 81 1500 c 0,119,120
 76 1505 76 1505 72 1507 c 0,121,122
 67 1508 67 1508 51 1502 c 2,123,-1
 -0 1478 l 1,124,-1
 -94 1433 l 2,125,126
 -161 1401 -161 1401 -169 1361 c 0,127,128
 -171 1345 -171 1345 -169 1328 c 0,129,130
 -165 1305 -165 1305 -135 1210 c 0,131,132
 -124 1173 -124 1173 -104 1100 c 0,133,134
 -83 1026 -83 1026 -72 989 c 0,135,136
 -43 889 -43 889 13 689 c 0,137,138
 69 488 69 488 99 389 c 0,139,140
 179 121 179 121 195 52 c 1,79,80
EndSplineSet
AlternateSubs2: "gsub_alternate_dfl_aalt_arab_FAR_Lookup_01_Subtable_01" uniFE8E alefarabic
Substitution2: "gsub_single_rtl_fina_arab_FAR_Lookup_01_Subtable_01" uniFE8E
EndChar

StartChar: uniFE8E
Encoding: 65166 65166 350
Width: 614
VWidth: 1639
GlyphClass: 2
Flags: HW
AnchorPoint: "GposMark2BaseAnchorClassErabAbove_01_02" 213 1721 basechar 0
AnchorPoint: "GposMark2BaseAnchorClassErabBelow_01_02" 213 -220 basechar 0
LayerCount: 2
Fore
SplineSet
659 -67 m 1,0,-1
 426 -67 l 2,1,2
 415 -67 415 -67 393 -68 c 0,3,4
 329 -70 329 -70 298 -62 c 0,5,6
 285 -58 285 -58 238 -30 c 0,7,8
 229 -25 229 -25 222 -21 c 0,9,10
 214 -17 214 -17 198 -12 c 0,11,12
 159 4 159 4 140 20 c 0,13,14
 78 74 78 74 49 197 c 0,15,16
 47 206 47 206 45 216 c 2,17,-1
 14 351 l 1,18,-1
 -166 1128 l 1,19,-1
 -215 1340 l 2,20,21
 -233 1416 -233 1416 -230 1434 c 0,22,23
 -229 1440 -229 1440 -228 1445 c 0,24,25
 -222 1469 -222 1469 -179 1489 c 0,26,27
 -175 1491 -175 1491 -172 1492 c 0,28,29
 -67 1548 -67 1548 -20 1566 c 0,30,31
 -5 1571 -5 1571 34 1571 c 0,32,33
 54 1570 54 1570 58 1568 c 0,34,35
 78 1551 78 1551 91 1483 c 1,36,37
 114 1488 114 1488 128 1453 c 0,38,39
 130 1448 130 1448 130 1445 c 0,40,41
 137 1423 137 1423 163 1307 c 2,42,-1
 301 713 l 1,43,-1
 479 713 l 1,44,-1
 490 667 l 1,45,-1
 317 667 l 2,46,47
 266 667 266 667 263 668 c 0,48,49
 253 671 253 671 247 676 c 0,50,51
 231 690 231 690 221 736 c 2,52,-1
 184 894 l 1,53,-1
 91 1297 l 2,54,55
 87 1315 87 1315 80 1352 c 0,56,57
 56 1467 56 1467 31 1519 c 1,58,59
 -16 1501 -16 1501 -120 1445 c 0,60,61
 -164 1423 -164 1423 -172 1407 c 0,62,63
 -175 1401 -175 1401 -176 1396 c 0,64,65
 -180 1368 -180 1368 -161 1294 c 2,66,-1
 -116 1099 l 1,67,-1
 50 379 l 2,68,69
 54 361 54 361 62 323 c 0,70,71
 92 174 92 174 133 112 c 0,72,73
 151 86 151 86 172 67 c 0,74,75
 223 22 223 22 318 21 c 0,76,77
 324 21 324 21 340 21 c 0,78,79
 390 21 390 21 489 22 c 0,80,81
 589 23 589 23 638 23 c 1,82,-1
 659 -67 l 1,0,-1
EndSplineSet
EndChar

StartChar: afii57416
Encoding: 1576 1576 351
AltUni2: 00fe8f.ffffffff.0
Width: 1785
VWidth: 1639
GlyphClass: 2
Flags: HW
AnchorPoint: "GposMark2BaseAnchorClassErabAbove_01_02" 747.5 1266 basechar 0
AnchorPoint: "GposMark2BaseAnchorClassErabBelow_01_02" 747.5 -710 basechar 0
LayerCount: 2
Fore
SplineSet
1174 715 m 1,0,1
 1162 741 1162 741 1107 820 c 0,2,3
 1104 824 1104 824 1098 831 c 0,4,5
 1085 846 1085 846 1081 854 c 0,6,7
 1071 875 1071 875 1065 917 c 0,8,9
 1063 936 1063 936 1091 976 c 0,10,11
 1095 981 1095 981 1097 984 c 0,12,13
 1105 997 1105 997 1122 1024 c 0,14,15
 1139 1052 1139 1052 1147 1064 c 0,16,17
 1149 1068 1149 1068 1154 1078 c 0,18,19
 1170 1107 1170 1107 1183 1114 c 0,20,21
 1187 1116 1187 1116 1195 1115 c 0,22,23
 1202 1115 1202 1115 1204 1115 c 0,24,25
 1242 1114 1242 1114 1251 1109 c 0,26,27
 1288 1085 1288 1085 1330 1006 c 0,28,29
 1347 975 1347 975 1357 961 c 0,30,31
 1424 862 1424 862 1478 689 c 0,32,33
 1510 588 1510 588 1577 287 c 0,34,35
 1584 257 1584 257 1589 233 c 2,36,-1
 1633 41 l 2,37,38
 1634 35 1634 35 1639 21 c 0,39,40
 1651 -25 1651 -25 1646 -43 c 0,41,42
 1635 -72 1635 -72 1561 -68 c 0,43,44
 1547 -67 1547 -67 1541 -67 c 2,45,-1
 1227 -67 l 1,46,-1
 967 -67 l 1,47,-1
 705 -67 l 2,48,49
 552 -67 552 -67 487 -56 c 1,50,51
 401 -38 401 -38 278 25 c 1,52,53
 217 53 217 53 193 67 c 0,54,55
 61 152 61 152 -23 285 c 0,56,57
 -156 499 -156 499 -137 763 c 0,58,59
 -131 837 -131 837 -114 902 c 1,60,61
 -80 1016 -80 1016 -34 1058 c 1,62,63
 -22 1066 -22 1066 15 1064 c 1,64,65
 35 1061 35 1061 36 1061 c 0,66,67
 41 1053 41 1053 45 1033 c 2,68,-1
 60 969 l 1,69,70
 85 981 85 981 94 963 c 1,71,72
 99 948 99 948 108 870 c 0,73,74
 114 828 114 828 128 802 c 0,75,76
 134 793 134 793 155 774 c 0,77,78
 202 736 202 736 273 722 c 1,79,80
 330 713 330 713 474 713 c 2,81,-1
 793 713 l 1,82,-1
 1046 713 l 2,83,84
 1059 713 1059 713 1085 712 c 0,85,86
 1147 709 1147 709 1174 715 c 1,0,1
1226 1058 m 1,87,88
 1218 1050 1218 1050 1200 1018 c 0,89,90
 1191 1004 1191 1004 1174 977 c 0,91,92
 1156 949 1156 949 1148 935 c 0,93,94
 1126 903 1126 903 1125 901 c 0,95,96
 1122 894 1122 894 1123 889 c 0,97,98
 1124 883 1124 883 1154 844 c 0,99,100
 1156 842 1156 842 1158 840 c 0,101,102
 1211 760 1211 760 1221 722 c 1,103,104
 1231 680 1231 680 1228 673 c 0,105,106
 1227 670 1227 670 1224 669 c 0,107,108
 1219 667 1219 667 1196 667 c 2,109,-1
 1127 667 l 1,110,-1
 877 667 l 1,111,-1
 371 667 l 2,112,113
 230 667 230 667 159 705 c 0,114,115
 129 722 129 722 104 745 c 0,116,117
 32 814 32 814 11 984 c 0,118,119
 10 991 10 991 9 999 c 1,120,121
 -3 990 -3 990 -22 953 c 0,122,123
 -57 890 -57 890 -71 805 c 0,124,125
 -99 637 -99 637 -75 530 c 0,126,127
 -33 347 -33 347 108 206 c 0,128,129
 129 186 129 186 149 169 c 0,130,131
 297 44 297 44 495 25 c 0,132,133
 530 22 530 22 683 21 c 2,134,-1
 1212 21 l 1,135,-1
 1456 21 l 2,136,137
 1518 21 1518 21 1525 23 c 0,138,139
 1540 28 1540 28 1547 38 c 1,140,141
 1555 54 1555 54 1547 90 c 2,142,-1
 1527 177 l 1,143,-1
 1439 558 l 2,144,145
 1389 773 1389 773 1328 905 c 0,146,147
 1280 1009 1280 1009 1226 1058 c 1,87,88
873 -102 m 0,148,149
 893 -93 893 -93 928 -100 c 0,150,151
 932 -101 932 -101 934 -102 c 0,152,153
 942 -106 942 -106 974 -134 c 2,154,-1
 1052 -202 l 1,155,-1
 1107 -249 l 2,156,157
 1130 -270 1130 -270 1132 -274 c 0,158,159
 1134 -277 1134 -277 1141 -311 c 0,160,161
 1143 -320 1143 -320 1148 -326 c 0,162,163
 1153 -332 1153 -332 1165 -343 c 0,164,165
 1188 -364 1188 -364 1189 -379 c 0,166,167
 1188 -388 1188 -388 1169 -413 c 2,168,-1
 1120 -484 l 2,169,170
 1114 -492 1114 -492 1103 -508 c 0,171,172
 1092 -525 1092 -525 1087 -533 c 0,173,174
 1073 -552 1073 -552 1068 -554 c 0,175,176
 1054 -560 1054 -560 1020 -528 c 0,177,178
 1011 -520 1011 -520 1007 -517 c 0,179,180
 1001 -513 1001 -513 978 -512 c 0,181,182
 972 -512 972 -512 967 -510 c 0,183,184
 954 -504 954 -504 908 -462 c 0,185,186
 900 -455 900 -455 896 -451 c 0,187,188
 864 -425 864 -425 805 -374 c 0,189,190
 771 -345 771 -345 770 -343 c 0,191,192
 767 -339 767 -339 766 -338 c 0,193,194
 764 -335 764 -335 763 -331.5 c 128,-1,195
 762 -328 762 -328 760.5 -324.5 c 128,-1,196
 759 -321 759 -321 758.5 -316.5 c 128,-1,197
 758 -312 758 -312 758 -310 c 128,-1,198
 758 -308 758 -308 757 -302 c 2,199,-1
 756 -295 l 1,200,-1
 751 -272 l 1,201,202
 753 -265 753 -265 772 -239 c 2,203,-1
 818 -174 l 1,204,-1
 854 -123 l 2,205,206
 868 -105 868 -105 873 -102 c 0,148,149
1086 -305 m 1,207,-1
 961 -197 l 2,208,209
 959 -195 959 -195 951 -188 c 0,210,211
 924 -163 924 -163 916 -161 c 1,212,213
 908 -164 908 -164 889 -195 c 0,214,215
 881 -206 881 -206 863 -229 c 0,216,217
 824 -279 824 -279 812 -307 c 1,218,219
 833 -325 833 -325 876 -361 c 0,220,221
 919 -398 919 -398 939 -415 c 0,222,223
 941 -417 941 -417 949 -424 c 0,224,225
 976 -451 976 -451 984 -451 c 1,226,227
 992 -449 992 -449 1012 -415 c 0,228,229
 1025 -397 1025 -397 1050 -361 c 0,230,231
 1075 -324 1075 -324 1087 -307 c 1,232,-1
 1086 -305 l 1,207,-1
EndSplineSet
AlternateSubs2: "gsub_alternate_dfl_aalt_arab_FAR_Lookup_01_Subtable_01" uniFE90 uniFE91 afii57416 uniFE92
Substitution2: "gsub_single_rtl_fina_arab_FAR_Lookup_01_Subtable_01" uniFE90
Substitution2: "gsub_single_rtl_init_arab_FAR_Lookup_01_Subtable_01" uniFE91
Substitution2: "gsub_single_rtl_medi_arab_FAR_Lookup_01_Subtable_01" uniFE92
EndChar

StartChar: uniFE90
Encoding: 65168 65168 352
Width: 1790
VWidth: 1639
GlyphClass: 2
Flags: HW
AnchorPoint: "GposMark2BaseAnchorClassErabAbove_01_02" 831 1266 basechar 0
AnchorPoint: "GposMark2BaseAnchorClassErabBelow_01_02" 831 -710 basechar 0
LayerCount: 2
Fore
SplineSet
1169 715 m 1,0,1
 1157 741 1157 741 1102 820 c 0,2,3
 1099 824 1099 824 1092 834 c 0,4,5
 1077 852 1077 852 1073 861 c 0,6,7
 1059 906 1059 906 1060 925 c 1,8,9
 1064 942 1064 942 1083 969 c 1,10,11
 1102 1003 1102 1003 1142 1064 c 1,12,13
 1165 1107 1165 1107 1180 1114 c 0,14,15
 1186 1116 1186 1116 1217 1115 c 0,16,17
 1220 1114 1220 1114 1226 1115 c 0,18,19
 1236 1114 1236 1114 1241 1112 c 0,20,21
 1279 1093 1279 1093 1333 995 c 0,22,23
 1341 980 1341 980 1359 951 c 0,24,25
 1382 913 1382 913 1392 894 c 0,26,27
 1423 833 1423 833 1466 713 c 1,28,-1
 1655 713 l 1,29,-1
 1665 667 l 1,30,-1
 1409 667 l 1,31,32
 1344 885 1344 885 1279 987 c 0,33,34
 1274 995 1274 995 1270 1000 c 0,35,36
 1265 1007 1265 1007 1221 1058 c 1,37,-1
 1220 1058 l 1,38,39
 1212 1041 1212 1041 1159 957 c 0,40,41
 1152 946 1152 946 1147 938 c 0,42,43
 1145 934 1145 934 1137 925 c 0,44,45
 1120 902 1120 902 1120 891 c 1,46,47
 1121 883 1121 883 1152 841 c 1,48,49
 1206 758 1206 758 1217 720 c 1,50,51
 1227 678 1227 678 1224 672 c 0,52,53
 1222 670 1222 670 1221 669 c 0,54,55
 1216 666 1216 666 1193 667 c 2,56,-1
 1127 667 l 1,57,-1
 883 667 l 1,58,-1
 416 667 l 2,59,60
 281 667 281 667 251 672 c 0,61,62
 199 681 199 681 158 702 c 0,63,64
 25 771 25 771 6 979 c 0,65,66
 5 990 5 990 4 999 c 1,67,68
 -51 938 -51 938 -75 802 c 0,69,70
 -105 648 -105 648 -78 530 c 0,71,72
 -33 335 -33 335 129 187 c 0,73,74
 206 118 206 118 291 79 c 0,75,76
 411 23 411 23 610 21 c 0,77,78
 625 21 625 21 663 21 c 2,79,-1
 1055 21 l 1,80,-1
 1295 21 l 2,81,82
 1307 21 1307 21 1331 20 c 0,83,84
 1391 18 1391 18 1418 23 c 0,85,86
 1510 38 1510 38 1523 97 c 1,87,-1
 1524 97 l 1,88,-1
 1536 79 l 1,89,-1
 1539 79 l 1,90,-1
 1544 97 l 1,91,-1
 1546 97 l 1,92,-1
 1557 79 l 1,93,-1
 1560 79 l 1,94,-1
 1565 97 l 1,95,-1
 1567 97 l 1,96,97
 1614 20 1614 20 1739 21 c 0,98,99
 1752 21 1752 21 1778 22 c 0,100,101
 1803 23 1803 23 1814 23 c 1,102,-1
 1835 -67 l 1,103,104
 1740 -67 1740 -67 1714 -61 c 0,105,106
 1705 -59 1705 -59 1698 -56 c 0,107,108
 1691 -53 1691 -53 1649 -27 c 0,109,110
 1643 -24 1643 -24 1640 -21 c 0,111,112
 1636 -19 1636 -19 1610 -11 c 1,113,114
 1599 -57 1599 -57 1517 -66 c 0,115,116
 1501 -68 1501 -68 1403 -67 c 2,117,-1
 1199 -67 l 1,118,-1
 923 -67 l 1,119,-1
 694 -67 l 2,120,121
 560 -67 560 -67 508 -59 c 0,122,123
 412 -43 412 -43 278 25 c 0,124,125
 194 67 194 67 181 75 c 0,126,127
 67 149 67 149 -17 271 c 0,128,129
 -72 352 -72 352 -108 474 c 0,130,131
 -173 698 -173 698 -118 902 c 1,132,133
 -84 1016 -84 1016 -38 1058 c 1,134,135
 -26 1066 -26 1066 10 1064 c 1,136,137
 30 1061 30 1061 31 1061 c 0,138,139
 36 1053 36 1053 41 1033 c 2,140,-1
 55 969 l 1,141,142
 80 981 80 981 89 963 c 1,143,144
 94 948 94 948 103 870 c 0,145,146
 109 828 109 828 123 802 c 0,147,148
 129 793 129 793 151 774 c 0,149,150
 198 736 198 736 268 722 c 1,151,152
 325 713 325 713 470 713 c 2,153,-1
 789 713 l 1,154,-1
 1042 713 l 2,155,156
 1055 713 1055 713 1081 712 c 0,157,158
 1142 709 1142 709 1169 715 c 1,0,1
868 -102 m 0,159,160
 888 -93 888 -93 923 -100 c 0,161,162
 927 -101 927 -101 929 -102 c 0,163,164
 937 -106 937 -106 969 -134 c 2,165,-1
 1047 -202 l 1,166,-1
 1102 -249 l 2,167,168
 1125 -270 1125 -270 1128 -274 c 0,169,170
 1130 -277 1130 -277 1137 -311 c 0,171,172
 1139 -320 1139 -320 1143 -326 c 0,173,174
 1148 -332 1148 -332 1161 -343 c 0,175,176
 1184 -364 1184 -364 1184 -379 c 0,177,178
 1183 -388 1183 -388 1165 -413 c 2,179,-1
 1115 -484 l 2,180,181
 1109 -492 1109 -492 1099 -508 c 0,182,183
 1088 -525 1088 -525 1082 -533 c 0,184,185
 1068 -552 1068 -552 1063 -554 c 0,186,187
 1049 -560 1049 -560 1015 -528 c 0,188,189
 1006 -520 1006 -520 1002 -517 c 0,190,191
 996 -513 996 -513 974 -512 c 0,192,193
 968 -512 968 -512 963 -510 c 0,194,195
 950 -504 950 -504 904 -462 c 0,196,197
 896 -455 896 -455 891 -451 c 0,198,199
 859 -425 859 -425 800 -374 c 0,200,201
 766 -345 766 -345 765 -343 c 0,202,203
 762 -339 762 -339 761 -338 c 0,204,205
 759 -335 759 -335 758 -331.5 c 128,-1,206
 757 -328 757 -328 755.5 -324.5 c 128,-1,207
 754 -321 754 -321 754 -316.5 c 128,-1,208
 754 -312 754 -312 753.5 -310 c 128,-1,209
 753 -308 753 -308 752 -302 c 2,210,-1
 751 -295 l 1,211,-1
 746 -272 l 1,212,213
 748 -265 748 -265 768 -239 c 2,214,-1
 813 -174 l 1,215,-1
 849 -123 l 2,216,217
 863 -105 863 -105 868 -102 c 0,159,160
1082 -305 m 1,218,-1
 956 -197 l 2,219,220
 954 -195 954 -195 946 -188 c 0,221,222
 919 -163 919 -163 911 -161 c 1,223,224
 903 -164 903 -164 884 -195 c 0,225,226
 876 -206 876 -206 859 -229 c 0,227,228
 820 -279 820 -279 807 -307 c 1,229,230
 828 -325 828 -325 871 -361 c 0,231,232
 914 -398 914 -398 935 -415 c 0,233,234
 937 -417 937 -417 944 -424 c 0,235,236
 971 -451 971 -451 980 -451 c 1,237,238
 988 -449 988 -449 1008 -415 c 0,239,240
 1021 -397 1021 -397 1045 -361 c 0,241,242
 1070 -324 1070 -324 1082 -307 c 1,243,-1
 1082 -305 l 1,218,-1
EndSplineSet
EndChar

StartChar: uniFE91
Encoding: 65169 65169 353
Width: 676
VWidth: 1639
GlyphClass: 2
Flags: HW
AnchorPoint: "GposMark2BaseAnchorClassErabAbove_01_02" 213.5 1266 basechar 0
AnchorPoint: "GposMark2BaseAnchorClassErabBelow_01_02" 213.5 -709 basechar 0
LayerCount: 2
Fore
SplineSet
41 715 m 1,0,1
 29 741 29 741 -26 820 c 0,2,3
 -29 824 -29 824 -37 833 c 0,4,5
 -53 853 -53 853 -56 863 c 0,6,7
 -71 911 -71 911 -68 927 c 0,8,9
 -66 941 -66 941 -38 981 c 0,10,11
 -36 984 -36 984 -36 986 c 0,12,13
 -20 1014 -20 1014 13 1064 c 0,14,15
 15 1068 15 1068 21 1078 c 0,16,17
 37 1107 37 1107 49 1114 c 0,18,19
 53 1116 53 1116 61 1115 c 0,20,21
 68 1115 68 1115 70 1115 c 0,22,23
 106 1114 106 1114 112 1112 c 0,24,25
 134 1100 134 1100 158 1068 c 1,26,27
 177 1044 177 1044 241 935 c 0,28,29
 243 931 243 931 245 928 c 0,30,31
 291 852 291 852 344 689 c 0,32,33
 377 586 377 586 446 277 c 0,34,35
 453 246 453 246 458 221 c 2,36,-1
 503 28 l 2,37,38
 516 -29 516 -29 512 -43 c 0,39,40
 510 -48 510 -48 509 -51 c 0,41,42
 496 -67 496 -67 461 -67 c 2,43,-1
 374 -67 l 2,44,45
 335 -67 335 -67 257 -68 c 0,46,47
 76 -70 76 -70 -14 -66 c 1,48,-1
 -34 21 l 1,49,-1
 289 21 l 2,50,51
 297 21 297 21 316 20 c 0,52,53
 391 16 391 16 410 34 c 1,54,55
 422 57 422 57 409 110 c 2,56,-1
 368 290 l 2,57,58
 292 618 292 618 285 642 c 0,59,60
 270 699 270 699 254 748 c 0,61,62
 202 906 202 906 150 987 c 1,63,64
 129 1017 129 1017 93 1058 c 1,65,-1
 91 1058 l 1,66,67
 81 1034 81 1034 26 951 c 0,68,69
 21 943 21 943 17 936 c 0,70,71
 -6 903 -6 903 -7 901 c 0,72,73
 -9 894 -9 894 -9 889 c 0,74,75
 -8 883 -8 883 19 847 c 0,76,77
 22 842 22 842 24 840 c 0,78,79
 78 757 78 757 88 720 c 1,80,81
 98 679 98 679 97 674 c 0,82,83
 96 671 96 671 95 671 c 0,84,85
 90 667 90 667 75 667 c 2,86,-1
 23 667 l 1,87,-1
 -183 667 l 1,88,-1
 -194 713 l 1,89,-1
 -40 713 l 1,90,-1
 41 715 l 1,0,1
305 -102 m 0,91,92
 328 -93 328 -93 362 -100 c 0,93,94
 365 -101 365 -101 367 -102 c 0,95,96
 375 -106 375 -106 404 -133 c 2,97,-1
 478 -197 l 1,98,-1
 537 -248 l 2,99,100
 560 -269 560 -269 565 -274 c 0,101,102
 567 -277 567 -277 573 -311 c 0,103,104
 575 -320 575 -320 578 -325 c 0,105,106
 583 -331 583 -331 597 -342 c 0,107,108
 621 -363 621 -363 621 -377 c 0,109,110
 621 -384 621 -384 618.5 -389.5 c 128,-1,111
 616 -395 616 -395 609 -404 c 2,112,-1
 602 -413 l 1,113,-1
 552 -484 l 2,114,115
 522 -527 522 -527 523 -526 c 1,116,117
 509 -550 509 -550 498 -554 c 0,118,119
 485 -559 485 -559 453 -528 c 0,120,121
 444 -520 444 -520 439 -517 c 0,122,123
 433 -513 433 -513 411 -512 c 0,124,125
 405 -512 405 -512 400 -510 c 0,126,127
 390 -505 390 -505 351 -470 c 0,128,129
 345 -465 345 -465 342 -462 c 0,130,131
 327 -451 327 -451 245 -380 c 0,132,133
 241 -377 241 -377 232 -370 c 0,134,135
 207 -349 207 -349 199 -339 c 0,136,137
 197 -334 197 -334 194 -318 c 2,138,-1
 183 -272 l 1,139,140
 186 -263 186 -263 204 -238 c 2,141,-1
 249 -174 l 1,142,-1
 284 -123 l 2,143,144
 299 -104 299 -104 305 -102 c 0,91,92
347 -157 m 1,145,146
 329 -173 329 -173 282 -248 c 0,147,148
 276 -258 276 -258 271 -264 c 0,149,150
 269 -267 269 -267 263 -274 c 0,151,152
 246 -295 246 -295 245 -303 c 1,153,154
 246 -308 246 -308 252.5 -314.5 c 128,-1,155
 259 -321 259 -321 271 -330 c 2,156,-1
 283 -339 l 1,157,158
 348 -395 348 -395 381 -423 c 0,159,160
 383 -425 383 -425 389 -430 c 0,161,162
 410 -450 410 -450 417 -451 c 0,163,164
 424 -451 424 -451 441 -419 c 0,165,166
 443 -416 443 -416 443 -415 c 2,167,-1
 519 -307 l 1,168,-1
 519 -305 l 1,169,-1
 347 -157 l 1,145,146
EndSplineSet
EndChar

StartChar: uniFE92
Encoding: 65170 65170 354
Width: 664
VWidth: 1639
GlyphClass: 2
Flags: HW
AnchorPoint: "GposMark2BaseAnchorClassErabAbove_01_02" 257 1066 basechar 0
AnchorPoint: "GposMark2BaseAnchorClassErabBelow_01_02" 257 -704 basechar 0
LayerCount: 2
Fore
SplineSet
-194 713 m 1,0,-1
 -55 713 l 2,1,2
 23 714 23 714 51 738 c 0,3,4
 73 759 73 759 88 834 c 0,5,6
 89 841 89 841 90 845 c 0,7,8
 100 896 100 896 116 909 c 1,9,10
 129 916 129 916 179 915 c 1,11,12
 207 913 207 913 231 874 c 0,13,14
 239 861 239 861 254 834 c 0,15,16
 288 773 288 773 313 751 c 0,17,18
 365 706 365 706 475 711 c 0,19,20
 519 713 519 713 528 713 c 1,21,-1
 538 667 l 1,22,-1
 412 667 l 2,23,24
 332 668 332 668 292 695 c 0,25,26
 259 718 259 718 217 796 c 0,27,28
 209 811 209 811 204 818 c 0,29,30
 182 856 182 856 169 859 c 1,31,32
 154 858 154 858 146 813 c 0,33,34
 130 733 130 733 127 726 c 0,35,36
 116 701 116 701 102 689 c 0,37,38
 73 668 73 668 -9 667 c 2,39,-1
 -183 667 l 1,40,-1
 -194 713 l 1,0,-1
304 177 m 1,41,-1
 320 148 l 1,42,-1
 321 148 l 1,43,-1
 325 177 l 1,44,-1
 327 177 l 1,45,-1
 341 148 l 1,46,-1
 343 148 l 1,47,-1
 346 177 l 1,48,-1
 348 177 l 1,49,50
 360 146 360 146 388 115 c 0,51,52
 403 97 403 97 432 72 c 1,53,54
 499 18 499 18 615 21 c 0,55,56
 624 21 624 21 642 22 c 0,57,58
 672 23 672 23 687 23 c 1,59,-1
 708 -67 l 1,60,61
 697 -67 697 -67 673 -68 c 0,62,63
 594 -70 594 -70 555 -57 c 0,64,65
 550 -55 550 -55 501 -28 c 0,66,67
 492 -23 492 -23 485 -20 c 0,68,69
 413 14 413 14 387 36 c 1,70,71
 382 10 382 10 357 -16 c 0,72,73
 308 -71 308 -71 179 -69 c 0,74,75
 169 -69 169 -69 149 -68 c 0,76,77
 117 -67 117 -67 101 -67 c 0,78,79
 90 -67 90 -67 68 -68 c 0,80,81
 13 -70 13 -70 -14 -66 c 1,82,-1
 -34 21 l 1,83,-1
 91 21 l 2,84,85
 171 21 171 21 179 23 c 0,86,87
 241 36 241 36 276 92 c 0,88,89
 292 118 292 118 304 177 c 1,41,-1
304 -95 m 0,90,91
 325 -86 325 -86 359 -95 c 0,92,93
 363 -96 363 -96 365 -97 c 0,94,95
 375 -102 375 -102 405 -128 c 2,96,-1
 483 -195 l 1,97,-1
 538 -243 l 2,98,99
 561 -264 561 -264 563 -267 c 0,100,101
 565 -270 565 -270 571 -304 c 0,102,103
 573 -313 573 -313 577 -318 c 0,104,105
 582 -324 582 -324 595 -335 c 0,106,107
 619 -356 619 -356 619 -371 c 1,108,109
 618 -382 618 -382 601 -405 c 2,110,-1
 552 -476 l 2,111,112
 546 -484 546 -484 535 -501 c 0,113,114
 523 -519 523 -519 518 -526 c 0,115,116
 504 -545 504 -545 498 -548 c 0,117,118
 484 -554 484 -554 449 -521 c 0,119,120
 440 -513 440 -513 436 -510 c 0,121,122
 431 -507 431 -507 408 -507 c 0,123,124
 402 -506 402 -506 399 -505 c 0,125,126
 383 -497 383 -497 330 -449 c 0,127,128
 324 -444 324 -444 321 -441 c 2,129,-1
 234 -366 l 2,130,131
 230 -363 230 -363 223 -357 c 0,132,133
 202 -340 202 -340 196 -330 c 0,134,135
 194 -326 194 -326 187 -289 c 2,136,-1
 182 -266 l 1,137,138
 185 -258 185 -258 208 -226 c 2,139,-1
 262 -149 l 2,140,141
 265 -145 265 -145 271 -133 c 0,142,143
 291 -101 291 -101 304 -95 c 0,90,91
517 -298 m 1,144,-1
 395 -194 l 2,145,146
 392 -191 392 -191 384 -182 c 0,147,148
 358 -157 358 -157 348 -154 c 1,149,150
 343 -154 343 -154 338.5 -159 c 128,-1,151
 334 -164 334 -164 328 -174 c 2,152,-1
 323 -184 l 1,153,-1
 263 -269 l 2,154,155
 262 -271 262 -271 258 -275 c 0,156,157
 244 -293 244 -293 245 -300 c 1,158,159
 248 -305 248 -305 264 -318 c 2,160,-1
 319 -366 l 1,161,-1
 390 -426 l 2,162,163
 411 -443 411 -443 415 -444 c 1,164,165
 423 -441 423 -441 442 -410 c 0,166,167
 449 -400 449 -400 464 -378 c 0,168,169
 479 -355 479 -355 488 -343 c 0,170,171
 515 -302 515 -302 517 -298 c 1,144,-1
EndSplineSet
EndChar

StartChar: afii57417
Encoding: 1577 1577 355
AltUni2: 00fe93.ffffffff.0
Width: 989
VWidth: 1639
GlyphClass: 2
Flags: HW
AnchorPoint: "GposMark2BaseAnchorClassErabAbove_01_02" 225 1892 basechar 0
AnchorPoint: "GposMark2BaseAnchorClassErabBelow_01_02" 225 -228 basechar 0
LayerCount: 2
Fore
SplineSet
31 1410 m 1,0,1
 25 1396 25 1396 -20 1335 c 0,2,3
 -23 1331 -23 1331 -25 1328 c 0,4,5
 -42 1304 -42 1304 -47 1302 c 0,6,7
 -49 1301 -49 1301 -50 1301 c 0,8,9
 -64 1299 -64 1299 -93 1326 c 0,10,11
 -106 1337 -106 1337 -111 1342 c 0,12,13
 -118 1345 -118 1345 -131 1344 c 0,14,15
 -144 1344 -144 1344 -149 1346 c 0,16,17
 -158 1351 -158 1351 -198 1387 c 0,18,19
 -213 1400 -213 1400 -245 1427 c 0,20,21
 -277 1454 -277 1454 -291 1466 c 0,22,23
 -294 1469 -294 1469 -303 1475 c 0,24,25
 -332 1499 -332 1499 -338 1512 c 1,26,27
 -352 1555 -352 1555 -351 1573 c 1,28,29
 -348 1586 -348 1586 -317 1626 c 0,30,31
 -314 1630 -314 1630 -313 1632 c 2,32,-1
 -265 1701 l 2,33,34
 -245 1730 -245 1730 -243 1730 c 0,35,36
 -240 1732 -240 1732 -239 1733 c 0,37,38
 -217 1741 -217 1741 -181 1735 c 1,39,40
 -171 1732 -171 1732 -142 1706 c 2,41,-1
 -55 1630 l 1,42,43
 -49 1644 -49 1644 -7 1701 c 0,44,45
 -4 1705 -4 1705 -2 1707 c 0,46,47
 15 1732 15 1732 19 1734 c 0,48,49
 21 1735 21 1735 22 1735 c 0,50,51
 49 1742 49 1742 77 1735 c 0,52,53
 80 1734 80 1734 80 1733 c 0,54,55
 89 1729 89 1729 119 1702 c 2,56,-1
 201 1632 l 2,57,58
 206 1627 206 1627 220 1617 c 0,59,60
 257 1587 257 1587 267 1573 c 0,61,62
 272 1567 272 1567 276 1536 c 0,63,64
 278 1529 278 1529 279 1525 c 0,65,66
 282 1518 282 1518 308 1497 c 0,67,68
 321 1484 321 1484 325 1474 c 1,69,70
 325 1463 325 1463 316 1446 c 0,71,72
 313 1441 313 1441 278 1392 c 2,73,-1
 232 1327 l 2,74,75
 217 1305 217 1305 212 1303 c 0,76,77
 210 1302 210 1302 209 1302 c 0,78,79
 195 1297 195 1297 162 1328 c 0,80,81
 153 1336 153 1336 148 1340 c 0,82,83
 145 1342 145 1342 120 1344 c 0,84,85
 114 1345 114 1345 110 1346 c 0,86,87
 80 1359 80 1359 33 1410 c 1,88,-1
 31 1410 l 1,0,1
128 1402 m 1,89,-1
 199 1504 l 2,90,91
 200 1505 200 1505 204 1510 c 0,92,93
 223 1531 223 1531 219 1540 c 0,94,95
 218 1543 218 1543 214.5 1547 c 128,-1,96
 211 1551 211 1551 203 1557 c 2,97,-1
 196 1563 l 1,98,-1
 133 1617 l 1,99,-1
 84 1660 l 2,100,101
 66 1674 66 1674 63 1674 c 0,102,103
 60 1674 60 1674 58 1672.5 c 128,-1,104
 56 1671 56 1671 54 1667 c 2,105,-1
 52 1663 l 1,106,-1
 27 1627 l 2,107,108
 -3 1584 l 1,109,110
 -12 1568 -12 1568 -17 1565 c 0,111,112
 -19 1564 -19 1564 -24 1567 c 0,113,114
 -29 1569 -29 1569 -30 1569 c 0,115,116
 -32 1569 -32 1569 -35 1567 c 0,117,118
 -39 1565 l 0,119,120
 -41 1565 -41 1565 -46 1567 c 0,121,122
 -51 1569 -51 1569 -53 1569 c 2,123,-1
 -61 1565 l 2,124,125
 -64 1565 -64 1565 -69.5 1569 c 128,-1,126
 -75 1573 -75 1573 -82 1579 c 2,127,-1
 -89 1586 l 1,128,-1
 -163 1650 l 2,129,130
 -188 1672 -188 1672 -189 1672 c 0,131,132
 -194 1674 -194 1674 -197 1673 c 0,133,134
 -202 1669 -202 1669 -219 1643 c 2,135,-1
 -269 1573 l 2,136,137
 -270 1571 -270 1571 -274 1567 c 0,138,139
 -289 1548 -289 1548 -288 1540 c 1,140,141
 -285 1533 -285 1533 -255 1509 c 0,142,143
 -240 1496 -240 1496 -210 1470 c 0,144,145
 -179 1444 -179 1444 -164 1432 c 0,146,147
 -162 1430 -162 1430 -157 1425 c 0,148,149
 -138 1407 -138 1407 -131 1405 c 1,150,151
 -125 1406 -125 1406 -108 1433 c 2,152,-1
 -50 1517 l 1,153,-1
 -38 1506 l 1,154,-1
 -36 1506 l 1,155,-1
 -30 1517 l 1,156,-1
 -28 1517 l 1,157,-1
 -17 1506 l 1,158,-1
 -15 1506 l 1,159,-1
 -9 1517 l 1,160,-1
 -7 1517 l 1,161,-1
 37 1479 l 1,162,-1
 126 1402 l 1,163,-1
 128 1402 l 1,89,-1
-37 863 m 1,164,165
 -57 876 -57 876 -65 901 c 2,166,-1
 -65 904 l 1,167,-1
 -74 941 l 1,168,169
 -74 953 -74 953 -55 1011 c 0,170,171
 -53 1017 -53 1017 -52 1020 c 2,172,-1
 -9 1148 l 2,173,174
 -8 1152 -8 1152 -5 1162 c 0,175,176
 4 1193 4 1193 13 1200 c 1,177,178
 22 1205 22 1205 48 1205 c 0,179,180
 96 1204 96 1204 129 1191 c 0,181,182
 187 1166 187 1166 290 1100 c 0,183,184
 505 966 505 966 617 828 c 0,185,186
 627 815 627 815 689 713 c 0,187,188
 739 631 739 631 749 605 c 0,189,190
 779 532 779 532 787 430 c 0,191,192
 802 228 802 228 695 83 c 0,193,194
 573 -78 573 -78 374 -59 c 0,195,196
 309 -53 309 -53 186 7 c 0,197,198
 178 11 178 11 174 13 c 0,199,200
 39 80 39 80 -23 149 c 0,201,202
 -33 160 -33 160 -41 169 c 0,203,204
 -112 260 -112 260 -144 400 c 0,205,206
 -193 615 -193 615 -116 759 c 0,207,208
 -72 840 -72 840 -37 863 c 1,164,165
20 853 m 1,209,210
 36 838 36 838 10 812 c 2,211,-1
 8 810 l 1,212,213
 -46 751 -46 751 -70 699 c 1,214,215
 -152 533 -152 533 -83 348 c 0,216,217
 -65 301 -65 301 -38 257 c 0,218,219
 35 139 35 139 172 73 c 0,220,221
 253 34 253 34 324 30 c 0,222,223
 420 26 420 26 515 87 c 1,224,225
 644 174 644 174 683 354 c 0,226,227
 709 478 709 478 682 602 c 0,228,229
 659 696 659 696 572 797 c 0,230,231
 455 932 455 932 244 1063 c 0,232,233
 158 1116 158 1116 114 1137 c 0,234,235
 76 1157 76 1157 67 1155 c 0,236,237
 56 1152 56 1152 44 1105 c 0,238,239
 42 1099 42 1099 41 1096 c 0,240,241
 -7 954 -7 954 -16 917 c 1,242,243
 -13 915 -13 915 -6 910 c 0,244,245
 18 892 18 892 14 877 c 1,246,-1
 14 876 l 1,247,248
 23 864 23 864 19 854 c 1,249,-1
 20 853 l 1,209,210
158 790 m 1,250,251
 251 804 251 804 330 745 c 0,252,253
 355 726 355 726 371 704 c 0,254,255
 391 676 391 676 405 618 c 1,256,257
 417 556 417 556 387 544 c 0,258,259
 382 542 382 542 378 541 c 0,260,261
 374 541 374 541 331 541 c 0,262,263
 213 542 213 542 152 605 c 1,264,265
 131 628 131 628 117 676 c 1,266,267
 93 776 93 776 158 790 c 1,250,251
203 633 m 1,268,269
 254 605 254 605 265 602 c 0,270,271
 291 593 291 593 308 590 c 0,272,273
 344 583 344 583 355 608 c 0,274,275
 359 620 359 620 354 633 c 0,276,277
 334 684 334 684 284 699 c 1,278,279
 235 711 235 711 212 674 c 1,280,281
 201 653 201 653 203 633 c 1,268,269
EndSplineSet
AlternateSubs2: "gsub_alternate_dfl_aalt_arab_FAR_Lookup_01_Subtable_01" uniFE94 afii57417
Substitution2: "gsub_single_rtl_fina_arab_FAR_Lookup_01_Subtable_01" uniFE94
EndChar

StartChar: uniFE94
Encoding: 65172 65172 356
Width: 919
VWidth: 1639
GlyphClass: 2
Flags: HW
AnchorPoint: "GposMark2BaseAnchorClassErabAbove_01_02" 366.5 1730 basechar 0
AnchorPoint: "GposMark2BaseAnchorClassErabBelow_01_02" 366.5 -217 basechar 0
LayerCount: 2
Fore
SplineSet
153 1248 m 1,0,1
 147 1234 147 1234 102 1174 c 0,2,3
 99 1170 99 1170 98 1168 c 0,4,5
 81 1143 81 1143 74 1141 c 0,6,7
 72 1140 72 1140 71 1140 c 0,8,9
 57 1137 57 1137 29 1164 c 0,10,11
 15 1177 15 1177 8 1181 c 0,12,13
 2 1183 2 1183 -9 1182 c 0,14,15
 -22 1181 -22 1181 -28 1184 c 0,16,17
 -36 1189 -36 1189 -73 1222 c 0,18,19
 -87 1234 -87 1234 -117 1259 c 0,20,21
 -147 1284 -147 1284 -160 1296 c 0,22,23
 -164 1299 -164 1299 -174 1307 c 0,24,25
 -210 1336 -210 1336 -217 1350 c 1,26,27
 -231 1393 -231 1393 -230 1410 c 0,28,29
 -228 1424 -228 1424 -197 1462 c 0,30,31
 -193 1467 -193 1467 -191 1469 c 2,32,-1
 -142 1540 l 2,33,34
 -123 1568 -123 1568 -122 1568 c 0,35,36
 -119 1570 -119 1570 -117 1571 c 0,37,38
 -102 1577 -102 1577 -60 1573 c 1,39,40
 -47 1568 -47 1568 -21 1543 c 2,41,-1
 67 1468 l 1,42,43
 73 1482 73 1482 115 1539 c 0,44,45
 118 1543 118 1543 119 1545 c 0,46,47
 136 1570 136 1570 140 1571 c 0,48,49
 142 1572 142 1572 143 1573 c 0,50,51
 170 1580 170 1580 198 1572 c 0,52,53
 201 1571 l 0,54,55
 210 1567 210 1567 241 1540 c 2,56,-1
 323 1469 l 2,57,58
 328 1464 328 1464 341 1455 c 0,59,60
 378 1425 378 1425 388 1410 c 0,61,62
 393 1404 393 1404 398 1374 c 0,63,64
 400 1367 400 1367 401 1363 c 0,65,66
 404 1356 404 1356 429 1335 c 0,67,68
 443 1323 443 1323 446 1312 c 1,69,70
 446 1299 446 1299 434 1282 c 0,71,72
 410 1247 410 1247 399 1230 c 2,73,-1
 354 1166 l 2,74,75
 338 1143 338 1143 335 1141 c 0,76,77
 333 1140 333 1140 332 1140 c 0,78,79
 317 1135 317 1135 281 1168 c 0,80,81
 273 1176 273 1176 268 1179 c 0,82,83
 263 1182 263 1182 241 1182 c 0,84,85
 236 1182 236 1182 231 1184 c 0,86,87
 223 1188 223 1188 207 1202 c 1,88,89
 169 1230 169 1230 154 1248 c 1,90,-1
 153 1248 l 1,0,1
60 1399 m 1,91,92
 45 1416 45 1416 -25 1473 c 0,93,94
 -32 1479 -32 1479 -36 1483 c 0,95,96
 -39 1485 -39 1485 -45 1491 c 0,97,98
 -64 1509 -64 1509 -72 1512 c 1,99,100
 -77 1512 -77 1512 -81 1507 c 128,-1,101
 -85 1502 -85 1502 -90 1493 c 2,102,-1
 -96 1484 l 1,103,-1
 -150 1407 l 2,104,105
 -151 1405 -151 1405 -155 1401 c 0,106,107
 -168 1385 -168 1385 -167 1378 c 0,108,109
 -166 1375 -166 1375 -163.5 1372 c 128,-1,110
 -161 1369 -161 1369 -156 1365 c 2,111,-1
 -151 1361 l 1,112,-1
 -104 1320 l 2,113,114
 -93 1310 -93 1310 -69 1292 c 0,115,116
 -46 1273 -46 1273 -35 1263 c 0,117,118
 -14 1245 -14 1245 -13 1244 c 0,119,120
 -10 1243 l 0,121,122
 -7 1243 -7 1243 -5 1245.5 c 128,-1,123
 -3 1248 -3 1248 -0 1252 c 2,124,-1
 3 1256 l 1,125,-1
 28 1292 l 1,126,-1
 58 1335 l 2,127,128
 69 1351 69 1351 71 1351 c 0,129,130
 73 1352 73 1352 78 1349 c 0,131,132
 82 1346 82 1346 84 1346 c 0,133,134
 86 1346 86 1346 89 1349 c 0,135,136
 93 1351 93 1351 94 1351 c 0,137,138
 96 1351 96 1351 100 1349 c 0,139,140
 105 1347 105 1347 107 1346 c 2,141,-1
 115 1351 l 2,142,143
 118 1351 118 1351 123.5 1347 c 128,-1,144
 129 1343 129 1343 136 1337 c 2,145,-1
 143 1330 l 1,146,-1
 215 1268 l 1,147,148
 245 1244 245 1244 250 1243 c 1,149,150
 258 1247 258 1247 275 1278 c 1,151,152
 333 1362 333 1362 339 1371 c 1,153,154
 341 1382 341 1382 310 1407 c 1,155,-1
 218 1486 l 2,156,157
 216 1488 216 1488 211 1493 c 0,158,159
 192 1511 192 1511 185 1512 c 1,160,161
 179 1511 179 1511 162 1484 c 2,162,-1
 102 1399 l 1,163,-1
 91 1410 l 1,164,-1
 89 1410 l 1,165,-1
 83 1399 l 1,166,-1
 81 1399 l 1,167,-1
 69 1410 l 1,168,-1
 68 1410 l 1,169,-1
 61 1399 l 1,170,-1
 60 1399 l 1,91,92
508 149 m 1,171,172
 485 94 485 94 462 52 c 1,173,174
 444 23 444 23 434 21 c 0,175,176
 426 21 426 21 392 41 c 0,177,178
 376 50 376 50 345 65 c 0,179,180
 314 80 314 80 298 89 c 0,181,182
 188 151 188 151 28 248 c 0,183,184
 16 255 16 255 -7 269 c 0,185,186
 -31 283 -31 283 -41 290 c 0,187,188
 -78 314 -78 314 -77 313 c 1,189,190
 -87 327 -87 327 -100 385 c 0,191,192
 -101 398 -101 398 -91 440 c 0,193,194
 -81 488 -81 488 -66 541 c 0,195,196
 -33 660 -33 660 -23 683 c 0,197,198
 -15 700 -15 700 -7 712 c 0,199,200
 30 769 30 769 145 881 c 0,201,202
 164 899 164 899 175 912 c 0,203,204
 182 919 182 919 196 931 c 0,205,206
 224 957 224 957 235 971 c 0,207,208
 240 979 240 979 232 1016 c 0,209,210
 229 1035 229 1035 233 1043 c 0,211,212
 238 1049 238 1049 263 1066 c 0,213,214
 273 1073 273 1073 293 1088 c 0,215,216
 314 1103 314 1103 323 1110 c 0,217,218
 352 1130 352 1130 364 1130 c 0,219,220
 366 1130 366 1130 367 1130 c 0,221,222
 371 1129 371 1129 382 1131 c 0,223,224
 404 1132 404 1132 412 1127 c 0,225,226
 417 1123 417 1123 424 1104 c 0,227,228
 427 1093 427 1093 433 1071 c 0,229,230
 439 1048 439 1048 442 1038 c 1,231,232
 463 1055 463 1055 478 1007 c 0,233,234
 480 1001 480 1001 483 991 c 0,235,236
 485 983 485 983 486 981 c 0,237,238
 491 964 491 964 500 930 c 0,239,240
 519 863 519 863 529 831 c 0,241,242
 547 775 547 775 568 756 c 0,243,244
 571 753 571 753 572 751 c 0,245,246
 623 706 623 706 731 711 c 0,247,248
 776 713 776 713 784 713 c 1,249,-1
 794 667 l 1,250,-1
 668 667 l 2,251,252
 603 668 603 668 575 681 c 1,253,254
 516 712 516 712 479 787 c 0,255,256
 457 831 457 831 425 938 c 0,257,258
 392 1050 392 1050 387 1071 c 1,259,260
 375 1062 375 1062 352 1044.5 c 128,-1,261
 329 1027 329 1027 317 1018 c 0,262,263
 288 997 288 997 287 995 c 0,264,265
 282 987 282 987 290 949 c 0,266,267
 292 930 292 930 286 922 c 0,268,269
 259 893 259 893 200 837 c 0,270,271
 78 722 78 722 36 648 c 0,272,273
 24 624 24 624 6 554 c 1,274,275
 -19 474 -19 474 -33 412 c 1,276,277
 -45 368 -45 368 -42 359 c 0,278,279
 -42 357 -42 357 -38 354 c 128,-1,280
 -34 351 -34 351 -31.5 349.5 c 128,-1,281
 -29 348 -29 348 -24 345 c 2,282,-1
 -20 343 l 1,283,284
 23 317 23 317 44 305 c 0,285,286
 197 213 197 213 274 169 c 2,287,-1
 332 134 l 2,288,289
 350 124 350 124 354 125 c 0,290,291
 361 126 361 126 378 165 c 0,292,293
 379 168 379 168 380 169 c 0,294,295
 426 268 426 268 429 275 c 0,296,297
 436 297 436 297 440 315 c 1,298,-1
 441 315 l 1,299,-1
 451 280 l 1,300,-1
 452 280 l 1,301,-1
 461 315 l 1,302,-1
 463 315 l 1,303,-1
 472 280 l 1,304,-1
 474 280 l 1,305,-1
 482 315 l 1,306,-1
 484 315 l 1,307,308
 512 193 512 193 634 99 c 0,309,310
 704 46 704 46 774 28 c 0,311,312
 811 20 811 20 924 23 c 0,313,314
 935 23 935 23 943 23 c 1,315,-1
 964 -67 l 1,316,317
 861 -67 861 -67 841 -64 c 0,318,319
 809 -57 809 -57 723 -13 c 0,320,321
 719 -11 719 -11 716 -10 c 2,322,-1
 670 10 l 1,323,324
 559 68 559 68 508 149 c 1,171,172
295 790 m 1,325,-1
 301 769 l 1,326,-1
 318 790 l 1,327,-1
 323 769 l 1,328,-1
 339 790 l 1,329,-1
 376 628 l 1,330,-1
 394 551 l 1,331,332
 394 542 394 542 376 511 c 0,333,334
 374 507 374 507 373 505 c 0,335,336
 367 492 367 492 364 490 c 1,337,338
 359 490 359 490 349 497 c 2,339,-1
 347 499 l 1,340,341
 343 489 343 489 327 498 c 2,342,-1
 326 499 l 1,343,344
 321 485 321 485 290 508 c 1,345,346
 275 517 275 517 245 537 c 0,347,348
 204 563 204 563 185 574 c 1,349,-1
 194 587 l 1,350,-1
 193 589 l 1,351,-1
 179 597 l 1,352,-1
 188 610 l 1,353,-1
 188 612 l 1,354,-1
 174 620 l 1,355,-1
 211 672 l 1,356,-1
 295 790 l 1,325,-1
335 623 m 1,357,358
 310 600 310 600 297 569 c 1,359,-1
 322 554 l 1,360,-1
 340 595 l 1,361,-1
 335 623 l 1,357,358
EndSplineSet
EndChar

StartChar: afii57418
Encoding: 1578 1578 357
AltUni2: 00fe95.ffffffff.0
Width: 1785
VWidth: 1639
GlyphClass: 2
Flags: HW
AnchorPoint: "GposMark2BaseAnchorClassErabAbove_01_02" 747.5 1458 basechar 0
AnchorPoint: "GposMark2BaseAnchorClassErabBelow_01_02" 747.5 -222 basechar 0
LayerCount: 2
Fore
SplineSet
373 1304 m 0,0,1
 412 1308 412 1308 425 1302 c 0,2,3
 439 1297 439 1297 484 1256 c 0,4,5
 488 1252 488 1252 491 1250 c 0,6,7
 498 1244 498 1244 511 1232 c 0,8,9
 525 1219 525 1219 531 1214 c 0,10,11
 545 1203 545 1203 548 1202 c 0,12,13
 556 1204 556 1204 574 1235 c 1,14,-1
 606 1281 l 2,15,16
 620 1300 620 1300 625 1302 c 0,17,18
 631 1304 631 1304 663 1304 c 1,19,20
 691 1298 691 1298 692 1297 c 0,21,22
 715 1281 715 1281 797 1208 c 0,23,24
 805 1201 805 1201 812 1196 c 0,25,26
 817 1191 817 1191 829 1182 c 0,27,28
 861 1155 861 1155 871 1141 c 0,29,30
 874 1136 874 1136 881 1105 c 0,31,32
 883 1096 883 1096 886 1091 c 128,-1,33
 889 1086 889 1086 914 1065 c 0,34,35
 930 1051 930 1051 930 1038 c 0,36,37
 929 1027 929 1027 913 1005 c 2,38,-1
 870 943 l 1,39,-1
 832 889 l 2,40,41
 817 869 817 869 811 868 c 0,42,43
 799 867 799 867 764 898 c 0,44,45
 759 903 759 903 757 905 c 0,46,47
 751 910 751 910 727 910 c 0,48,49
 720 910 720 910 713 913 c 0,50,51
 703 918 703 918 666 953 c 0,52,53
 662 956 662 956 660 958 c 0,54,55
 641 973 641 973 638 974 c 0,56,57
 633 974 633 974 630 970 c 128,-1,58
 627 966 627 966 622 958 c 2,59,-1
 617 950 l 2,60,61
 612 942 612 942 601 924 c 0,62,63
 576 883 576 883 560 871 c 0,64,65
 547 861 547 861 516 891 c 0,66,67
 499 906 499 906 492 909 c 128,-1,68
 485 912 485 912 473 911 c 0,69,70
 458 912 458 912 450 917 c 0,71,72
 446 920 446 920 368 988 c 0,73,74
 355 999 355 999 346 1007 c 0,75,76
 283 1056 283 1056 269 1074 c 0,77,78
 265 1080 265 1080 257 1118 c 2,79,-1
 252 1140 l 1,80,81
 254 1149 254 1149 271 1171 c 2,82,-1
 314 1232 l 1,83,-1
 350 1284 l 2,84,85
 365 1303 365 1303 373 1304 c 0,0,1
543 1128 m 1,86,87
 526 1147 526 1147 453 1209 c 0,88,89
 447 1214 447 1214 444 1217 c 0,90,91
 442 1219 442 1219 436 1224 c 0,92,93
 417 1242 417 1242 410 1243 c 1,94,95
 402 1240 402 1240 384 1210 c 0,96,97
 377 1200 377 1200 361 1180 c 0,98,99
 324 1133 324 1133 313 1107 c 1,100,-1
 473 971 l 1,101,-1
 474 971 l 1,102,103
 482 982 482 982 500 1005 c 0,104,105
 541 1057 541 1057 553 1086 c 1,106,-1
 555 1086 l 1,107,-1
 567 1074 l 1,108,-1
 568 1074 l 1,109,-1
 575 1086 l 1,110,-1
 576 1086 l 1,111,-1
 588 1074 l 1,112,-1
 589 1074 l 1,113,-1
 596 1086 l 1,114,-1
 597 1086 l 1,115,116
 619 1060 619 1060 704 993 c 0,117,118
 721 980 721 980 731 971 c 1,119,-1
 732 971 l 1,120,-1
 827 1107 l 1,121,-1
 827 1109 l 1,122,-1
 709 1210 l 2,123,124
 707 1212 707 1212 700 1219 c 0,125,126
 676 1241 676 1241 668 1243 c 1,127,128
 662 1242 662 1242 645 1215 c 0,129,130
 639 1207 639 1207 628 1192 c 0,131,132
 598 1152 598 1152 588 1128 c 1,133,-1
 586 1128 l 1,134,-1
 574 1140 l 1,135,-1
 573 1140 l 1,136,-1
 566 1128 l 1,137,-1
 565 1128 l 1,138,-1
 553 1140 l 1,139,-1
 551 1140 l 1,140,-1
 545 1128 l 1,141,-1
 543 1128 l 1,86,87
1174 715 m 1,142,143
 1162 741 1162 741 1107 820 c 0,144,145
 1104 824 1104 824 1098 831 c 0,146,147
 1085 846 1085 846 1081 854 c 0,148,149
 1071 875 1071 875 1065 917 c 0,150,151
 1063 936 1063 936 1091 976 c 0,152,153
 1095 981 1095 981 1097 984 c 0,154,155
 1105 997 1105 997 1122 1024 c 0,156,157
 1139 1052 1139 1052 1147 1064 c 0,158,159
 1149 1068 1149 1068 1154 1078 c 0,160,161
 1170 1107 1170 1107 1183 1114 c 0,162,163
 1187 1116 1187 1116 1195 1115 c 0,164,165
 1202 1115 1202 1115 1204 1115 c 0,166,167
 1242 1114 1242 1114 1251 1109 c 0,168,169
 1287 1084 1287 1084 1331 1004 c 0,170,171
 1349 973 1349 973 1359 958 c 0,172,173
 1419 872 1419 872 1472 707 c 0,174,175
 1508 597 1508 597 1576 290 c 0,176,177
 1583 258 1583 258 1589 233 c 2,178,-1
 1633 41 l 2,179,180
 1634 35 1634 35 1639 21 c 0,181,182
 1651 -25 1651 -25 1646 -43 c 0,183,184
 1635 -72 1635 -72 1561 -68 c 0,185,186
 1547 -67 1547 -67 1541 -67 c 2,187,-1
 1227 -67 l 1,188,-1
 967 -67 l 1,189,-1
 705 -67 l 2,190,191
 552 -67 552 -67 487 -56 c 1,192,193
 401 -38 401 -38 278 25 c 1,194,195
 217 53 217 53 193 67 c 0,196,197
 61 152 61 152 -23 285 c 0,198,199
 -156 499 -156 499 -137 763 c 0,200,201
 -131 837 -131 837 -114 902 c 1,202,203
 -80 1016 -80 1016 -34 1058 c 1,204,205
 -22 1066 -22 1066 15 1064 c 1,206,207
 35 1061 35 1061 36 1061 c 0,208,209
 41 1053 41 1053 45 1033 c 2,210,-1
 60 969 l 1,211,212
 85 981 85 981 94 963 c 1,213,214
 99 948 99 948 108 870 c 0,215,216
 114 828 114 828 128 802 c 0,217,218
 134 793 134 793 155 774 c 0,219,220
 202 736 202 736 273 722 c 1,221,222
 330 713 330 713 474 713 c 2,223,-1
 793 713 l 1,224,-1
 1046 713 l 2,225,226
 1059 713 1059 713 1085 712 c 0,227,228
 1147 709 1147 709 1174 715 c 1,142,143
1226 1058 m 1,229,230
 1218 1050 1218 1050 1200 1018 c 0,231,232
 1191 1004 1191 1004 1174 977 c 0,233,234
 1156 949 1156 949 1148 935 c 0,235,236
 1126 903 1126 903 1125 901 c 0,237,238
 1122 894 1122 894 1123 889 c 0,239,240
 1124 883 1124 883 1154 844 c 0,241,242
 1156 842 1156 842 1158 840 c 0,243,244
 1211 760 1211 760 1221 722 c 1,245,246
 1231 680 1231 680 1228 673 c 0,247,248
 1227 670 1227 670 1224 669 c 0,249,250
 1219 667 1219 667 1196 667 c 2,251,-1
 1127 667 l 1,252,-1
 877 667 l 1,253,-1
 371 667 l 2,254,255
 230 667 230 667 159 705 c 0,256,257
 129 722 129 722 104 745 c 0,258,259
 32 814 32 814 11 984 c 0,260,261
 10 991 10 991 9 999 c 1,262,263
 -3 990 -3 990 -22 953 c 0,264,265
 -57 890 -57 890 -71 805 c 0,266,267
 -99 637 -99 637 -75 530 c 0,268,269
 -33 347 -33 347 108 206 c 0,270,271
 129 186 129 186 149 169 c 0,272,273
 297 44 297 44 495 25 c 0,274,275
 530 22 530 22 683 21 c 2,276,-1
 1212 21 l 1,277,-1
 1456 21 l 2,278,279
 1518 21 1518 21 1525 23 c 0,280,281
 1540 28 1540 28 1547 38 c 1,282,283
 1555 54 1555 54 1547 90 c 2,284,-1
 1527 177 l 1,285,-1
 1439 558 l 2,286,287
 1389 773 1389 773 1328 905 c 0,288,289
 1280 1009 1280 1009 1226 1058 c 1,229,230
EndSplineSet
AlternateSubs2: "gsub_alternate_dfl_aalt_arab_FAR_Lookup_01_Subtable_01" uniFE96 uniFE97 afii57418 uniFE98
Substitution2: "gsub_single_rtl_fina_arab_FAR_Lookup_01_Subtable_01" uniFE96
Substitution2: "gsub_single_rtl_init_arab_FAR_Lookup_01_Subtable_01" uniFE97
Substitution2: "gsub_single_rtl_medi_arab_FAR_Lookup_01_Subtable_01" uniFE98
EndChar

StartChar: uniFE96
Encoding: 65174 65174 358
Width: 1790
VWidth: 1639
GlyphClass: 2
Flags: HW
AnchorPoint: "GposMark2BaseAnchorClassErabAbove_01_02" 831 1436 basechar 0
AnchorPoint: "GposMark2BaseAnchorClassErabBelow_01_02" 831 -218 basechar 0
LayerCount: 2
Fore
SplineSet
645 958 m 1,0,1
 638 941 638 941 595 883 c 0,2,3
 591 877 591 877 588 874 c 0,4,5
 570 849 570 849 566 847 c 0,6,7
 564 846 564 846 563 846 c 0,8,9
 551 845 551 845 524 872 c 0,10,11
 510 885 510 885 502 889 c 0,12,13
 496 891 496 891 485 890 c 0,14,15
 472 890 472 890 467 892 c 0,16,17
 459 897 459 897 419 932 c 0,18,19
 405 944 405 944 376 968 c 0,20,21
 346 993 346 993 332 1005 c 0,22,23
 327 1009 327 1009 317 1018 c 0,24,25
 287 1042 287 1042 278 1055 c 0,26,27
 272 1064 272 1064 262 1110 c 0,28,29
 259 1127 259 1127 291 1165 c 0,30,31
 294 1169 294 1169 295 1171 c 2,32,-1
 349 1248 l 2,33,34
 370 1278 370 1278 375 1281 c 0,35,36
 377 1282 377 1282 378 1282 c 0,37,38
 389 1286 389 1286 415 1282 c 0,39,40
 419 1281 419 1281 423 1283 c 0,41,42
 430 1284 430 1284 434 1282 c 0,43,44
 443 1277 443 1277 466 1258 c 2,45,-1
 527 1205 l 2,46,47
 529 1203 529 1203 534 1199 c 0,48,49
 549 1186 549 1186 555 1182 c 0,50,51
 562 1179 562 1179 567 1188 c 2,52,-1
 567 1189 l 2,53,54
 570 1194 570 1194 577 1204 c 0,55,56
 584 1214 584 1214 586 1219 c 0,57,58
 589 1224 589 1224 597 1236 c 0,59,60
 621 1275 621 1275 636 1282 c 0,61,62
 647 1286 647 1286 672 1282 c 0,63,64
 676 1281 676 1281 682 1282 c 0,65,66
 693 1281 693 1281 699 1278 c 0,67,68
 722 1262 722 1262 812 1182 c 0,69,70
 821 1174 821 1174 827 1169 c 0,71,72
 832 1165 832 1165 843 1156 c 0,73,74
 874 1131 874 1131 883 1118 c 0,75,76
 887 1113 887 1113 892 1082 c 0,77,78
 894 1074 894 1074 895 1069 c 0,79,80
 898 1064 898 1064 925 1042 c 0,81,82
 938 1030 938 1030 940 1022 c 1,83,84
 941 1014 941 1014 930 994 c 1,85,-1
 893 941 l 1,86,-1
 846 874 l 2,87,88
 844 871 844 871 841 866 c 0,89,90
 830 850 830 850 822 846 c 0,91,92
 809 844 809 844 773 877 c 0,93,94
 767 883 767 883 764 886 c 0,95,96
 758 890 758 890 735 890 c 0,97,98
 729 890 729 890 724 892 c 0,99,100
 707 901 707 901 654 950 c 0,101,102
 648 955 648 955 645 958 c 1,0,1
836 1087 m 1,103,-1
 724 1184 l 2,104,105
 721 1187 721 1187 712 1195 c 0,106,107
 687 1218 687 1218 679 1222 c 1,108,109
 674 1222 674 1222 670.5 1218 c 128,-1,110
 667 1214 667 1214 662 1205 c 2,111,-1
 657 1197 l 2,112,113
 650 1186 650 1186 635 1165 c 0,114,115
 620 1143 620 1143 614 1133 c 0,116,117
 597 1112 597 1112 596 1112 c 0,118,119
 593 1113 593 1113 586 1117 c 0,120,121
 584 1117 584 1117 580 1114 c 0,122,123
 576 1112 576 1112 574 1112 c 0,124,125
 572 1112 572 1112 569 1114 c 0,126,127
 565 1116 565 1116 563 1117 c 0,128,129
 561 1117 561 1117 558 1114 c 0,130,131
 554 1112 554 1112 552 1112 c 0,132,133
 547 1114 547 1114 529 1130 c 2,134,-1
 480 1173 l 1,135,-1
 438 1209 l 2,136,137
 422 1222 422 1222 419 1222 c 0,138,139
 416 1222 416 1222 413 1218.5 c 128,-1,140
 410 1215 410 1215 406 1209 c 2,141,-1
 403 1202 l 1,142,-1
 360 1141 l 1,143,-1
 335 1105 l 2,144,145
 325 1091 325 1091 325 1089 c 0,146,147
 326 1084 326 1084 332 1078.5 c 128,-1,148
 338 1073 338 1073 348 1064 c 2,149,-1
 359 1056 l 2,150,151
 374 1043 374 1043 405 1017 c 0,152,153
 437 990 437 990 451 977 c 0,154,155
 453 975 453 975 458 971 c 0,156,157
 478 953 478 953 485 953 c 1,158,159
 492 958 492 958 508 984 c 1,160,-1
 564 1064 l 1,161,162
 577 1052 577 1052 584 1064 c 1,163,-1
 585 1064 l 1,164,165
 598 1052 598 1052 605 1064 c 1,166,-1
 607 1064 l 1,167,-1
 647 1030 l 1,168,-1
 742 950 l 1,169,-1
 743 950 l 1,170,-1
 837 1086 l 1,171,-1
 836 1087 l 1,103,-1
1169 715 m 1,172,173
 1157 741 1157 741 1102 820 c 0,174,175
 1099 824 1099 824 1092 834 c 0,176,177
 1077 852 1077 852 1073 861 c 0,178,179
 1059 906 1059 906 1060 925 c 1,180,181
 1064 942 1064 942 1083 969 c 1,182,183
 1102 1003 1102 1003 1142 1064 c 1,184,185
 1165 1107 1165 1107 1180 1114 c 0,186,187
 1186 1116 1186 1116 1217 1115 c 0,188,189
 1220 1114 1220 1114 1226 1115 c 0,190,191
 1236 1114 1236 1114 1241 1112 c 0,192,193
 1279 1093 1279 1093 1333 995 c 0,194,195
 1341 980 1341 980 1359 951 c 0,196,197
 1382 913 1382 913 1392 894 c 0,198,199
 1423 833 1423 833 1466 713 c 1,200,-1
 1655 713 l 1,201,-1
 1665 667 l 1,202,-1
 1409 667 l 1,203,204
 1344 885 1344 885 1279 987 c 0,205,206
 1274 995 1274 995 1270 1000 c 0,207,208
 1265 1007 1265 1007 1221 1058 c 1,209,-1
 1220 1058 l 1,210,211
 1212 1041 1212 1041 1159 957 c 0,212,213
 1152 946 1152 946 1147 938 c 0,214,215
 1145 934 1145 934 1137 925 c 0,216,217
 1120 902 1120 902 1120 891 c 1,218,219
 1121 883 1121 883 1152 841 c 1,220,221
 1206 758 1206 758 1217 720 c 1,222,223
 1227 678 1227 678 1224 672 c 0,224,225
 1222 670 1222 670 1221 669 c 0,226,227
 1216 666 1216 666 1193 667 c 2,228,-1
 1127 667 l 1,229,-1
 883 667 l 1,230,-1
 416 667 l 2,231,232
 281 667 281 667 251 672 c 0,233,234
 199 681 199 681 158 702 c 0,235,236
 25 771 25 771 6 979 c 0,237,238
 5 990 5 990 4 999 c 1,239,240
 -51 938 -51 938 -75 802 c 0,241,242
 -105 648 -105 648 -78 530 c 0,243,244
 -33 335 -33 335 129 187 c 0,245,246
 206 118 206 118 291 79 c 0,247,248
 411 23 411 23 610 21 c 0,249,250
 625 21 625 21 663 21 c 2,251,-1
 1055 21 l 1,252,-1
 1295 21 l 1,253,-1
 1417 21 l 1,254,255
 1510 39 1510 39 1523 97 c 1,256,-1
 1524 97 l 1,257,-1
 1536 79 l 1,258,-1
 1539 79 l 1,259,-1
 1544 97 l 1,260,-1
 1546 97 l 1,261,-1
 1557 79 l 1,262,-1
 1560 79 l 1,263,-1
 1565 97 l 1,264,-1
 1567 97 l 1,265,266
 1614 20 1614 20 1739 21 c 0,267,268
 1752 21 1752 21 1778 22 c 0,269,270
 1803 23 1803 23 1814 23 c 1,271,-1
 1835 -67 l 1,272,273
 1740 -67 1740 -67 1714 -61 c 0,274,275
 1705 -59 1705 -59 1698 -56 c 0,276,277
 1691 -53 1691 -53 1649 -27 c 0,278,279
 1643 -24 1643 -24 1640 -21 c 0,280,281
 1636 -19 1636 -19 1610 -11 c 1,282,283
 1599 -57 1599 -57 1517 -66 c 0,284,285
 1501 -68 1501 -68 1403 -67 c 2,286,-1
 1199 -67 l 1,287,-1
 925 -67 l 1,288,-1
 696 -67 l 2,289,290
 560 -67 560 -67 508 -59 c 0,291,292
 412 -43 412 -43 278 25 c 0,293,294
 194 67 194 67 181 75 c 0,295,296
 67 149 67 149 -17 271 c 0,297,298
 -72 352 -72 352 -108 474 c 0,299,300
 -173 698 -173 698 -118 902 c 1,301,302
 -84 1016 -84 1016 -38 1058 c 1,303,304
 -26 1066 -26 1066 10 1064 c 1,305,306
 30 1061 30 1061 31 1061 c 0,307,308
 36 1053 36 1053 41 1033 c 2,309,-1
 55 969 l 1,310,311
 80 981 80 981 89 963 c 1,312,313
 94 948 94 948 103 870 c 0,314,315
 109 828 109 828 123 802 c 0,316,317
 129 793 129 793 151 774 c 0,318,319
 198 736 198 736 268 722 c 1,320,321
 325 713 325 713 470 713 c 2,322,-1
 789 713 l 1,323,-1
 1042 713 l 2,324,325
 1055 713 1055 713 1081 712 c 0,326,327
 1142 709 1142 709 1169 715 c 1,172,173
EndSplineSet
EndChar

StartChar: uniFE97
Encoding: 65175 65175 359
Width: 772
VWidth: 1639
GlyphClass: 2
Flags: HW
AnchorPoint: "GposMark2BaseAnchorClassErabAbove_01_02" 82.5 1704 basechar 0
AnchorPoint: "GposMark2BaseAnchorClassErabBelow_01_02" 82.5 -220 basechar 0
LayerCount: 2
Fore
SplineSet
-199 1550 m 0,0,1
 -199 1552 -199 1552 -190 1551 c 2,2,-1
 -180 1550 l 1,3,4
 -151 1554 -151 1554 -141 1550 c 0,5,6
 -125 1544 -125 1544 -75 1497 c 0,7,8
 -69 1491 -69 1491 -65 1487 c 2,9,-1
 -33 1460 l 2,10,11
 -21 1451 -21 1451 -18 1450 c 0,12,13
 -10 1453 -10 1453 9 1484 c 1,14,-1
 40 1528 l 2,15,16
 55 1548 55 1548 58 1550 c 0,17,18
 61 1552 61 1552 64 1551.5 c 128,-1,19
 67 1551 67 1551 69.5 1552 c 128,-1,20
 72 1553 72 1553 77 1552 c 128,-1,21
 82 1551 82 1551 83.5 1551 c 128,-1,22
 85 1551 85 1551 91 1551 c 2,23,-1
 97 1550 l 1,24,25
 119 1549 119 1549 121 1548 c 0,26,27
 129 1543 129 1543 164 1512 c 2,28,-1
 252 1437 l 2,29,30
 257 1433 257 1433 267 1424 c 0,31,32
 297 1400 297 1400 306 1387 c 0,33,34
 310 1382 310 1382 315 1351 c 0,35,36
 317 1343 317 1343 319 1338 c 0,37,38
 322 1333 322 1333 347 1312 c 0,39,40
 362 1298 362 1298 364 1287 c 0,41,42
 364 1280 364 1280 362 1274.5 c 128,-1,43
 360 1269 360 1269 353 1261 c 2,44,-1
 346 1253 l 2,45,46
 338 1242 338 1242 323 1219 c 0,47,48
 307 1195 307 1195 299 1184 c 2,49,-1
 266 1137 l 2,50,51
 253 1120 253 1120 248 1117 c 0,52,53
 234 1112 234 1112 198 1145 c 0,54,55
 192 1151 192 1151 189 1153 c 0,56,57
 183 1158 183 1158 159 1158 c 0,58,59
 151 1159 151 1159 146 1161 c 0,60,61
 137 1167 137 1167 93 1205 c 0,62,63
 75 1221 75 1221 72 1222 c 0,64,65
 69 1222 69 1222 66 1218.5 c 128,-1,66
 63 1215 63 1215 60 1212 c 128,-1,67
 57 1209 57 1209 54 1203 c 2,68,-1
 51 1197 l 1,69,-1
 6 1133 l 2,70,71
 -9 1112 -9 1112 -21 1117 c 0,72,73
 -30 1119 -30 1119 -57 1144 c 0,74,75
 -67 1153 -67 1153 -74 1156 c 0,76,77
 -81 1159 -81 1159 -93 1159 c 0,78,79
 -104 1158 -104 1158 -110 1161 c 0,80,81
 -124 1169 -124 1169 -182 1221 c 0,82,83
 -186 1224 -186 1224 -188 1225 c 2,84,-1
 -264 1291 l 2,85,86
 -294 1317 -294 1317 -295 1318 c 0,87,88
 -298 1322 -298 1322 -299 1323 c 0,89,90
 -313 1344 -313 1344 -314 1381 c 0,91,92
 -314 1393 -314 1393 -298 1414 c 2,93,-1
 -252 1479 l 1,94,-1
 -218 1528 l 2,95,96
 -204 1547 -204 1547 -199 1550 c 0,0,1
-156 1492 m 1,97,98
 -173 1477 -173 1477 -219 1405 c 0,99,100
 -225 1396 -225 1396 -229 1391 c 0,101,102
 -230 1389 -230 1389 -234 1384 c 0,103,104
 -253 1363 -253 1363 -251 1355 c 1,105,106
 -247 1347 -247 1347 -211 1319 c 1,107,108
 -191 1302 -191 1302 -150 1267 c 0,109,110
 -111 1234 -111 1234 -93 1219 c 1,111,-1
 -92 1219 l 1,112,-1
 -36 1297 l 2,113,114
 -34 1299 -34 1299 -31 1306 c 0,115,116
 -19 1325 -19 1325 -13 1328 c 0,117,118
 -11 1329 -11 1329 -6 1326 c 0,119,120
 -1 1324 -1 1324 0 1323 c 0,121,122
 2 1323 2 1323 5 1326 c 0,123,124
 9 1328 9 1328 10 1328 c 0,125,126
 13 1327 13 1327 20 1323 c 0,127,128
 23 1323 23 1323 26 1326 c 0,129,130
 32 1328 32 1328 34 1327 c 0,131,132
 40 1324 40 1324 59 1307 c 1,133,134
 74 1295 74 1295 129 1248 c 0,135,136
 131 1246 131 1246 136 1241 c 0,137,138
 157 1221 157 1221 164 1220 c 1,139,140
 172 1223 172 1223 190 1253 c 0,141,142
 202 1270 202 1270 226 1305 c 0,143,144
 249 1339 249 1339 260 1355 c 1,145,-1
 260 1356 l 1,146,-1
 101 1492 l 1,147,-1
 100 1492 l 1,148,-1
 44 1412 l 1,149,-1
 20 1381 l 1,150,-1
 9 1386 l 1,151,-1
 -2 1381 l 1,152,-1
 -14 1386 l 1,153,-1
 -25 1381 l 1,154,-1
 -63 1412 l 1,155,-1
 -156 1492 l 1,97,98
3 715 m 1,156,157
 -9 741 -9 741 -64 820 c 0,158,159
 -67 824 -67 824 -74 833 c 0,160,161
 -90 853 -90 853 -93 863 c 0,162,163
 -108 911 -108 911 -105 927 c 0,164,165
 -103 941 -103 941 -76 981 c 0,166,167
 -74 984 -74 984 -73 986 c 0,168,169
 -57 1014 -57 1014 -24 1064 c 0,170,171
 -22 1068 -22 1068 -17 1078 c 0,172,173
 -1 1107 -1 1107 12 1114 c 0,174,175
 16 1116 16 1116 24 1115 c 0,176,177
 31 1115 31 1115 33 1115 c 0,178,179
 69 1114 69 1114 75 1112 c 0,180,181
 97 1100 97 1100 120 1068 c 1,182,183
 139 1044 139 1044 203 935 c 0,184,185
 205 931 205 931 207 928 c 0,186,187
 253 852 253 852 307 689 c 0,188,189
 340 586 340 586 408 277 c 0,190,191
 415 246 415 246 421 221 c 2,192,-1
 466 28 l 2,193,194
 479 -29 479 -29 475 -43 c 0,195,196
 473 -48 473 -48 472 -51 c 0,197,198
 459 -67 459 -67 423 -67 c 2,199,-1
 336 -67 l 2,200,201
 297 -67 297 -67 220 -68 c 0,202,203
 39 -70 39 -70 -51 -66 c 1,204,-1
 -71 21 l 1,205,-1
 252 21 l 2,206,207
 260 21 260 21 279 20 c 0,208,209
 354 16 354 16 373 34 c 1,210,211
 385 57 385 57 372 110 c 2,212,-1
 330 290 l 2,213,214
 254 618 254 618 248 642 c 0,215,216
 233 699 233 699 217 748 c 0,217,218
 165 906 165 906 113 987 c 1,219,220
 92 1017 92 1017 55 1058 c 1,221,-1
 54 1058 l 1,222,223
 44 1034 44 1034 -11 951 c 0,224,225
 -16 943 -16 943 -20 936 c 0,226,227
 -43 903 -43 903 -44 901 c 0,228,229
 -46 894 -46 894 -46 889 c 0,230,231
 -45 883 -45 883 -18 847 c 0,232,233
 -15 842 -15 842 -13 840 c 0,234,235
 41 757 41 757 51 720 c 1,236,237
 61 679 61 679 59 674 c 0,238,239
 58 671 l 0,240,241
 53 667 53 667 37 667 c 2,242,-1
 -15 667 l 1,243,-1
 -221 667 l 1,244,-1
 -231 713 l 1,245,-1
 -77 713 l 1,246,-1
 3 715 l 1,156,157
EndSplineSet
EndChar

StartChar: uniFE98
Encoding: 65176 65176 360
Width: 632
VWidth: 1639
GlyphClass: 2
Flags: HW
AnchorPoint: "GposMark2BaseAnchorClassErabAbove_01_02" 177 1520 basechar 0
AnchorPoint: "GposMark2BaseAnchorClassErabBelow_01_02" 177 -221 basechar 0
LayerCount: 2
Fore
SplineSet
62 1041 m 1,0,1
 55 1024 55 1024 12 967 c 0,2,3
 8 961 8 961 5 958 c 0,4,5
 -13 933 -13 933 -17 931 c 0,6,7
 -19 930 -19 930 -20 930 c 0,8,9
 -32 929 -32 929 -59 956 c 0,10,11
 -73 969 -73 969 -80 973 c 0,12,13
 -86 975 -86 975 -98 974 c 0,14,15
 -111 974 -111 974 -116 976 c 0,16,17
 -131 984 -131 984 -183 1032 c 0,18,19
 -189 1037 -189 1037 -192 1040 c 0,20,21
 -205 1051 -205 1051 -231.5 1073.5 c 128,-1,22
 -258 1096 -258 1096 -272 1107 c 0,23,24
 -303 1134 -303 1134 -307 1140 c 0,25,26
 -315 1155 -315 1155 -320 1196 c 0,27,28
 -323 1213 -323 1213 -293 1248 c 0,29,30
 -290 1252 -290 1252 -287 1255 c 2,31,-1
 -234 1332 l 2,32,33
 -212 1362 -212 1362 -205 1366 c 0,34,35
 -201 1367 -201 1367 -167 1366 c 2,36,-1
 -148 1366 l 1,37,38
 -137 1361 -137 1361 -115 1342 c 0,39,40
 -105 1333 -105 1333 -84 1314 c 0,41,42
 -62 1295 -62 1295 -52 1286 c 0,43,44
 -29 1267 -29 1267 -28 1266 c 0,45,46
 -21 1263 -21 1263 -16 1271 c 2,47,-1
 -16 1273 l 2,48,49
 -13 1278 -13 1278 -6 1287 c 0,50,51
 1 1297 1 1297 4 1302 c 0,52,53
 34 1351 34 1351 37 1355 c 0,54,55
 46 1363 46 1363 53 1366 c 0,56,57
 64 1370 64 1370 89 1366 c 0,58,59
 93 1365 93 1365 100 1366 c 0,60,61
 111 1366 111 1366 116 1363 c 0,62,63
 138 1347 138 1347 227 1268 c 0,64,65
 237 1259 237 1259 244 1253 c 0,66,67
 249 1249 249 1249 261 1239 c 0,68,69
 291 1215 291 1215 301 1202 c 0,70,71
 303 1199 303 1199 309 1165 c 0,72,73
 311 1156 311 1156 314 1151 c 0,74,75
 317 1147 317 1147 342 1127 c 0,76,77
 355 1116 355 1116 357 1105 c 1,78,79
 357 1092 357 1092 346 1076 c 2,80,-1
 310 1025 l 1,81,-1
 264 959 l 2,82,83
 262 956 262 956 259 951 c 0,84,85
 248 935 248 935 240 932 c 0,86,87
 227 927 227 927 194 959 c 0,88,89
 185 967 185 967 181 971 c 0,90,91
 177 973 177 973 153 973 c 0,92,93
 146 974 146 974 141 976 c 0,94,95
 127 984 127 984 67 1037 c 0,96,97
 64 1040 64 1040 62 1041 c 1,0,1
-163 1309 m 1,98,99
 -178 1295 -178 1295 -226 1221 c 0,100,101
 -231 1214 -231 1214 -233 1210 c 0,102,103
 -235 1207 -235 1207 -241 1201 c 0,104,105
 -257 1182 -257 1182 -258 1173 c 1,106,107
 -257 1168 -257 1168 -251 1162 c 128,-1,108
 -245 1156 -245 1156 -235 1148 c 2,109,-1
 -224 1140 l 2,110,111
 -210 1128 -210 1128 -181 1103 c 0,112,113
 -151 1078 -151 1078 -137 1066 c 0,114,115
 -134 1064 -134 1064 -128 1057 c 0,116,117
 -109 1039 -109 1039 -101 1036 c 1,118,119
 -96 1036 -96 1036 -92 1040.5 c 128,-1,120
 -88 1045 -88 1045 -83 1054 c 2,121,-1
 -78 1063 l 1,122,-1
 -39 1118 l 2,123,124
 -22 1141 -22 1141 -21 1143 c 0,125,126
 -17 1144 -17 1144 -8 1140 c 0,127,128
 -6 1140 -6 1140 -2 1142 c 0,129,130
 2 1144 2 1144 3 1145 c 0,131,132
 5 1145 5 1145 9 1142 c 0,133,134
 13 1140 13 1140 15 1140 c 0,135,136
 17 1140 17 1140 20 1142 c 0,137,138
 24 1144 24 1144 26 1145 c 0,139,140
 36 1140 36 1140 64 1114 c 0,141,142
 80 1100 80 1100 111 1073 c 0,143,144
 143 1046 143 1046 159 1033 c 1,145,-1
 160 1033 l 1,146,-1
 254 1169 l 1,147,-1
 253 1171 l 1,148,-1
 135 1273 l 2,149,150
 133 1275 133 1275 126 1282 c 0,151,152
 102 1304 102 1304 94 1305 c 1,153,154
 88 1304 88 1304 73 1279 c 0,155,156
 66 1269 66 1269 53 1250 c 0,157,158
 40 1230 40 1230 33 1220 c 0,159,160
 32 1218 32 1218 29 1213 c 0,161,162
 21 1200 21 1200 16 1197 c 1,163,164
 11 1197 11 1197 -0 1200 c 1,165,-1
 -8 1196 l 2,166,167
 -10 1196 -10 1196 -14 1198 c 0,168,169
 -18 1200 -18 1200 -20 1200 c 0,170,171
 -22 1200 -22 1200 -25 1198 c 0,172,173
 -28 1195 -28 1195 -31 1196 c 0,174,175
 -41 1201 -41 1201 -69 1227 c 0,176,177
 -85 1241 -85 1241 -116 1268 c 0,178,179
 -148 1296 -148 1296 -163 1309 c 1,98,99
-231 713 m 1,180,-1
 -92 713 l 2,181,182
 -14 714 -14 714 13 738 c 0,183,184
 35 759 35 759 51 834 c 0,185,186
 52 841 52 841 53 845 c 0,187,188
 63 896 63 896 79 909 c 1,189,190
 92 916 92 916 142 915 c 1,191,192
 170 913 170 913 194 874 c 0,193,194
 202 862 202 862 216 835 c 0,195,196
 251 772 251 772 278 749 c 0,197,198
 331 706 331 706 442 711 c 0,199,200
 487 713 487 713 496 713 c 1,201,-1
 507 667 l 1,202,-1
 374 667 l 2,203,204
 294 668 294 668 257 694 c 0,205,206
 222 719 222 719 177 801 c 0,207,208
 172 811 172 811 169 817 c 0,209,210
 144 853 144 853 142 855 c 0,211,212
 136 859 136 859 132 859 c 0,213,214
 117 858 117 858 109 813 c 0,215,216
 93 733 93 733 90 726 c 0,217,218
 79 701 79 701 64 689 c 0,219,220
 35 668 35 668 -47 667 c 2,221,-1
 -221 667 l 1,222,-1
 -231 713 l 1,180,-1
266 177 m 1,223,-1
 282 148 l 1,224,-1
 284 148 l 1,225,-1
 288 177 l 1,226,-1
 289 177 l 1,227,-1
 304 148 l 1,228,-1
 305 148 l 1,229,-1
 309 177 l 1,230,-1
 311 177 l 1,231,232
 323 146 323 146 351 115 c 0,233,234
 366 97 366 97 394 72 c 0,235,236
 462 17 462 17 579 21 c 0,237,238
 589 21 589 21 608 22 c 0,239,240
 640 23 640 23 656 23 c 1,241,-1
 677 -67 l 1,242,243
 665 -67 665 -67 641 -68 c 0,244,245
 559 -70 559 -70 519 -57 c 0,246,247
 512 -55 512 -55 463 -27 c 0,248,249
 454 -22 454 -22 448 -20 c 0,250,251
 376 14 376 14 349 36 c 1,252,253
 344 10 344 10 320 -16 c 0,254,255
 271 -71 271 -71 142 -69 c 0,256,257
 132 -69 132 -69 111 -68 c 0,258,259
 79 -67 79 -67 63 -67 c 0,260,261
 52 -67 52 -67 30 -68 c 0,262,263
 -25 -70 -25 -70 -51 -66 c 1,264,-1
 -71 21 l 1,265,-1
 54 21 l 2,266,267
 134 21 134 21 142 23 c 0,268,269
 204 36 204 36 239 92 c 0,270,271
 254 118 254 118 266 177 c 1,223,-1
EndSplineSet
EndChar

StartChar: afii57419
Encoding: 1579 1579 361
AltUni2: 00fe99.ffffffff.0
Width: 1785
VWidth: 1639
GlyphClass: 2
Flags: HW
AnchorPoint: "GposMark2BaseAnchorClassErabAbove_01_02" 747.5 1661 basechar 0
AnchorPoint: "GposMark2BaseAnchorClassErabBelow_01_02" 747.5 -222 basechar 0
LayerCount: 2
Fore
SplineSet
480 1245 m 1,0,1
 471 1252 471 1252 454 1266 c 0,2,3
 436 1281 436 1281 429 1287 c 0,4,5
 411 1304 411 1304 407 1310 c 1,6,7
 405 1317 405 1317 402 1333 c 0,8,9
 400 1345 400 1345 399 1350 c 2,10,-1
 395 1369 l 1,11,12
 398 1376 398 1376 414 1399 c 2,13,-1
 456 1460 l 2,14,15
 459 1464 459 1464 465 1474 c 0,16,17
 482 1502 482 1502 494 1509 c 0,18,19
 497 1510 497 1510 509 1507 c 0,20,21
 513 1507 513 1507 524 1509 c 0,22,23
 538 1511 538 1511 544 1510 c 0,24,25
 552 1507 552 1507 569 1492 c 2,26,-1
 617 1451 l 1,27,-1
 681 1396 l 2,28,29
 707 1374 707 1374 708 1372 c 0,30,31
 710 1369 710 1369 711 1368 c 0,32,33
 713 1364 713 1364 719 1331 c 0,34,35
 720 1323 720 1323 724 1319 c 0,36,37
 726 1315 726 1315 753 1291 c 1,38,39
 770 1273 770 1273 764 1258 c 0,40,41
 764 1256 764 1256 763 1253.5 c 128,-1,42
 762 1251 762 1251 760 1249 c 2,43,-1
 757 1246 l 1,44,-1
 747 1232 l 1,45,46
 767 1219 767 1219 836 1156 c 0,47,48
 844 1149 844 1149 849 1145 c 0,49,50
 891 1109 891 1109 893 1106 c 0,51,52
 896 1102 896 1102 898 1100 c 0,53,54
 900 1096 900 1096 906 1064 c 0,55,56
 907 1056 907 1056 910 1051 c 0,57,58
 913 1046 913 1046 939 1024 c 0,59,60
 951 1012 951 1012 953 1004 c 0,61,62
 955 991 955 991 945 976 c 2,63,-1
 911 928 l 1,64,-1
 869 868 l 2,65,66
 853 847 853 847 848 845 c 0,67,68
 838 843 838 843 805 874 c 0,69,70
 797 881 797 881 793 884 c 0,71,72
 787 888 787 888 764 887 c 0,73,74
 758 887 758 887 754 889 c 0,75,76
 738 897 738 897 690 943 c 1,77,-1
 688 943 l 1,78,79
 683 930 683 930 644 877 c 0,80,81
 641 873 641 873 639 871 c 0,82,83
 623 849 623 849 621 847 c 0,84,85
 619 846 619 846 618 846 c 0,86,87
 604 844 604 844 575 872 c 0,88,89
 562 883 562 883 556 887 c 0,90,91
 549 890 549 890 537 890 c 0,92,93
 525 889 525 889 519 892 c 0,94,95
 510 898 510 898 471 932 c 0,96,97
 457 944 457 944 430 967 c 0,98,99
 402 991 402 991 388 1002 c 0,100,101
 385 1005 385 1005 377 1011 c 0,102,103
 352 1032 352 1032 346 1043 c 1,104,105
 333 1082 333 1082 335 1099 c 0,106,107
 337 1110 337 1110 363 1144 c 0,108,109
 365 1147 365 1147 366 1148 c 2,110,-1
 415 1217 l 2,111,112
 433 1243 433 1243 437 1245 c 0,113,114
 439 1246 439 1246 440 1246 c 0,115,116
 453 1252 453 1252 480 1245 c 1,0,1
535 1448 m 1,117,118
 517 1431 517 1431 468 1355 c 0,119,120
 462 1345 462 1345 457 1338 c 1,121,-1
 457 1337 l 1,122,123
 472 1324 472 1324 503 1298 c 0,124,125
 536 1270 536 1270 552 1256 c 0,126,127
 554 1254 554 1254 559 1249 c 0,128,129
 578 1231 578 1231 585 1230 c 1,130,131
 591 1231 591 1231 607 1256 c 2,132,-1
 663 1337 l 1,133,-1
 663 1338 l 1,134,-1
 535 1448 l 1,117,118
481 1187 m 1,135,-1
 451 1146 l 1,136,-1
 397 1069 l 1,137,-1
 397 1068 l 1,138,-1
 536 950 l 1,139,-1
 537 950 l 1,140,141
 544 960 544 960 559 979 c 0,142,143
 595 1026 595 1026 605 1051 c 1,144,-1
 607 1051 l 1,145,-1
 622 1040 l 1,146,-1
 627 1051 l 1,147,-1
 628 1051 l 1,148,-1
 643 1040 l 1,149,-1
 648 1051 l 1,150,-1
 650 1051 l 1,151,152
 669 1029 669 1029 747 967 c 0,153,154
 760 957 760 957 768 950 c 1,155,-1
 769 950 l 1,156,-1
 852 1068 l 1,157,-1
 851 1069 l 1,158,-1
 750 1156 l 2,159,160
 748 1158 748 1158 743 1163 c 0,161,162
 720 1184 720 1184 713 1186 c 1,163,164
 708 1185 708 1185 694 1163 c 2,165,-1
 663 1118 l 2,166,167
 661 1115 661 1115 658 1109 c 0,168,169
 649 1094 649 1094 644 1091 c 1,170,171
 639 1091 639 1091 628 1094 c 1,172,-1
 620 1089 l 2,173,174
 618 1089 618 1089 614 1091 c 0,175,176
 610 1093 610 1093 608 1094 c 0,177,178
 606 1094 606 1094 603 1091 c 0,179,180
 599 1089 599 1089 597 1089 c 0,181,182
 591 1092 591 1092 563 1117 c 2,183,-1
 481 1187 l 1,135,-1
590 1171 m 1,184,-1
 587 1169 l 1,185,186
 597 1159 597 1159 602 1156 c 1,187,188
 607 1158 607 1158 607 1164 c 0,189,190
 606 1166 606 1166 599 1168 c 0,191,192
 592 1170 592 1170 590 1171 c 1,184,-1
1174 715 m 1,193,194
 1162 741 1162 741 1107 820 c 0,195,196
 1104 824 1104 824 1098 831 c 0,197,198
 1085 846 1085 846 1081 854 c 0,199,200
 1071 875 1071 875 1065 917 c 0,201,202
 1063 936 1063 936 1091 976 c 0,203,204
 1095 981 1095 981 1097 984 c 0,205,206
 1105 997 1105 997 1122 1024 c 0,207,208
 1139 1052 1139 1052 1147 1064 c 0,209,210
 1149 1068 1149 1068 1154 1078 c 0,211,212
 1170 1107 1170 1107 1183 1114 c 0,213,214
 1187 1116 1187 1116 1195 1115 c 0,215,216
 1202 1115 1202 1115 1204 1115 c 0,217,218
 1242 1114 1242 1114 1251 1109 c 0,219,220
 1287 1084 1287 1084 1331 1004 c 0,221,222
 1349 973 1349 973 1359 958 c 0,223,224
 1419 872 1419 872 1472 707 c 0,225,226
 1508 597 1508 597 1576 290 c 0,227,228
 1583 258 1583 258 1589 233 c 2,229,-1
 1633 41 l 2,230,231
 1634 35 1634 35 1639 21 c 0,232,233
 1651 -25 1651 -25 1646 -43 c 0,234,235
 1635 -72 1635 -72 1561 -68 c 0,236,237
 1547 -67 1547 -67 1541 -67 c 2,238,-1
 1227 -67 l 1,239,-1
 967 -67 l 1,240,-1
 705 -67 l 2,241,242
 552 -67 552 -67 487 -56 c 1,243,244
 401 -38 401 -38 278 25 c 1,245,246
 217 53 217 53 193 67 c 0,247,248
 61 152 61 152 -23 285 c 0,249,250
 -156 499 -156 499 -137 763 c 0,251,252
 -131 837 -131 837 -114 902 c 1,253,254
 -80 1016 -80 1016 -34 1058 c 1,255,256
 -22 1066 -22 1066 15 1064 c 1,257,258
 35 1061 35 1061 36 1061 c 0,259,260
 41 1053 41 1053 45 1033 c 2,261,-1
 60 969 l 1,262,263
 85 981 85 981 94 963 c 1,264,265
 99 948 99 948 108 870 c 0,266,267
 114 828 114 828 128 802 c 0,268,269
 134 793 134 793 155 774 c 0,270,271
 202 736 202 736 273 722 c 1,272,273
 330 713 330 713 474 713 c 2,274,-1
 793 713 l 1,275,-1
 1046 713 l 2,276,277
 1059 713 1059 713 1085 712 c 0,278,279
 1147 709 1147 709 1174 715 c 1,193,194
1226 1058 m 1,280,281
 1218 1050 1218 1050 1200 1018 c 0,282,283
 1191 1004 1191 1004 1174 977 c 0,284,285
 1156 949 1156 949 1148 935 c 0,286,287
 1126 903 1126 903 1125 901 c 0,288,289
 1122 894 1122 894 1123 889 c 0,290,291
 1124 883 1124 883 1154 844 c 0,292,293
 1156 842 1156 842 1158 840 c 0,294,295
 1211 760 1211 760 1221 722 c 1,296,297
 1231 680 1231 680 1228 673 c 0,298,299
 1227 670 1227 670 1224 669 c 0,300,301
 1219 667 1219 667 1196 667 c 2,302,-1
 1127 667 l 1,303,-1
 877 667 l 1,304,-1
 371 667 l 2,305,306
 230 667 230 667 159 705 c 0,307,308
 129 722 129 722 104 745 c 0,309,310
 32 814 32 814 11 984 c 0,311,312
 10 991 10 991 9 999 c 1,313,314
 -3 990 -3 990 -22 953 c 0,315,316
 -57 890 -57 890 -71 805 c 0,317,318
 -99 637 -99 637 -75 530 c 0,319,320
 -33 347 -33 347 108 206 c 0,321,322
 129 186 129 186 149 169 c 0,323,324
 297 44 297 44 495 25 c 0,325,326
 530 22 530 22 683 21 c 2,327,-1
 1212 21 l 1,328,-1
 1456 21 l 2,329,330
 1518 21 1518 21 1525 23 c 0,331,332
 1540 28 1540 28 1547 38 c 1,333,334
 1555 54 1555 54 1547 90 c 2,335,-1
 1527 177 l 1,336,-1
 1439 558 l 2,337,338
 1389 773 1389 773 1328 905 c 0,339,340
 1280 1009 1280 1009 1226 1058 c 1,280,281
EndSplineSet
AlternateSubs2: "gsub_alternate_dfl_aalt_arab_FAR_Lookup_01_Subtable_01" uniFE9A uniFE9B afii57419 uniFE9C
Substitution2: "gsub_single_rtl_fina_arab_FAR_Lookup_01_Subtable_01" uniFE9A
Substitution2: "gsub_single_rtl_init_arab_FAR_Lookup_01_Subtable_01" uniFE9B
Substitution2: "gsub_single_rtl_medi_arab_FAR_Lookup_01_Subtable_01" uniFE9C
EndChar

StartChar: uniFE9A
Encoding: 65178 65178 362
Width: 1790
VWidth: 1639
GlyphClass: 2
Flags: HW
AnchorPoint: "GposMark2BaseAnchorClassErabAbove_01_02" 831 1619 basechar 0
AnchorPoint: "GposMark2BaseAnchorClassErabBelow_01_02" 831 -218 basechar 0
LayerCount: 2
Fore
SplineSet
472 1200 m 1,0,1
 466 1205 466 1205 450 1217 c 0,2,3
 414 1245 414 1245 403 1261 c 0,4,5
 399 1267 399 1267 396 1284 c 1,6,7
 386 1314 386 1314 387 1323 c 0,8,9
 389 1331 389 1331 400 1346 c 2,10,-1
 430 1389 l 1,11,-1
 471 1448 l 1,12,13
 488 1468 488 1468 503 1461 c 1,14,15
 512 1469 512 1469 523 1461 c 1,16,-1
 524 1461 l 1,17,18
 534 1469 534 1469 551 1458 c 0,19,20
 556 1454 556 1454 608 1409 c 2,21,-1
 673 1353 l 2,22,23
 699 1330 699 1330 702 1325 c 0,24,25
 704 1321 704 1321 711 1289 c 0,26,27
 713 1281 713 1281 715 1276 c 0,28,29
 717 1273 717 1273 744 1249 c 0,30,31
 763 1231 763 1231 757 1215 c 0,32,33
 754 1208 754 1208 749 1202 c 0,34,35
 742 1192 742 1192 738 1189 c 1,36,-1
 739 1187 l 1,37,38
 759 1174 759 1174 828 1112 c 0,39,40
 836 1105 836 1105 841 1100 c 0,41,42
 883 1064 883 1064 885 1062 c 0,43,44
 888 1058 888 1058 889 1056 c 0,45,46
 893 1051 893 1051 898 1020 c 0,47,48
 900 1012 900 1012 902 1007 c 0,49,50
 904 1004 904 1004 931 981 c 0,51,52
 944 970 944 970 945 959 c 0,53,54
 947 946 947 946 936 932 c 2,55,-1
 903 884 l 1,56,-1
 862 825 l 2,57,58
 846 804 846 804 841 802 c 0,59,60
 829 799 829 799 796 830 c 0,61,62
 788 837 788 837 785 840 c 0,63,64
 779 844 779 844 757 843 c 0,65,66
 752 843 752 843 748 845 c 0,67,68
 723 854 723 854 681 900 c 1,69,-1
 680 900 l 1,70,71
 674 884 674 884 636 833 c 0,72,73
 633 829 633 829 631 827 c 0,74,75
 616 805 616 805 611 803 c 0,76,77
 609 802 609 802 608 802 c 0,78,79
 595 801 595 801 563 831 c 0,80,81
 555 838 555 838 552 841 c 0,82,83
 547 844 547 844 523 845 c 0,84,85
 517 846 517 846 514 846 c 0,86,87
 501 853 501 853 459 891 c 0,88,89
 443 905 443 905 410 932 c 0,90,91
 376 960 376 960 361 974 c 0,92,93
 335 999 335 999 340 1012 c 1,94,-1
 339 1014 l 1,95,96
 329 1025 329 1025 335 1035 c 1,97,-1
 334 1036 l 1,98,99
 318 1052 318 1052 349 1091 c 0,100,101
 351 1094 351 1094 353 1096 c 2,102,-1
 400 1163 l 2,103,104
 426 1200 426 1200 443 1203 c 0,105,106
 455 1205 455 1205 472 1200 c 1,0,1
579 1184 m 1,107,-1
 635 1264 l 2,108,109
 636 1266 636 1266 640 1270 c 0,110,111
 653 1286 653 1286 653 1294 c 0,112,113
 652 1297 652 1297 650 1299.5 c 128,-1,114
 648 1302 648 1302 643 1305 c 2,115,-1
 639 1309 l 1,116,-1
 597 1345 l 1,117,-1
 547 1387 l 2,118,119
 529 1401 529 1401 527 1402 c 0,120,121
 521 1401 521 1401 506 1376 c 0,122,123
 500 1368 500 1368 487 1352 c 0,124,125
 457 1314 457 1314 449 1292 c 1,126,-1
 578 1184 l 1,127,-1
 579 1184 l 1,107,-1
474 1143 m 1,128,-1
 445 1105 l 1,129,-1
 389 1023 l 1,130,-1
 528 905 l 1,131,-1
 529 905 l 1,132,133
 536 915 536 915 550 934 c 0,134,135
 586 981 586 981 597 1007 c 1,136,-1
 599 1007 l 1,137,-1
 611 995 l 1,138,-1
 612 995 l 1,139,-1
 619 1007 l 1,140,-1
 620 1007 l 1,141,-1
 632 995 l 1,142,-1
 633 995 l 1,143,-1
 640 1007 l 1,144,-1
 641 1007 l 1,145,-1
 685 969 l 1,146,-1
 759 905 l 1,147,-1
 761 905 l 1,148,-1
 844 1023 l 1,149,-1
 843 1025 l 1,150,-1
 742 1112 l 2,151,152
 740 1114 740 1114 735 1119 c 0,153,154
 712 1140 712 1140 705 1141 c 1,155,156
 699 1140 699 1140 685 1117 c 0,157,158
 680 1110 680 1110 669 1092 c 0,159,160
 648 1058 648 1058 637 1046 c 0,161,162
 636 1043 636 1043 629 1046 c 2,163,-1
 622 1050 l 2,164,165
 620 1050 620 1050 617 1047 c 0,166,167
 613 1045 613 1045 611 1045 c 0,168,169
 609 1045 609 1045 605 1047 c 0,170,171
 601 1049 601 1049 600 1050 c 0,172,173
 598 1050 598 1050 595 1047 c 0,174,175
 592 1044 592 1044 588 1045 c 0,176,177
 582 1048 582 1048 556 1071 c 0,178,179
 548 1078 548 1078 531 1092 c 0,180,181
 490 1125 490 1125 474 1143 c 1,128,-1
580 1127 m 1,182,-1
 595 1110 l 1,183,-1
 596 1110 l 1,184,-1
 602 1118 l 1,185,-1
 602 1120 l 1,186,-1
 580 1127 l 1,182,-1
1169 715 m 1,187,188
 1157 741 1157 741 1102 820 c 0,189,190
 1099 824 1099 824 1092 834 c 0,191,192
 1077 852 1077 852 1073 861 c 0,193,194
 1059 906 1059 906 1060 925 c 1,195,196
 1064 942 1064 942 1083 969 c 1,197,198
 1102 1003 1102 1003 1142 1064 c 1,199,200
 1165 1107 1165 1107 1180 1114 c 0,201,202
 1186 1116 1186 1116 1217 1115 c 0,203,204
 1220 1114 1220 1114 1226 1115 c 0,205,206
 1236 1114 1236 1114 1241 1112 c 0,207,208
 1279 1093 1279 1093 1333 995 c 0,209,210
 1341 980 1341 980 1359 951 c 0,211,212
 1382 913 1382 913 1392 894 c 0,213,214
 1423 833 1423 833 1466 713 c 1,215,-1
 1655 713 l 1,216,-1
 1665 667 l 1,217,-1
 1409 667 l 1,218,219
 1344 885 1344 885 1279 987 c 0,220,221
 1274 995 1274 995 1270 1000 c 0,222,223
 1265 1007 1265 1007 1221 1058 c 1,224,-1
 1220 1058 l 1,225,226
 1212 1041 1212 1041 1159 957 c 0,227,228
 1152 946 1152 946 1147 938 c 0,229,230
 1145 934 1145 934 1137 925 c 0,231,232
 1120 902 1120 902 1120 891 c 1,233,234
 1121 883 1121 883 1152 841 c 1,235,236
 1206 758 1206 758 1217 720 c 1,237,238
 1227 678 1227 678 1224 672 c 0,239,240
 1222 670 1222 670 1221 669 c 0,241,242
 1216 666 1216 666 1193 667 c 2,243,-1
 1127 667 l 1,244,-1
 883 667 l 1,245,-1
 416 667 l 2,246,247
 281 667 281 667 251 672 c 0,248,249
 199 681 199 681 158 702 c 0,250,251
 25 771 25 771 6 979 c 0,252,253
 5 990 5 990 4 999 c 1,254,255
 -51 938 -51 938 -75 802 c 0,256,257
 -105 648 -105 648 -78 530 c 0,258,259
 -33 335 -33 335 129 187 c 0,260,261
 206 118 206 118 291 79 c 0,262,263
 411 23 411 23 610 21 c 0,264,265
 625 21 625 21 663 21 c 2,266,-1
 1055 21 l 1,267,-1
 1295 21 l 1,268,-1
 1417 21 l 1,269,270
 1510 39 1510 39 1523 97 c 1,271,-1
 1524 97 l 1,272,-1
 1536 79 l 1,273,-1
 1539 79 l 1,274,-1
 1544 97 l 1,275,-1
 1546 97 l 1,276,-1
 1557 79 l 1,277,-1
 1560 79 l 1,278,-1
 1565 97 l 1,279,-1
 1567 97 l 1,280,281
 1614 20 1614 20 1739 21 c 0,282,283
 1752 21 1752 21 1778 22 c 0,284,285
 1803 23 1803 23 1814 23 c 1,286,-1
 1835 -67 l 1,287,288
 1740 -67 1740 -67 1714 -61 c 0,289,290
 1705 -59 1705 -59 1698 -56 c 0,291,292
 1691 -53 1691 -53 1649 -27 c 0,293,294
 1643 -24 1643 -24 1640 -21 c 0,295,296
 1636 -19 1636 -19 1610 -11 c 1,297,298
 1599 -57 1599 -57 1517 -66 c 0,299,300
 1501 -68 1501 -68 1403 -67 c 2,301,-1
 1199 -67 l 1,302,-1
 925 -67 l 1,303,-1
 696 -67 l 2,304,305
 560 -67 560 -67 508 -59 c 0,306,307
 412 -43 412 -43 278 25 c 0,308,309
 194 67 194 67 181 75 c 0,310,311
 67 149 67 149 -17 271 c 0,312,313
 -72 352 -72 352 -108 474 c 0,314,315
 -173 698 -173 698 -118 902 c 1,316,317
 -84 1016 -84 1016 -38 1058 c 1,318,319
 -26 1066 -26 1066 10 1064 c 1,320,321
 30 1061 30 1061 31 1061 c 0,322,323
 36 1053 36 1053 41 1033 c 2,324,-1
 55 969 l 1,325,326
 80 981 80 981 89 963 c 1,327,328
 94 948 94 948 103 870 c 0,329,330
 109 828 109 828 123 802 c 0,331,332
 129 793 129 793 151 774 c 0,333,334
 198 736 198 736 268 722 c 1,335,336
 325 713 325 713 470 713 c 2,337,-1
 789 713 l 1,338,-1
 1042 713 l 2,339,340
 1055 713 1055 713 1081 712 c 0,341,342
 1142 709 1142 709 1169 715 c 1,187,188
EndSplineSet
EndChar

StartChar: uniFE9B
Encoding: 65179 65179 363
Width: 709
VWidth: 1639
GlyphClass: 2
Flags: HW
AnchorPoint: "GposMark2BaseAnchorClassErabAbove_01_02" 91.5 1894 basechar 0
AnchorPoint: "GposMark2BaseAnchorClassErabBelow_01_02" 91.5 -220 basechar 0
LayerCount: 2
Fore
SplineSet
-157 1478 m 1,0,1
 -166 1485 -166 1485 -183 1499 c 0,2,3
 -201 1514 -201 1514 -208 1520 c 0,4,5
 -226 1537 -226 1537 -230 1543 c 1,6,7
 -233 1550 -233 1550 -235 1566 c 0,8,9
 -237 1577 -237 1577 -237 1581 c 2,10,-1
 -242 1601 l 1,11,12
 -240 1610 -240 1610 -223 1632 c 2,13,-1
 -181 1692 l 2,14,15
 -178 1696 -178 1696 -172 1707 c 0,16,17
 -155 1735 -155 1735 -143 1742 c 0,18,19
 -140 1743 -140 1743 -128 1740 c 0,20,21
 -124 1740 -124 1740 -114 1742 c 0,22,23
 -100 1744 -100 1744 -93 1743 c 0,24,25
 -85 1740 -85 1740 -68 1725 c 2,26,-1
 -20 1684 l 1,27,-1
 44 1629 l 2,28,29
 70 1607 70 1607 71 1605 c 0,30,31
 73 1602 73 1602 74 1601 c 0,32,33
 76 1597 76 1597 82 1564 c 0,34,35
 83 1556 83 1556 87 1551 c 0,36,37
 88 1549 88 1549 116 1524 c 1,38,39
 133 1506 133 1506 128 1492 c 0,40,41
 125 1485 125 1485 120 1479 c 2,42,-1
 110 1465 l 1,43,44
 130 1452 130 1452 199 1389 c 0,45,46
 207 1382 207 1382 212 1378 c 0,47,48
 254 1342 254 1342 256 1339 c 0,49,50
 259 1335 259 1335 261 1333 c 0,51,52
 265 1328 265 1328 269 1297 c 0,53,54
 271 1289 271 1289 273 1284 c 0,55,56
 275 1281 275 1281 302 1258 c 0,57,58
 316 1244 316 1244 317 1233 c 0,59,60
 318 1228 318 1228 316 1223.5 c 128,-1,61
 314 1219 314 1219 312.5 1216.5 c 128,-1,62
 311 1214 311 1214 307 1208 c 2,63,-1
 303 1202 l 1,64,-1
 262 1143 l 1,65,-1
 230 1097 l 2,66,67
 216 1079 216 1079 211 1077 c 0,68,69
 200 1075 200 1075 170 1105 c 0,70,71
 158 1116 158 1116 153 1118 c 0,72,73
 144 1122 144 1122 131 1123 c 0,74,75
 113 1125 113 1125 102 1133 c 2,76,-1
 68 1163 l 2,77,78
 56 1172 56 1172 54 1173 c 0,79,80
 51 1173 51 1173 47 1168.5 c 128,-1,81
 43 1164 43 1164 39 1157 c 2,82,-1
 34 1150 l 1,83,-1
 1 1102 l 2,84,85
 -14 1082 -14 1082 -17 1081 c 0,86,87
 -30 1074 -30 1074 -60 1104 c 0,88,89
 -74 1117 -74 1117 -81 1120 c 0,90,91
 -88 1122 -88 1122 -99 1122 c 0,92,93
 -111 1122 -111 1122 -117 1123 c 0,94,95
 -125 1128 -125 1128 -162 1161 c 0,96,97
 -176 1173 -176 1173 -205 1198 c 0,98,99
 -235 1223 -235 1223 -249 1235 c 0,100,101
 -252 1238 -252 1238 -260 1243 c 0,102,103
 -285 1264 -285 1264 -291 1276 c 0,104,105
 -294 1283 -294 1283 -295 1298 c 0,106,107
 -296 1308 -296 1308 -297 1312 c 2,108,-1
 -302 1332 l 1,109,110
 -300 1344 -300 1344 -274 1377 c 0,111,112
 -271 1381 -271 1381 -269 1383 c 2,113,-1
 -224 1448 l 2,114,115
 -204 1476 -204 1476 -199 1479 c 0,116,117
 -185 1486 -185 1486 -157 1478 c 1,0,1
-102 1681 m 1,118,119
 -120 1664 -120 1664 -169 1587 c 0,120,121
 -175 1577 -175 1577 -180 1571 c 1,122,-1
 -180 1569 l 1,123,124
 -165 1556 -165 1556 -134 1531 c 0,125,126
 -101 1503 -101 1503 -85 1489 c 0,127,128
 -83 1487 -83 1487 -78 1482 c 0,129,130
 -59 1464 -59 1464 -52 1463 c 1,131,132
 -46 1464 -46 1464 -30 1489 c 2,133,-1
 26 1569 l 1,134,-1
 26 1571 l 1,135,-1
 -102 1681 l 1,118,119
-156 1420 m 1,136,-1
 -186 1379 l 1,137,-1
 -240 1302 l 1,138,-1
 -240 1301 l 1,139,-1
 -101 1182 l 1,140,-1
 -100 1182 l 1,141,-1
 -50 1253 l 1,142,-1
 -31 1279 l 1,143,-1
 -17 1274 l 1,144,-1
 -8 1279 l 1,145,-1
 6 1274 l 1,146,-1
 15 1279 l 1,147,-1
 49 1251 l 1,148,-1
 131 1182 l 1,149,-1
 132 1182 l 1,150,-1
 215 1301 l 1,151,-1
 214 1302 l 1,152,-1
 113 1389 l 2,153,154
 111 1391 111 1391 106 1396 c 0,155,156
 83 1417 83 1417 76 1419 c 1,157,158
 71 1418 71 1418 57 1396 c 0,159,160
 51 1387 51 1387 39 1369 c 0,161,162
 27 1351 27 1351 22 1343 c 0,163,164
 8 1324 8 1324 7 1323 c 0,165,166
 2 1323 2 1323 -9 1327 c 1,167,-1
 -17 1322 l 2,168,169
 -19 1322 -19 1322 -23 1324 c 0,170,171
 -27 1326 -27 1326 -29 1327 c 0,172,173
 -31 1327 -31 1327 -34 1324 c 0,174,175
 -38 1322 -38 1322 -40 1322 c 0,176,177
 -46 1325 -46 1325 -74 1350 c 2,178,-1
 -156 1420 l 1,136,-1
-47 1404 m 1,179,-1
 -50 1402 l 1,180,181
 -40 1392 -40 1392 -35 1389 c 1,182,183
 -30 1391 -30 1391 -30 1397 c 1,184,185
 -32 1399 -32 1399 -39 1401 c 0,186,187
 -45 1403 -45 1403 -47 1404 c 1,179,-1
10 715 m 1,188,189
 -2 741 -2 741 -57 820 c 0,190,191
 -60 824 -60 824 -68 833 c 0,192,193
 -84 853 -84 853 -87 863 c 0,194,195
 -102 911 -102 911 -99 927 c 0,196,197
 -97 941 -97 941 -69 981 c 0,198,199
 -67 984 -67 984 -66 986 c 0,200,201
 -50 1014 -50 1014 -18 1064 c 0,202,203
 -16 1068 -16 1068 -10 1078 c 0,204,205
 6 1107 6 1107 18 1114 c 0,206,207
 22 1116 22 1116 30 1115 c 0,208,209
 37 1115 37 1115 39 1115 c 0,210,211
 75 1114 75 1114 81 1112 c 0,212,213
 103 1100 103 1100 127 1068 c 1,214,215
 146 1044 146 1044 210 935 c 0,216,217
 212 931 212 931 214 928 c 0,218,219
 260 852 260 852 313 689 c 0,220,221
 346 586 346 586 415 277 c 0,222,223
 422 246 422 246 427 221 c 2,224,-1
 472 28 l 2,225,226
 485 -29 485 -29 481 -43 c 0,227,228
 479 -48 479 -48 478 -51 c 0,229,230
 465 -67 465 -67 430 -67 c 2,231,-1
 343 -67 l 2,232,233
 304 -67 304 -67 226 -68 c 0,234,235
 45 -70 45 -70 -45 -66 c 1,236,-1
 -65 21 l 1,237,-1
 258 21 l 2,238,239
 266 21 266 21 285 20 c 0,240,241
 360 16 360 16 379 34 c 1,242,243
 391 57 391 57 378 110 c 2,244,-1
 337 290 l 2,245,246
 261 618 261 618 254 642 c 0,247,248
 239 699 239 699 223 748 c 0,249,250
 171 906 171 906 119 987 c 1,251,252
 98 1017 98 1017 62 1058 c 1,253,-1
 60 1058 l 1,254,255
 50 1034 50 1034 -5 951 c 0,256,257
 -10 943 -10 943 -14 936 c 0,258,259
 -37 903 -37 903 -38 901 c 0,260,261
 -40 894 -40 894 -40 889 c 0,262,263
 -39 883 -39 883 -12 847 c 0,264,265
 -9 842 -9 842 -7 840 c 0,266,267
 47 757 47 757 57 720 c 1,268,269
 67 679 67 679 66 674 c 0,270,271
 65 671 65 671 64 671 c 0,272,273
 59 667 59 667 44 667 c 2,274,-1
 -8 667 l 1,275,-1
 -214 667 l 1,276,-1
 -225 713 l 1,277,-1
 -71 713 l 1,278,-1
 10 715 l 1,188,189
EndSplineSet
EndChar

StartChar: uniFE9C
Encoding: 65180 65180 364
Width: 628
VWidth: 1639
GlyphClass: 2
Flags: HW
AnchorPoint: "GposMark2BaseAnchorClassErabAbove_01_02" 200.5 1722 basechar 0
AnchorPoint: "GposMark2BaseAnchorClassErabBelow_01_02" 200.5 -221 basechar 0
LayerCount: 2
Fore
SplineSet
-125 1305 m 1,0,1
 -134 1312 -134 1312 -151 1327 c 0,2,3
 -169 1342 -169 1342 -176 1348 c 0,4,5
 -194 1365 -194 1365 -198 1371 c 1,6,7
 -200 1378 -200 1378 -203 1394 c 0,8,9
 -205 1406 -205 1406 -206 1410 c 2,10,-1
 -210 1430 l 1,11,12
 -207 1437 -207 1437 -191 1460 c 2,13,-1
 -149 1520 l 2,14,15
 -146 1524 -146 1524 -140 1535 c 0,16,17
 -123 1563 -123 1563 -111 1569 c 0,18,19
 -108 1570 -108 1570 -96 1568 c 0,20,21
 -92 1568 -92 1568 -81 1570 c 0,22,23
 -67 1572 -67 1572 -61 1571 c 0,24,25
 -53 1568 -53 1568 -36 1553 c 2,26,-1
 12 1512 l 1,27,-1
 77 1456 l 2,28,29
 103 1434 103 1434 104 1432 c 0,30,31
 106 1429 106 1429 106 1428 c 0,32,33
 108 1424 108 1424 115 1392 c 0,34,35
 117 1384 117 1384 119 1379 c 0,36,37
 121 1375 121 1375 148 1351 c 1,38,39
 165 1333 165 1333 159 1319 c 0,40,41
 159 1317 159 1317 158 1314.5 c 128,-1,42
 157 1312 157 1312 155 1310 c 2,43,-1
 152 1307 l 1,44,-1
 142 1292 l 1,45,46
 162 1279 162 1279 233 1215 c 0,47,48
 241 1208 241 1208 246 1204 c 0,49,50
 250 1200 250 1200 260 1193 c 0,51,52
 285 1172 285 1172 293 1161 c 0,53,54
 295 1157 295 1157 301 1125 c 0,55,56
 303 1117 303 1117 306 1112 c 0,57,58
 309 1108 309 1108 334 1086 c 0,59,60
 347 1073 347 1073 349 1063 c 1,61,62
 349 1054 349 1054 339 1035 c 1,63,-1
 308 991 l 1,64,-1
 266 932 l 2,65,66
 249 910 249 910 245 907 c 0,67,68
 233 904 233 904 200 935 c 0,69,70
 192 942 192 942 189 945 c 0,71,72
 183 949 183 949 160 948 c 0,73,74
 155 948 155 948 151 950 c 0,75,76
 126 959 126 959 85 1005 c 1,77,-1
 83 1005 l 1,78,79
 77 989 77 989 39 938 c 0,80,81
 36 934 36 934 34 932 c 0,82,83
 18 910 18 910 16 908 c 0,84,85
 14 907 14 907 13 907 c 0,86,87
 -1 905 -1 905 -30 933 c 0,88,89
 -43 944 -43 944 -49 948 c 0,90,91
 -56 951 -56 951 -68 950 c 0,92,93
 -80 949 -80 949 -86 953 c 0,94,95
 -95 959 -95 959 -134 992 c 0,96,97
 -148 1004 -148 1004 -175 1027 c 0,98,99
 -203 1051 -203 1051 -217 1063 c 0,100,101
 -220 1065 -220 1065 -227 1071 c 0,102,103
 -254 1092 -254 1092 -258 1104 c 0,104,105
 -271 1142 -271 1142 -270 1159 c 0,106,107
 -268 1170 -268 1170 -242 1204 c 0,108,109
 -240 1207 -240 1207 -238 1209 c 2,110,-1
 -190 1278 l 2,111,112
 -172 1304 -172 1304 -171 1304 c 0,113,114
 -168 1306 -168 1306 -167 1307 c 0,115,116
 -153 1313 -153 1313 -125 1305 c 1,0,1
-70 1509 m 1,117,118
 -88 1492 -88 1492 -137 1415 c 0,119,120
 -143 1405 -143 1405 -148 1399 c 1,121,-1
 -148 1397 l 1,122,123
 -133 1384 -133 1384 -102 1358 c 0,124,125
 -69 1330 -69 1330 -53 1317 c 0,126,127
 -51 1315 -51 1315 -46 1310 c 0,128,129
 -27 1292 -27 1292 -19 1291 c 1,130,131
 -13 1292 -13 1292 2 1317 c 2,132,-1
 58 1397 l 1,133,-1
 58 1399 l 1,134,-1
 -70 1509 l 1,117,118
-124 1248 m 1,135,-1
 -154 1207 l 1,136,-1
 -208 1130 l 1,137,-1
 -208 1128 l 1,138,-1
 -69 1010 l 1,139,-1
 -68 1010 l 1,140,141
 -61 1020 -61 1020 -46 1039 c 0,142,143
 -10 1086 -10 1086 0 1112 c 1,144,-1
 2 1112 l 1,145,-1
 14 1100 l 1,146,-1
 15 1100 l 1,147,-1
 22 1112 l 1,148,-1
 23 1112 l 1,149,-1
 35 1100 l 1,150,-1
 37 1100 l 1,151,-1
 43 1112 l 1,152,-1
 45 1112 l 1,153,154
 64 1090 64 1090 142 1028 c 0,155,156
 155 1018 155 1018 163 1010 c 1,157,-1
 164 1010 l 1,158,-1
 247 1128 l 1,159,-1
 246 1130 l 1,160,-1
 146 1217 l 2,161,162
 144 1219 144 1219 138 1224 c 0,163,164
 115 1245 115 1245 108 1246 c 1,165,166
 103 1245 103 1245 89 1223 c 2,167,-1
 55 1174 l 2,168,169
 54 1172 54 1172 51 1167 c 0,170,171
 44 1155 44 1155 39 1151 c 1,172,173
 34 1151 34 1151 23 1155 c 1,174,-1
 15 1150 l 2,175,176
 13 1150 13 1150 9 1152 c 0,177,178
 5 1154 5 1154 3 1155 c 0,179,180
 1 1155 1 1155 -2 1152 c 0,181,182
 -6 1150 -6 1150 -8 1150 c 0,183,184
 -14 1153 -14 1153 -42 1178 c 2,185,-1
 -124 1248 l 1,135,-1
-16 1232 m 1,186,-1
 -2 1215 l 1,187,-1
 -1 1215 l 1,188,-1
 5 1223 l 1,189,-1
 5 1225 l 1,190,-1
 -16 1232 l 1,186,-1
-225 713 m 1,191,-1
 -86 713 l 2,192,193
 -8 714 -8 714 20 738 c 0,194,195
 42 759 42 759 57 834 c 0,196,197
 58 841 58 841 59 845 c 0,198,199
 69 896 69 896 86 909 c 1,200,201
 99 916 99 916 148 915 c 1,202,203
 176 913 176 913 200 874 c 0,204,205
 208 861 208 861 223 834 c 0,206,207
 257 773 257 773 282 751 c 0,208,209
 333 707 333 707 443 712 c 0,210,211
 485 714 485 714 492 713 c 1,212,-1
 503 667 l 1,213,-1
 382 667 l 2,214,215
 299 668 299 668 259 697 c 0,216,217
 228 720 228 720 186 796 c 0,218,219
 178 810 178 810 173 818 c 0,220,221
 151 856 151 856 138 859 c 1,222,223
 123 858 123 858 115 813 c 0,224,225
 99 733 99 733 96 726 c 0,226,227
 85 701 85 701 71 689 c 0,228,229
 42 668 42 668 -40 667 c 2,230,-1
 -214 667 l 1,231,-1
 -225 713 l 1,191,-1
273 177 m 1,232,-1
 289 148 l 1,233,-1
 290 148 l 1,234,-1
 294 177 l 1,235,-1
 296 177 l 1,236,-1
 310 148 l 1,237,-1
 312 148 l 1,238,-1
 315 177 l 1,239,-1
 317 177 l 1,240,241
 329 146 329 146 357 115 c 0,242,243
 372 97 372 97 401 72 c 1,244,245
 469 19 469 19 581 21 c 0,246,247
 590 21 590 21 609 22 c 0,248,249
 638 23 638 23 651 23 c 1,250,-1
 672 -67 l 1,251,252
 570 -67 570 -67 558 -65 c 0,253,254
 539 -62 539 -62 524 -57 c 0,255,256
 519 -55 519 -55 470 -28 c 0,257,258
 461 -23 461 -23 454 -20 c 0,259,260
 382 14 382 14 356 36 c 1,261,262
 351 10 351 10 327 -16 c 0,263,264
 278 -71 278 -71 148 -69 c 0,265,266
 138 -69 138 -69 118 -68 c 0,267,268
 86 -67 86 -67 70 -67 c 0,269,270
 59 -67 59 -67 37 -68 c 0,271,272
 -18 -70 -18 -70 -45 -66 c 1,273,-1
 -65 21 l 1,274,-1
 60 21 l 2,275,276
 140 21 140 21 148 23 c 0,277,278
 210 36 210 36 245 92 c 0,279,280
 261 118 261 118 273 177 c 1,232,-1
EndSplineSet
EndChar

